G04 EAGLE Gerber RS-274X export*
G75*
%MOMM*%
%FSLAX34Y34*%
%LPD*%
%INTop Copper*%
%IPPOS*%
%AMOC8*
5,1,8,0,0,1.08239X$1,22.5*%
G01*
%ADD10R,1.031241X0.949959*%
%ADD11C,1.960000*%
%ADD12R,1.524000X1.524000*%
%ADD13P,1.649562X8X202.500000*%
%ADD14R,1.651000X1.651000*%
%ADD15C,1.651000*%
%ADD16P,1.924489X8X202.500000*%
%ADD17C,0.102500*%
%ADD18C,3.220000*%
%ADD19C,1.288000*%
%ADD20C,1.016000*%
%ADD21R,4.100000X2.000000*%
%ADD22C,0.254000*%
%ADD23C,0.381000*%
%ADD24C,0.609600*%
%ADD25C,0.654800*%

G36*
X500771Y65998D02*
X500771Y65998D01*
X500889Y66006D01*
X500928Y66018D01*
X500968Y66023D01*
X501079Y66067D01*
X501192Y66104D01*
X501226Y66125D01*
X501264Y66140D01*
X501360Y66210D01*
X501461Y66274D01*
X501488Y66303D01*
X501521Y66327D01*
X501597Y66419D01*
X501679Y66506D01*
X501698Y66541D01*
X501724Y66572D01*
X501775Y66680D01*
X501832Y66784D01*
X501842Y66823D01*
X501859Y66860D01*
X501882Y66977D01*
X501912Y67092D01*
X501915Y67152D01*
X501919Y67172D01*
X501918Y67193D01*
X501922Y67253D01*
X501922Y76461D01*
X503909Y76461D01*
X509260Y71110D01*
X509354Y71037D01*
X509443Y70958D01*
X509479Y70940D01*
X509511Y70915D01*
X509620Y70867D01*
X509726Y70813D01*
X509766Y70805D01*
X509803Y70788D01*
X509921Y70770D01*
X510037Y70744D01*
X510077Y70745D01*
X510117Y70739D01*
X510236Y70750D01*
X510354Y70753D01*
X510393Y70765D01*
X510434Y70768D01*
X510546Y70809D01*
X510660Y70842D01*
X510695Y70862D01*
X510733Y70876D01*
X510831Y70943D01*
X510934Y71003D01*
X510979Y71043D01*
X510996Y71055D01*
X511009Y71070D01*
X511055Y71110D01*
X521226Y81281D01*
X546100Y81281D01*
X546198Y81293D01*
X546297Y81296D01*
X546355Y81313D01*
X546416Y81321D01*
X546508Y81357D01*
X546603Y81385D01*
X546655Y81415D01*
X546711Y81438D01*
X546791Y81496D01*
X546877Y81546D01*
X546952Y81612D01*
X546969Y81624D01*
X546976Y81634D01*
X546998Y81653D01*
X597798Y132453D01*
X597858Y132531D01*
X597926Y132603D01*
X597955Y132656D01*
X597992Y132704D01*
X598032Y132795D01*
X598080Y132881D01*
X598095Y132940D01*
X598119Y132996D01*
X598134Y133094D01*
X598159Y133189D01*
X598165Y133289D01*
X598169Y133310D01*
X598167Y133322D01*
X598169Y133350D01*
X598169Y146050D01*
X598157Y146148D01*
X598154Y146247D01*
X598137Y146305D01*
X598129Y146366D01*
X598093Y146458D01*
X598065Y146553D01*
X598035Y146605D01*
X598012Y146661D01*
X597954Y146741D01*
X597904Y146827D01*
X597838Y146902D01*
X597826Y146919D01*
X597816Y146926D01*
X597798Y146948D01*
X591448Y153298D01*
X591369Y153358D01*
X591297Y153426D01*
X591244Y153455D01*
X591196Y153492D01*
X591105Y153532D01*
X591019Y153580D01*
X590960Y153595D01*
X590904Y153619D01*
X590806Y153634D01*
X590711Y153659D01*
X590611Y153665D01*
X590590Y153669D01*
X590578Y153667D01*
X590550Y153669D01*
X588770Y153669D01*
X588701Y153661D01*
X588631Y153662D01*
X588544Y153641D01*
X588455Y153629D01*
X588390Y153604D01*
X588322Y153587D01*
X588242Y153545D01*
X588159Y153512D01*
X588103Y153471D01*
X588041Y153439D01*
X587974Y153378D01*
X587902Y153326D01*
X587857Y153272D01*
X587805Y153225D01*
X587756Y153150D01*
X587699Y153081D01*
X587669Y153017D01*
X587631Y152959D01*
X587601Y152874D01*
X587563Y152793D01*
X587550Y152724D01*
X587527Y152658D01*
X587520Y152569D01*
X587503Y152481D01*
X587508Y152411D01*
X587502Y152341D01*
X587518Y152253D01*
X587523Y152163D01*
X587545Y152097D01*
X587557Y152028D01*
X587594Y151946D01*
X587621Y151861D01*
X587659Y151802D01*
X587687Y151738D01*
X587743Y151668D01*
X587791Y151592D01*
X587842Y151544D01*
X587886Y151490D01*
X587958Y151436D01*
X588023Y151374D01*
X588084Y151340D01*
X588140Y151298D01*
X588284Y151227D01*
X589054Y150909D01*
X590525Y149926D01*
X591776Y148675D01*
X592759Y147204D01*
X593436Y145570D01*
X593499Y145249D01*
X585830Y145249D01*
X585712Y145234D01*
X585593Y145227D01*
X585555Y145214D01*
X585515Y145209D01*
X585404Y145166D01*
X585291Y145129D01*
X585257Y145107D01*
X585219Y145092D01*
X585123Y145023D01*
X585022Y144959D01*
X584994Y144929D01*
X584962Y144906D01*
X584886Y144814D01*
X584804Y144727D01*
X584796Y144713D01*
X584749Y144788D01*
X584719Y144816D01*
X584695Y144849D01*
X584604Y144925D01*
X584517Y145006D01*
X584482Y145026D01*
X584450Y145051D01*
X584343Y145102D01*
X584238Y145160D01*
X584199Y145170D01*
X584163Y145187D01*
X584046Y145209D01*
X583930Y145239D01*
X583870Y145243D01*
X583850Y145247D01*
X583830Y145245D01*
X583770Y145249D01*
X576101Y145249D01*
X576164Y145570D01*
X576841Y147204D01*
X577824Y148675D01*
X579075Y149926D01*
X580546Y150909D01*
X581316Y151227D01*
X581376Y151262D01*
X581441Y151288D01*
X581514Y151340D01*
X581592Y151385D01*
X581642Y151434D01*
X581698Y151474D01*
X581756Y151544D01*
X581820Y151606D01*
X581857Y151666D01*
X581901Y151719D01*
X581939Y151801D01*
X581986Y151877D01*
X582007Y151944D01*
X582037Y152007D01*
X582054Y152095D01*
X582080Y152181D01*
X582083Y152251D01*
X582097Y152320D01*
X582091Y152409D01*
X582095Y152499D01*
X582081Y152567D01*
X582077Y152637D01*
X582049Y152722D01*
X582031Y152810D01*
X582000Y152873D01*
X581979Y152939D01*
X581931Y153015D01*
X581891Y153096D01*
X581846Y153149D01*
X581809Y153208D01*
X581743Y153270D01*
X581685Y153338D01*
X581628Y153378D01*
X581577Y153426D01*
X581498Y153469D01*
X581425Y153521D01*
X581359Y153546D01*
X581298Y153580D01*
X581212Y153602D01*
X581127Y153634D01*
X581058Y153642D01*
X580991Y153659D01*
X580830Y153669D01*
X533926Y153669D01*
X500507Y187088D01*
X500398Y187173D01*
X500291Y187261D01*
X500272Y187270D01*
X500256Y187282D01*
X500128Y187338D01*
X500003Y187397D01*
X499983Y187401D01*
X499964Y187409D01*
X499826Y187431D01*
X499690Y187457D01*
X499670Y187455D01*
X499650Y187459D01*
X499511Y187446D01*
X499373Y187437D01*
X499354Y187431D01*
X499334Y187429D01*
X499202Y187382D01*
X499071Y187339D01*
X499053Y187328D01*
X499034Y187321D01*
X498919Y187243D01*
X498802Y187169D01*
X498788Y187154D01*
X498771Y187143D01*
X498679Y187038D01*
X498584Y186937D01*
X498574Y186919D01*
X498561Y186904D01*
X498497Y186780D01*
X498430Y186659D01*
X498425Y186639D01*
X498416Y186621D01*
X498386Y186485D01*
X498351Y186351D01*
X498349Y186323D01*
X498346Y186311D01*
X498347Y186290D01*
X498341Y186190D01*
X498341Y180339D01*
X476570Y180339D01*
X476452Y180324D01*
X476333Y180317D01*
X476295Y180304D01*
X476255Y180299D01*
X476144Y180255D01*
X476031Y180219D01*
X475996Y180197D01*
X475959Y180182D01*
X475863Y180112D01*
X475762Y180049D01*
X475734Y180019D01*
X475702Y179995D01*
X475626Y179904D01*
X475544Y179817D01*
X475525Y179782D01*
X475499Y179750D01*
X475448Y179643D01*
X475391Y179539D01*
X475380Y179499D01*
X475363Y179463D01*
X475341Y179346D01*
X475311Y179231D01*
X475307Y179170D01*
X475303Y179150D01*
X475305Y179130D01*
X475301Y179070D01*
X475301Y176530D01*
X475316Y176412D01*
X475323Y176293D01*
X475336Y176255D01*
X475341Y176215D01*
X475385Y176104D01*
X475421Y175991D01*
X475443Y175956D01*
X475458Y175919D01*
X475528Y175823D01*
X475591Y175722D01*
X475621Y175694D01*
X475645Y175661D01*
X475736Y175586D01*
X475823Y175504D01*
X475858Y175484D01*
X475890Y175459D01*
X475997Y175408D01*
X476101Y175350D01*
X476141Y175340D01*
X476177Y175323D01*
X476294Y175301D01*
X476409Y175271D01*
X476470Y175267D01*
X476490Y175263D01*
X476510Y175265D01*
X476570Y175261D01*
X498341Y175261D01*
X498341Y167466D01*
X498168Y166819D01*
X497833Y166240D01*
X497360Y165767D01*
X496781Y165432D01*
X496134Y165259D01*
X488950Y165259D01*
X488832Y165244D01*
X488713Y165237D01*
X488675Y165224D01*
X488634Y165219D01*
X488524Y165176D01*
X488411Y165139D01*
X488376Y165117D01*
X488339Y165102D01*
X488243Y165033D01*
X488142Y164969D01*
X488114Y164939D01*
X488081Y164916D01*
X488006Y164824D01*
X487924Y164737D01*
X487904Y164702D01*
X487879Y164671D01*
X487828Y164563D01*
X487770Y164459D01*
X487760Y164419D01*
X487743Y164383D01*
X487721Y164266D01*
X487691Y164151D01*
X487687Y164091D01*
X487683Y164071D01*
X487685Y164050D01*
X487681Y163990D01*
X487681Y71714D01*
X487698Y71576D01*
X487711Y71438D01*
X487718Y71419D01*
X487721Y71399D01*
X487772Y71270D01*
X487819Y71139D01*
X487830Y71122D01*
X487838Y71103D01*
X487919Y70991D01*
X487997Y70876D01*
X488013Y70862D01*
X488024Y70846D01*
X488132Y70757D01*
X488236Y70665D01*
X488254Y70656D01*
X488269Y70643D01*
X488395Y70584D01*
X488519Y70521D01*
X488539Y70516D01*
X488557Y70508D01*
X488693Y70481D01*
X488829Y70451D01*
X488850Y70452D01*
X488870Y70448D01*
X489008Y70456D01*
X489147Y70461D01*
X489167Y70466D01*
X489187Y70467D01*
X489319Y70510D01*
X489453Y70549D01*
X489470Y70559D01*
X489489Y70566D01*
X489607Y70640D01*
X489727Y70711D01*
X489748Y70729D01*
X489758Y70736D01*
X489772Y70751D01*
X489848Y70817D01*
X495491Y76461D01*
X497478Y76461D01*
X497478Y67253D01*
X497493Y67134D01*
X497501Y67016D01*
X497513Y66977D01*
X497518Y66937D01*
X497562Y66826D01*
X497599Y66713D01*
X497620Y66679D01*
X497635Y66641D01*
X497705Y66545D01*
X497769Y66445D01*
X497798Y66417D01*
X497822Y66384D01*
X497914Y66308D01*
X498000Y66227D01*
X498036Y66207D01*
X498067Y66181D01*
X498175Y66131D01*
X498279Y66073D01*
X498318Y66063D01*
X498355Y66046D01*
X498471Y66023D01*
X498587Y65994D01*
X498647Y65990D01*
X498667Y65986D01*
X498687Y65987D01*
X498747Y65983D01*
X500653Y65983D01*
X500771Y65998D01*
G37*
G36*
X452250Y163848D02*
X452250Y163848D01*
X452388Y163861D01*
X452407Y163868D01*
X452427Y163871D01*
X452557Y163922D01*
X452688Y163969D01*
X452704Y163980D01*
X452723Y163988D01*
X452836Y164069D01*
X452951Y164147D01*
X452964Y164163D01*
X452980Y164174D01*
X453069Y164282D01*
X453161Y164386D01*
X453170Y164404D01*
X453183Y164419D01*
X453242Y164545D01*
X453306Y164669D01*
X453310Y164689D01*
X453319Y164707D01*
X453345Y164843D01*
X453375Y164979D01*
X453375Y165000D01*
X453379Y165020D01*
X453370Y165158D01*
X453366Y165297D01*
X453360Y165317D01*
X453359Y165337D01*
X453316Y165469D01*
X453277Y165603D01*
X453267Y165620D01*
X453261Y165639D01*
X453186Y165757D01*
X453116Y165877D01*
X453097Y165898D01*
X453091Y165908D01*
X453076Y165922D01*
X453009Y165998D01*
X452767Y166240D01*
X452432Y166819D01*
X452259Y167466D01*
X452259Y175261D01*
X474030Y175261D01*
X474148Y175276D01*
X474267Y175283D01*
X474305Y175296D01*
X474345Y175301D01*
X474456Y175344D01*
X474569Y175381D01*
X474604Y175403D01*
X474641Y175418D01*
X474737Y175488D01*
X474838Y175551D01*
X474866Y175581D01*
X474898Y175605D01*
X474974Y175696D01*
X475056Y175783D01*
X475075Y175818D01*
X475101Y175849D01*
X475152Y175957D01*
X475209Y176061D01*
X475220Y176101D01*
X475237Y176137D01*
X475259Y176254D01*
X475289Y176369D01*
X475293Y176430D01*
X475297Y176450D01*
X475295Y176470D01*
X475299Y176530D01*
X475299Y179070D01*
X475284Y179188D01*
X475277Y179307D01*
X475264Y179345D01*
X475259Y179385D01*
X475215Y179496D01*
X475179Y179609D01*
X475157Y179644D01*
X475142Y179681D01*
X475072Y179777D01*
X475009Y179878D01*
X474979Y179906D01*
X474955Y179938D01*
X474864Y180014D01*
X474777Y180096D01*
X474742Y180115D01*
X474710Y180141D01*
X474603Y180192D01*
X474499Y180249D01*
X474459Y180260D01*
X474423Y180277D01*
X474306Y180299D01*
X474191Y180329D01*
X474130Y180333D01*
X474110Y180337D01*
X474090Y180335D01*
X474030Y180339D01*
X452259Y180339D01*
X452259Y188134D01*
X452432Y188781D01*
X452767Y189360D01*
X453009Y189603D01*
X453095Y189712D01*
X453183Y189819D01*
X453192Y189838D01*
X453204Y189854D01*
X453260Y189982D01*
X453319Y190107D01*
X453323Y190127D01*
X453331Y190146D01*
X453353Y190284D01*
X453379Y190420D01*
X453377Y190440D01*
X453381Y190460D01*
X453367Y190599D01*
X453359Y190737D01*
X453353Y190756D01*
X453351Y190776D01*
X453304Y190908D01*
X453261Y191039D01*
X453250Y191057D01*
X453243Y191076D01*
X453165Y191191D01*
X453091Y191308D01*
X453076Y191322D01*
X453065Y191339D01*
X452960Y191431D01*
X452859Y191526D01*
X452841Y191536D01*
X452826Y191549D01*
X452702Y191612D01*
X452581Y191680D01*
X452561Y191685D01*
X452543Y191694D01*
X452407Y191724D01*
X452273Y191759D01*
X452245Y191761D01*
X452233Y191764D01*
X452212Y191763D01*
X452112Y191769D01*
X451376Y191769D01*
X388619Y254526D01*
X388619Y292100D01*
X388607Y292198D01*
X388604Y292297D01*
X388587Y292355D01*
X388579Y292416D01*
X388543Y292508D01*
X388515Y292603D01*
X388485Y292655D01*
X388462Y292711D01*
X388404Y292791D01*
X388354Y292877D01*
X388288Y292952D01*
X388276Y292969D01*
X388266Y292976D01*
X388248Y292998D01*
X384495Y296750D01*
X384417Y296811D01*
X384345Y296879D01*
X384292Y296908D01*
X384244Y296945D01*
X384153Y296984D01*
X384066Y297032D01*
X384008Y297047D01*
X383952Y297071D01*
X383854Y297087D01*
X383758Y297112D01*
X383658Y297118D01*
X383638Y297121D01*
X383625Y297120D01*
X383597Y297122D01*
X373653Y297122D01*
X373534Y297107D01*
X373416Y297099D01*
X373377Y297087D01*
X373337Y297082D01*
X373226Y297038D01*
X373113Y297001D01*
X373079Y296980D01*
X373041Y296965D01*
X372945Y296895D01*
X372845Y296831D01*
X372817Y296802D01*
X372784Y296778D01*
X372708Y296686D01*
X372627Y296600D01*
X372607Y296564D01*
X372581Y296533D01*
X372531Y296425D01*
X372473Y296321D01*
X372463Y296282D01*
X372446Y296245D01*
X372423Y296129D01*
X372394Y296013D01*
X372390Y295953D01*
X372386Y295933D01*
X372387Y295913D01*
X372383Y295853D01*
X372383Y295217D01*
X371747Y295217D01*
X371629Y295202D01*
X371511Y295194D01*
X371472Y295182D01*
X371432Y295177D01*
X371321Y295133D01*
X371208Y295096D01*
X371174Y295075D01*
X371136Y295060D01*
X371040Y294990D01*
X370939Y294926D01*
X370912Y294897D01*
X370879Y294873D01*
X370803Y294781D01*
X370721Y294694D01*
X370702Y294659D01*
X370676Y294628D01*
X370625Y294520D01*
X370568Y294416D01*
X370558Y294377D01*
X370541Y294340D01*
X370518Y294223D01*
X370488Y294108D01*
X370485Y294048D01*
X370481Y294028D01*
X370482Y294007D01*
X370478Y293947D01*
X370478Y284739D01*
X368491Y284739D01*
X362848Y290383D01*
X362738Y290468D01*
X362631Y290557D01*
X362612Y290566D01*
X362596Y290578D01*
X362468Y290633D01*
X362343Y290692D01*
X362323Y290696D01*
X362304Y290704D01*
X362166Y290726D01*
X362031Y290752D01*
X362010Y290751D01*
X361990Y290754D01*
X361851Y290741D01*
X361713Y290733D01*
X361694Y290726D01*
X361674Y290724D01*
X361542Y290677D01*
X361411Y290634D01*
X361393Y290624D01*
X361374Y290617D01*
X361259Y290539D01*
X361142Y290464D01*
X361128Y290450D01*
X361111Y290438D01*
X361019Y290334D01*
X360924Y290233D01*
X360914Y290215D01*
X360901Y290200D01*
X360837Y290076D01*
X360770Y289954D01*
X360765Y289935D01*
X360756Y289917D01*
X360726Y289781D01*
X360691Y289646D01*
X360689Y289618D01*
X360687Y289606D01*
X360687Y289586D01*
X360681Y289486D01*
X360681Y254000D01*
X360693Y253902D01*
X360696Y253803D01*
X360713Y253745D01*
X360721Y253684D01*
X360757Y253592D01*
X360785Y253497D01*
X360815Y253445D01*
X360838Y253389D01*
X360896Y253309D01*
X360946Y253223D01*
X361012Y253148D01*
X361024Y253131D01*
X361034Y253124D01*
X361053Y253103D01*
X449953Y164203D01*
X450031Y164142D01*
X450103Y164074D01*
X450156Y164045D01*
X450204Y164008D01*
X450295Y163968D01*
X450381Y163920D01*
X450440Y163905D01*
X450496Y163881D01*
X450594Y163866D01*
X450689Y163841D01*
X450789Y163835D01*
X450810Y163831D01*
X450822Y163833D01*
X450850Y163831D01*
X452112Y163831D01*
X452250Y163848D01*
G37*
%LPC*%
G36*
X374922Y284739D02*
X374922Y284739D01*
X374922Y292678D01*
X382861Y292678D01*
X382861Y290691D01*
X376909Y284739D01*
X374922Y284739D01*
G37*
%LPD*%
%LPC*%
G36*
X587099Y140651D02*
X587099Y140651D01*
X593499Y140651D01*
X593436Y140330D01*
X592759Y138696D01*
X591776Y137225D01*
X590525Y135974D01*
X589054Y134991D01*
X587420Y134314D01*
X587099Y134251D01*
X587099Y140651D01*
G37*
%LPD*%
%LPC*%
G36*
X582180Y134314D02*
X582180Y134314D01*
X580546Y134991D01*
X579075Y135974D01*
X577824Y137225D01*
X576841Y138696D01*
X576164Y140330D01*
X576101Y140651D01*
X582501Y140651D01*
X582501Y134251D01*
X582180Y134314D01*
G37*
%LPD*%
D10*
X133350Y185801D03*
X133350Y169799D03*
D11*
X57550Y322850D03*
X107550Y322850D03*
X107550Y197850D03*
X57550Y197850D03*
D12*
X652100Y320300D03*
D13*
X652100Y294900D03*
X626700Y320300D03*
X626700Y294900D03*
X601300Y320300D03*
X601300Y294900D03*
X575900Y320300D03*
X575900Y294900D03*
X550500Y320300D03*
X550500Y294900D03*
X525100Y320300D03*
X525100Y294900D03*
X499700Y320300D03*
X499700Y294900D03*
X474300Y320300D03*
X474300Y294900D03*
X448900Y320300D03*
X448900Y294900D03*
X423500Y320300D03*
X423500Y294900D03*
X398100Y320300D03*
X398100Y294900D03*
X372700Y320300D03*
X372700Y294900D03*
X347300Y320300D03*
X347300Y294900D03*
X321900Y320300D03*
X321900Y294900D03*
X296500Y320300D03*
X296500Y294900D03*
X271100Y320300D03*
X271100Y294900D03*
X245700Y320300D03*
X245700Y294900D03*
X220300Y320300D03*
X220300Y294900D03*
D12*
X652100Y66300D03*
D13*
X652100Y40900D03*
X626700Y66300D03*
X626700Y40900D03*
X601300Y66300D03*
X601300Y40900D03*
X575900Y66300D03*
X575900Y40900D03*
X550500Y66300D03*
X550500Y40900D03*
X525100Y66300D03*
X525100Y40900D03*
X499700Y66300D03*
X499700Y40900D03*
X474300Y66300D03*
X474300Y40900D03*
X448900Y66300D03*
X448900Y40900D03*
X423500Y66300D03*
X423500Y40900D03*
X398100Y66300D03*
X398100Y40900D03*
X372700Y66300D03*
X372700Y40900D03*
X347300Y66300D03*
X347300Y40900D03*
X321900Y66300D03*
X321900Y40900D03*
X296500Y66300D03*
X296500Y40900D03*
X271100Y66300D03*
X271100Y40900D03*
X245700Y66300D03*
X245700Y40900D03*
X220300Y66300D03*
X220300Y40900D03*
D14*
X99400Y107850D03*
D15*
X99400Y82450D03*
X99400Y133250D03*
D16*
X177800Y63500D03*
X177800Y88900D03*
X177800Y114300D03*
X177800Y139700D03*
X177800Y165100D03*
X177800Y190500D03*
X177800Y215900D03*
X177800Y241300D03*
X177800Y266700D03*
X177800Y292100D03*
D17*
X285262Y140988D02*
X299938Y140988D01*
X299938Y137912D01*
X285262Y137912D01*
X285262Y140988D01*
X285262Y138886D02*
X299938Y138886D01*
X299938Y139860D02*
X285262Y139860D01*
X285262Y140834D02*
X299938Y140834D01*
X299938Y147488D02*
X285262Y147488D01*
X299938Y147488D02*
X299938Y144412D01*
X285262Y144412D01*
X285262Y147488D01*
X285262Y145386D02*
X299938Y145386D01*
X299938Y146360D02*
X285262Y146360D01*
X285262Y147334D02*
X299938Y147334D01*
X299938Y153988D02*
X285262Y153988D01*
X299938Y153988D02*
X299938Y150912D01*
X285262Y150912D01*
X285262Y153988D01*
X285262Y151886D02*
X299938Y151886D01*
X299938Y152860D02*
X285262Y152860D01*
X285262Y153834D02*
X299938Y153834D01*
X299938Y160488D02*
X285262Y160488D01*
X299938Y160488D02*
X299938Y157412D01*
X285262Y157412D01*
X285262Y160488D01*
X285262Y158386D02*
X299938Y158386D01*
X299938Y159360D02*
X285262Y159360D01*
X285262Y160334D02*
X299938Y160334D01*
X299938Y166988D02*
X285262Y166988D01*
X299938Y166988D02*
X299938Y163912D01*
X285262Y163912D01*
X285262Y166988D01*
X285262Y164886D02*
X299938Y164886D01*
X299938Y165860D02*
X285262Y165860D01*
X285262Y166834D02*
X299938Y166834D01*
X299938Y173488D02*
X285262Y173488D01*
X299938Y173488D02*
X299938Y170412D01*
X285262Y170412D01*
X285262Y173488D01*
X285262Y171386D02*
X299938Y171386D01*
X299938Y172360D02*
X285262Y172360D01*
X285262Y173334D02*
X299938Y173334D01*
X299938Y179988D02*
X285262Y179988D01*
X299938Y179988D02*
X299938Y176912D01*
X285262Y176912D01*
X285262Y179988D01*
X285262Y177886D02*
X299938Y177886D01*
X299938Y178860D02*
X285262Y178860D01*
X285262Y179834D02*
X299938Y179834D01*
X299938Y186488D02*
X285262Y186488D01*
X299938Y186488D02*
X299938Y183412D01*
X285262Y183412D01*
X285262Y186488D01*
X285262Y184386D02*
X299938Y184386D01*
X299938Y185360D02*
X285262Y185360D01*
X285262Y186334D02*
X299938Y186334D01*
X299938Y192988D02*
X285262Y192988D01*
X299938Y192988D02*
X299938Y189912D01*
X285262Y189912D01*
X285262Y192988D01*
X285262Y190886D02*
X299938Y190886D01*
X299938Y191860D02*
X285262Y191860D01*
X285262Y192834D02*
X299938Y192834D01*
X299938Y199488D02*
X285262Y199488D01*
X299938Y199488D02*
X299938Y196412D01*
X285262Y196412D01*
X285262Y199488D01*
X285262Y197386D02*
X299938Y197386D01*
X299938Y198360D02*
X285262Y198360D01*
X285262Y199334D02*
X299938Y199334D01*
X242538Y199488D02*
X227862Y199488D01*
X242538Y199488D02*
X242538Y196412D01*
X227862Y196412D01*
X227862Y199488D01*
X227862Y197386D02*
X242538Y197386D01*
X242538Y198360D02*
X227862Y198360D01*
X227862Y199334D02*
X242538Y199334D01*
X242538Y192988D02*
X227862Y192988D01*
X242538Y192988D02*
X242538Y189912D01*
X227862Y189912D01*
X227862Y192988D01*
X227862Y190886D02*
X242538Y190886D01*
X242538Y191860D02*
X227862Y191860D01*
X227862Y192834D02*
X242538Y192834D01*
X242538Y186488D02*
X227862Y186488D01*
X242538Y186488D02*
X242538Y183412D01*
X227862Y183412D01*
X227862Y186488D01*
X227862Y184386D02*
X242538Y184386D01*
X242538Y185360D02*
X227862Y185360D01*
X227862Y186334D02*
X242538Y186334D01*
X242538Y179988D02*
X227862Y179988D01*
X242538Y179988D02*
X242538Y176912D01*
X227862Y176912D01*
X227862Y179988D01*
X227862Y177886D02*
X242538Y177886D01*
X242538Y178860D02*
X227862Y178860D01*
X227862Y179834D02*
X242538Y179834D01*
X242538Y173488D02*
X227862Y173488D01*
X242538Y173488D02*
X242538Y170412D01*
X227862Y170412D01*
X227862Y173488D01*
X227862Y171386D02*
X242538Y171386D01*
X242538Y172360D02*
X227862Y172360D01*
X227862Y173334D02*
X242538Y173334D01*
X242538Y166988D02*
X227862Y166988D01*
X242538Y166988D02*
X242538Y163912D01*
X227862Y163912D01*
X227862Y166988D01*
X227862Y164886D02*
X242538Y164886D01*
X242538Y165860D02*
X227862Y165860D01*
X227862Y166834D02*
X242538Y166834D01*
X242538Y160488D02*
X227862Y160488D01*
X242538Y160488D02*
X242538Y157412D01*
X227862Y157412D01*
X227862Y160488D01*
X227862Y158386D02*
X242538Y158386D01*
X242538Y159360D02*
X227862Y159360D01*
X227862Y160334D02*
X242538Y160334D01*
X242538Y153988D02*
X227862Y153988D01*
X242538Y153988D02*
X242538Y150912D01*
X227862Y150912D01*
X227862Y153988D01*
X227862Y151886D02*
X242538Y151886D01*
X242538Y152860D02*
X227862Y152860D01*
X227862Y153834D02*
X242538Y153834D01*
X242538Y147488D02*
X227862Y147488D01*
X242538Y147488D02*
X242538Y144412D01*
X227862Y144412D01*
X227862Y147488D01*
X227862Y145386D02*
X242538Y145386D01*
X242538Y146360D02*
X227862Y146360D01*
X227862Y147334D02*
X242538Y147334D01*
X242538Y140988D02*
X227862Y140988D01*
X242538Y140988D02*
X242538Y137912D01*
X227862Y137912D01*
X227862Y140988D01*
X227862Y138886D02*
X242538Y138886D01*
X242538Y139860D02*
X227862Y139860D01*
X227862Y140834D02*
X242538Y140834D01*
D18*
X611900Y112250D03*
D19*
X584800Y142950D03*
D18*
X611900Y243650D03*
D19*
X584800Y167950D03*
X584800Y187950D03*
X584800Y212950D03*
D15*
X51700Y135300D03*
X51700Y160700D03*
X51700Y109900D03*
X51700Y84500D03*
X51700Y59100D03*
D20*
X127000Y38100D03*
X127000Y260350D03*
X679450Y266700D03*
D21*
X475300Y177800D03*
X388300Y177800D03*
D22*
X235200Y197950D02*
X234950Y198200D01*
D23*
X234950Y215900D01*
D24*
X234950Y215900D03*
D23*
X349250Y177800D02*
X388300Y177800D01*
D25*
X349250Y177800D03*
D22*
X235200Y139450D02*
X216150Y139450D01*
X203200Y152400D01*
X164011Y152400D01*
X138611Y127000D01*
X118550Y127000D02*
X99400Y107850D01*
X118550Y127000D02*
X138611Y127000D01*
D23*
X133350Y152400D02*
X133350Y169799D01*
D24*
X133350Y152400D03*
X323850Y146050D03*
D23*
X292700Y146050D02*
X292600Y145950D01*
X292700Y146050D02*
X323850Y146050D01*
D22*
X316400Y197950D02*
X292600Y197950D01*
X316400Y197950D02*
X317500Y196850D01*
D25*
X317500Y196850D03*
D23*
X592625Y235666D02*
X592625Y251634D01*
X601300Y310166D02*
X601300Y320300D01*
X601300Y310166D02*
X612095Y299371D01*
X592625Y235666D02*
X594415Y233876D01*
X594415Y152565D01*
X584800Y142950D01*
X612095Y271104D02*
X612095Y299371D01*
X612095Y271104D02*
X592625Y251634D01*
D22*
X372700Y294900D02*
X293700Y215900D01*
X285750Y215900D01*
X266700Y196850D01*
X266700Y158750D01*
X253900Y145950D01*
X235200Y145950D01*
D24*
X330200Y139700D03*
D22*
X323600Y133100D01*
X298950Y133100D01*
X292600Y139450D01*
X248500Y114300D02*
X177800Y114300D01*
X248500Y114300D02*
X296500Y66300D01*
X165100Y109039D02*
X165100Y119561D01*
X172539Y127000D01*
X261200Y127000D01*
X321900Y66300D01*
X177800Y88900D02*
X177800Y96339D01*
X165100Y109039D01*
X177800Y139700D02*
X208716Y139700D01*
X280010Y133590D02*
X347300Y66300D01*
X214826Y133590D02*
X208716Y139700D01*
X214826Y133590D02*
X280010Y133590D01*
X494966Y331730D02*
X539070Y331730D01*
X550500Y320300D01*
X494966Y331730D02*
X488270Y325035D01*
D25*
X523240Y228600D03*
D22*
X488270Y263570D01*
X488270Y325035D01*
X525100Y320300D02*
X525100Y311065D01*
X513670Y299635D01*
X513670Y259080D01*
D25*
X538480Y233680D03*
D22*
X538480Y234270D01*
X513670Y259080D01*
X57550Y197850D02*
X57550Y322850D01*
D24*
X152400Y177800D03*
D22*
X144399Y185801D01*
X133350Y185801D01*
X152400Y177800D02*
X165100Y190500D01*
X165100Y195761D01*
X172539Y203200D01*
X285070Y299635D02*
X291766Y306330D01*
X338065Y294900D02*
X347300Y294900D01*
X338065Y294900D02*
X326635Y306330D01*
X195565Y203200D02*
X172539Y203200D01*
X195565Y203200D02*
X285070Y292706D01*
X285070Y299635D01*
X291766Y306330D02*
X326635Y306330D01*
X101913Y336460D02*
X93940Y328488D01*
X101913Y336460D02*
X113188Y336460D01*
X215566Y331730D02*
X225035Y331730D01*
X93940Y177540D02*
X51700Y135300D01*
X140608Y309040D02*
X113188Y336460D01*
X140608Y309040D02*
X192876Y309040D01*
X215566Y331730D01*
X93940Y328488D02*
X93940Y177540D01*
X236465Y320300D02*
X245700Y320300D01*
X236465Y320300D02*
X225035Y331730D01*
X124384Y182584D02*
X51700Y109900D01*
X124384Y182584D02*
X124384Y192129D01*
X160855Y228600D01*
X183061Y228600D01*
X220300Y265839D01*
X220300Y294900D01*
X59100Y84500D02*
X51700Y84500D01*
X59100Y84500D02*
X69850Y95250D01*
X153489Y95250D02*
X172539Y76200D01*
X190500Y76200D01*
X214370Y52330D02*
X585730Y52330D01*
X589870Y56470D01*
X589870Y71035D01*
X596566Y77730D02*
X640670Y77730D01*
X652100Y66300D01*
X153489Y95250D02*
X69850Y95250D01*
X190500Y76200D02*
X214370Y52330D01*
X589870Y71035D02*
X596566Y77730D01*
X164239Y59100D02*
X51700Y59100D01*
X164239Y59100D02*
X172539Y50800D01*
X203200Y50800D01*
X208870Y45130D01*
X208870Y36166D01*
X215566Y29470D01*
X224530Y29470D01*
X228600Y25400D01*
X589870Y45635D02*
X596566Y52330D01*
X612730Y52330D02*
X626700Y66300D01*
X612730Y52330D02*
X596566Y52330D01*
X576565Y25400D02*
X228600Y25400D01*
X576565Y25400D02*
X589870Y38706D01*
X589870Y45635D01*
M02*
