G04 EAGLE Gerber RS-274X export*
G75*
%MOMM*%
%FSLAX34Y34*%
%LPD*%
%INCopper Layer 2*%
%IPPOS*%
%AMOC8*
5,1,8,0,0,1.08239X$1,22.5*%
G01*
%ADD10C,1.960000*%
%ADD11C,1.244600*%
%ADD12C,1.422400*%
%ADD13C,3.220000*%
%ADD14C,1.288000*%
%ADD15C,0.609600*%
%ADD16C,0.654800*%

G36*
X708208Y2556D02*
X708208Y2556D01*
X708327Y2563D01*
X708365Y2576D01*
X708406Y2581D01*
X708516Y2624D01*
X708629Y2661D01*
X708664Y2683D01*
X708701Y2698D01*
X708797Y2767D01*
X708898Y2831D01*
X708926Y2861D01*
X708959Y2884D01*
X709035Y2976D01*
X709116Y3063D01*
X709136Y3098D01*
X709161Y3129D01*
X709212Y3237D01*
X709270Y3341D01*
X709280Y3381D01*
X709297Y3417D01*
X709319Y3534D01*
X709349Y3649D01*
X709353Y3709D01*
X709357Y3729D01*
X709355Y3750D01*
X709359Y3810D01*
X709359Y352990D01*
X709344Y353108D01*
X709337Y353227D01*
X709324Y353265D01*
X709319Y353306D01*
X709276Y353416D01*
X709239Y353529D01*
X709217Y353564D01*
X709202Y353601D01*
X709133Y353697D01*
X709069Y353798D01*
X709039Y353826D01*
X709016Y353859D01*
X708924Y353935D01*
X708837Y354016D01*
X708802Y354036D01*
X708771Y354061D01*
X708663Y354112D01*
X708559Y354170D01*
X708519Y354180D01*
X708483Y354197D01*
X708366Y354219D01*
X708251Y354249D01*
X708191Y354253D01*
X708171Y354257D01*
X708150Y354255D01*
X708090Y354259D01*
X3810Y354259D01*
X3692Y354244D01*
X3573Y354237D01*
X3535Y354224D01*
X3494Y354219D01*
X3384Y354176D01*
X3271Y354139D01*
X3236Y354117D01*
X3199Y354102D01*
X3103Y354033D01*
X3002Y353969D01*
X2974Y353939D01*
X2941Y353916D01*
X2865Y353824D01*
X2784Y353737D01*
X2764Y353702D01*
X2739Y353671D01*
X2688Y353563D01*
X2630Y353459D01*
X2620Y353419D01*
X2603Y353383D01*
X2581Y353266D01*
X2551Y353151D01*
X2547Y353091D01*
X2543Y353071D01*
X2545Y353050D01*
X2541Y352990D01*
X2541Y3810D01*
X2556Y3692D01*
X2563Y3573D01*
X2576Y3535D01*
X2581Y3494D01*
X2624Y3384D01*
X2661Y3271D01*
X2683Y3236D01*
X2698Y3199D01*
X2767Y3103D01*
X2831Y3002D01*
X2861Y2974D01*
X2884Y2941D01*
X2976Y2865D01*
X3063Y2784D01*
X3098Y2764D01*
X3129Y2739D01*
X3237Y2688D01*
X3341Y2630D01*
X3381Y2620D01*
X3417Y2603D01*
X3534Y2581D01*
X3649Y2551D01*
X3709Y2547D01*
X3729Y2543D01*
X3750Y2545D01*
X3810Y2541D01*
X708090Y2541D01*
X708208Y2556D01*
G37*
%LPC*%
G36*
X608445Y226279D02*
X608445Y226279D01*
X602060Y228924D01*
X597174Y233810D01*
X594529Y240195D01*
X594529Y247105D01*
X597174Y253490D01*
X602060Y258376D01*
X608445Y261021D01*
X615355Y261021D01*
X621740Y258376D01*
X626626Y253490D01*
X629271Y247105D01*
X629271Y240195D01*
X626626Y233810D01*
X621740Y228924D01*
X615355Y226279D01*
X608445Y226279D01*
G37*
%LPD*%
%LPC*%
G36*
X608445Y94879D02*
X608445Y94879D01*
X602060Y97524D01*
X597174Y102410D01*
X594529Y108795D01*
X594529Y115705D01*
X597174Y122090D01*
X602060Y126976D01*
X608445Y129621D01*
X615355Y129621D01*
X621740Y126976D01*
X626626Y122090D01*
X629271Y115705D01*
X629271Y108795D01*
X626626Y102410D01*
X621740Y97524D01*
X615355Y94879D01*
X608445Y94879D01*
G37*
%LPD*%
%LPC*%
G36*
X683107Y310309D02*
X683107Y310309D01*
X678130Y312371D01*
X674321Y316180D01*
X672259Y321157D01*
X672259Y326543D01*
X674321Y331520D01*
X678130Y335329D01*
X683107Y337391D01*
X688493Y337391D01*
X693470Y335329D01*
X697279Y331520D01*
X699341Y326543D01*
X699341Y321157D01*
X697279Y316180D01*
X693470Y312371D01*
X688493Y310309D01*
X683107Y310309D01*
G37*
%LPD*%
%LPC*%
G36*
X175107Y310309D02*
X175107Y310309D01*
X170130Y312371D01*
X166321Y316180D01*
X164259Y321157D01*
X164259Y326543D01*
X166321Y331520D01*
X170130Y335329D01*
X175107Y337391D01*
X180493Y337391D01*
X185470Y335329D01*
X189279Y331520D01*
X191341Y326543D01*
X191341Y321157D01*
X189279Y316180D01*
X185470Y312371D01*
X180493Y310309D01*
X175107Y310309D01*
G37*
%LPD*%
%LPC*%
G36*
X175107Y18209D02*
X175107Y18209D01*
X170130Y20271D01*
X166321Y24080D01*
X164259Y29057D01*
X164259Y34443D01*
X166321Y39420D01*
X170130Y43229D01*
X175107Y45291D01*
X180493Y45291D01*
X185470Y43229D01*
X189279Y39420D01*
X191341Y34443D01*
X191341Y29057D01*
X189279Y24080D01*
X185470Y20271D01*
X180493Y18209D01*
X175107Y18209D01*
G37*
%LPD*%
%LPC*%
G36*
X683107Y18209D02*
X683107Y18209D01*
X678130Y20271D01*
X674321Y24080D01*
X672259Y29057D01*
X672259Y34443D01*
X674321Y39420D01*
X678130Y43229D01*
X683107Y45291D01*
X688493Y45291D01*
X693470Y43229D01*
X697279Y39420D01*
X699341Y34443D01*
X699341Y29057D01*
X697279Y24080D01*
X693470Y20271D01*
X688493Y18209D01*
X683107Y18209D01*
G37*
%LPD*%
%LPC*%
G36*
X55348Y311779D02*
X55348Y311779D01*
X51279Y313465D01*
X48165Y316579D01*
X46479Y320648D01*
X46479Y325052D01*
X48165Y329121D01*
X51279Y332235D01*
X55348Y333921D01*
X59752Y333921D01*
X63821Y332235D01*
X66935Y329121D01*
X68621Y325052D01*
X68621Y320648D01*
X66935Y316579D01*
X63821Y313465D01*
X59752Y311779D01*
X55348Y311779D01*
G37*
%LPD*%
%LPC*%
G36*
X55348Y186779D02*
X55348Y186779D01*
X51279Y188465D01*
X48165Y191579D01*
X46479Y195648D01*
X46479Y200052D01*
X48165Y204121D01*
X51279Y207235D01*
X55348Y208921D01*
X59752Y208921D01*
X63821Y207235D01*
X66935Y204121D01*
X68621Y200052D01*
X68621Y195648D01*
X66935Y191579D01*
X63821Y188465D01*
X59752Y186779D01*
X55348Y186779D01*
G37*
%LPD*%
%LPC*%
G36*
X176133Y55117D02*
X176133Y55117D01*
X173052Y56393D01*
X170693Y58752D01*
X169417Y61833D01*
X169417Y65167D01*
X170693Y68248D01*
X173052Y70607D01*
X176133Y71883D01*
X179467Y71883D01*
X182548Y70607D01*
X184907Y68248D01*
X186183Y65167D01*
X186183Y61833D01*
X184907Y58752D01*
X182548Y56393D01*
X179467Y55117D01*
X176133Y55117D01*
G37*
%LPD*%
%LPC*%
G36*
X176133Y80517D02*
X176133Y80517D01*
X173052Y81793D01*
X170693Y84152D01*
X169417Y87233D01*
X169417Y90567D01*
X170693Y93648D01*
X173052Y96007D01*
X176133Y97283D01*
X179467Y97283D01*
X182548Y96007D01*
X184907Y93648D01*
X186183Y90567D01*
X186183Y87233D01*
X184907Y84152D01*
X182548Y81793D01*
X179467Y80517D01*
X176133Y80517D01*
G37*
%LPD*%
%LPC*%
G36*
X176133Y105917D02*
X176133Y105917D01*
X173052Y107193D01*
X170693Y109552D01*
X169417Y112633D01*
X169417Y115967D01*
X170693Y119048D01*
X173052Y121407D01*
X176133Y122683D01*
X179467Y122683D01*
X182548Y121407D01*
X184907Y119048D01*
X186183Y115967D01*
X186183Y112633D01*
X184907Y109552D01*
X182548Y107193D01*
X179467Y105917D01*
X176133Y105917D01*
G37*
%LPD*%
%LPC*%
G36*
X176133Y258317D02*
X176133Y258317D01*
X173052Y259593D01*
X170693Y261952D01*
X169417Y265033D01*
X169417Y268367D01*
X170693Y271448D01*
X173052Y273807D01*
X176133Y275083D01*
X179467Y275083D01*
X182548Y273807D01*
X184907Y271448D01*
X186183Y268367D01*
X186183Y265033D01*
X184907Y261952D01*
X182548Y259593D01*
X179467Y258317D01*
X176133Y258317D01*
G37*
%LPD*%
%LPC*%
G36*
X176133Y232917D02*
X176133Y232917D01*
X173052Y234193D01*
X170693Y236552D01*
X169417Y239633D01*
X169417Y242967D01*
X170693Y246048D01*
X173052Y248407D01*
X176133Y249683D01*
X179467Y249683D01*
X182548Y248407D01*
X184907Y246048D01*
X186183Y242967D01*
X186183Y239633D01*
X184907Y236552D01*
X182548Y234193D01*
X179467Y232917D01*
X176133Y232917D01*
G37*
%LPD*%
%LPC*%
G36*
X176133Y131317D02*
X176133Y131317D01*
X173052Y132593D01*
X170693Y134952D01*
X169417Y138033D01*
X169417Y141367D01*
X170693Y144448D01*
X173052Y146807D01*
X176133Y148083D01*
X179467Y148083D01*
X182548Y146807D01*
X184907Y144448D01*
X186183Y141367D01*
X186183Y138033D01*
X184907Y134952D01*
X182548Y132593D01*
X179467Y131317D01*
X176133Y131317D01*
G37*
%LPD*%
%LPC*%
G36*
X176133Y207517D02*
X176133Y207517D01*
X173052Y208793D01*
X170693Y211152D01*
X169417Y214233D01*
X169417Y217567D01*
X170693Y220648D01*
X173052Y223007D01*
X176133Y224283D01*
X179467Y224283D01*
X182548Y223007D01*
X184907Y220648D01*
X186183Y217567D01*
X186183Y214233D01*
X184907Y211152D01*
X182548Y208793D01*
X179467Y207517D01*
X176133Y207517D01*
G37*
%LPD*%
%LPC*%
G36*
X176133Y156717D02*
X176133Y156717D01*
X173052Y157993D01*
X170693Y160352D01*
X169417Y163433D01*
X169417Y166767D01*
X170693Y169848D01*
X173052Y172207D01*
X176133Y173483D01*
X179467Y173483D01*
X182548Y172207D01*
X184907Y169848D01*
X186183Y166767D01*
X186183Y163433D01*
X184907Y160352D01*
X182548Y157993D01*
X179467Y156717D01*
X176133Y156717D01*
G37*
%LPD*%
%LPC*%
G36*
X176133Y182117D02*
X176133Y182117D01*
X173052Y183393D01*
X170693Y185752D01*
X169417Y188833D01*
X169417Y192167D01*
X170693Y195248D01*
X173052Y197607D01*
X176133Y198883D01*
X179467Y198883D01*
X182548Y197607D01*
X184907Y195248D01*
X186183Y192167D01*
X186183Y188833D01*
X184907Y185752D01*
X182548Y183393D01*
X179467Y182117D01*
X176133Y182117D01*
G37*
%LPD*%
%LPC*%
G36*
X583266Y135239D02*
X583266Y135239D01*
X580432Y136413D01*
X578263Y138582D01*
X577089Y141416D01*
X577089Y144484D01*
X578263Y147318D01*
X580432Y149487D01*
X583266Y150661D01*
X586334Y150661D01*
X589168Y149487D01*
X591337Y147318D01*
X592511Y144484D01*
X592511Y141416D01*
X591337Y138582D01*
X589168Y136413D01*
X586334Y135239D01*
X583266Y135239D01*
G37*
%LPD*%
%LPC*%
G36*
X583266Y160239D02*
X583266Y160239D01*
X580432Y161413D01*
X578263Y163582D01*
X577089Y166416D01*
X577089Y169484D01*
X578263Y172318D01*
X580432Y174487D01*
X583266Y175661D01*
X586334Y175661D01*
X589168Y174487D01*
X591337Y172318D01*
X592511Y169484D01*
X592511Y166416D01*
X591337Y163582D01*
X589168Y161413D01*
X586334Y160239D01*
X583266Y160239D01*
G37*
%LPD*%
%LPC*%
G36*
X583266Y180239D02*
X583266Y180239D01*
X580432Y181413D01*
X578263Y183582D01*
X577089Y186416D01*
X577089Y189484D01*
X578263Y192318D01*
X580432Y194487D01*
X583266Y195661D01*
X586334Y195661D01*
X589168Y194487D01*
X591337Y192318D01*
X592511Y189484D01*
X592511Y186416D01*
X591337Y183582D01*
X589168Y181413D01*
X586334Y180239D01*
X583266Y180239D01*
G37*
%LPD*%
%LPC*%
G36*
X329088Y134111D02*
X329088Y134111D01*
X327034Y134962D01*
X325462Y136534D01*
X324611Y138588D01*
X324611Y139192D01*
X324596Y139310D01*
X324589Y139429D01*
X324576Y139467D01*
X324571Y139508D01*
X324528Y139618D01*
X324491Y139731D01*
X324469Y139766D01*
X324454Y139803D01*
X324385Y139899D01*
X324321Y140000D01*
X324291Y140028D01*
X324268Y140061D01*
X324176Y140137D01*
X324089Y140218D01*
X324054Y140238D01*
X324023Y140263D01*
X323915Y140314D01*
X323811Y140372D01*
X323771Y140382D01*
X323735Y140399D01*
X323618Y140421D01*
X323503Y140451D01*
X323443Y140455D01*
X323423Y140459D01*
X323402Y140457D01*
X323342Y140461D01*
X322738Y140461D01*
X320684Y141312D01*
X319112Y142884D01*
X318261Y144938D01*
X318261Y147162D01*
X319112Y149216D01*
X320684Y150788D01*
X322738Y151639D01*
X324962Y151639D01*
X327016Y150788D01*
X328588Y149216D01*
X329439Y147162D01*
X329439Y146558D01*
X329454Y146440D01*
X329461Y146321D01*
X329474Y146283D01*
X329479Y146242D01*
X329522Y146132D01*
X329559Y146019D01*
X329581Y145984D01*
X329596Y145947D01*
X329665Y145851D01*
X329729Y145750D01*
X329759Y145722D01*
X329782Y145689D01*
X329874Y145613D01*
X329961Y145532D01*
X329996Y145512D01*
X330027Y145487D01*
X330135Y145436D01*
X330239Y145378D01*
X330279Y145368D01*
X330315Y145351D01*
X330432Y145329D01*
X330547Y145299D01*
X330607Y145295D01*
X330627Y145291D01*
X330648Y145293D01*
X330708Y145289D01*
X331312Y145289D01*
X333366Y144438D01*
X334938Y142866D01*
X335789Y140812D01*
X335789Y138588D01*
X334938Y136534D01*
X333366Y134962D01*
X331312Y134111D01*
X329088Y134111D01*
G37*
%LPD*%
%LPC*%
G36*
X295009Y58806D02*
X295009Y58806D01*
X292255Y59947D01*
X290147Y62055D01*
X289006Y64809D01*
X289006Y67791D01*
X290147Y70545D01*
X292255Y72653D01*
X295009Y73794D01*
X297991Y73794D01*
X300745Y72653D01*
X302853Y70545D01*
X303994Y67791D01*
X303994Y64809D01*
X302853Y62055D01*
X300745Y59947D01*
X297991Y58806D01*
X295009Y58806D01*
G37*
%LPD*%
%LPC*%
G36*
X269609Y58806D02*
X269609Y58806D01*
X266855Y59947D01*
X264747Y62055D01*
X263606Y64809D01*
X263606Y67791D01*
X264747Y70545D01*
X266855Y72653D01*
X269609Y73794D01*
X272591Y73794D01*
X275345Y72653D01*
X277453Y70545D01*
X278594Y67791D01*
X278594Y64809D01*
X277453Y62055D01*
X275345Y59947D01*
X272591Y58806D01*
X269609Y58806D01*
G37*
%LPD*%
%LPC*%
G36*
X50209Y51606D02*
X50209Y51606D01*
X47455Y52747D01*
X45347Y54855D01*
X44206Y57609D01*
X44206Y60591D01*
X45347Y63345D01*
X47455Y65453D01*
X50209Y66594D01*
X53191Y66594D01*
X55945Y65453D01*
X58053Y63345D01*
X59194Y60591D01*
X59194Y57609D01*
X58053Y54855D01*
X55945Y52747D01*
X53191Y51606D01*
X50209Y51606D01*
G37*
%LPD*%
%LPC*%
G36*
X650609Y33406D02*
X650609Y33406D01*
X647855Y34547D01*
X645747Y36655D01*
X644606Y39409D01*
X644606Y42391D01*
X645747Y45145D01*
X647855Y47253D01*
X650609Y48394D01*
X653591Y48394D01*
X656345Y47253D01*
X658453Y45145D01*
X659594Y42391D01*
X659594Y39409D01*
X658453Y36655D01*
X656345Y34547D01*
X653591Y33406D01*
X650609Y33406D01*
G37*
%LPD*%
%LPC*%
G36*
X599809Y33406D02*
X599809Y33406D01*
X597055Y34547D01*
X594947Y36655D01*
X593806Y39409D01*
X593806Y42391D01*
X594947Y45145D01*
X597055Y47253D01*
X599809Y48394D01*
X602791Y48394D01*
X605545Y47253D01*
X607653Y45145D01*
X608794Y42391D01*
X608794Y39409D01*
X607653Y36655D01*
X605545Y34547D01*
X602791Y33406D01*
X599809Y33406D01*
G37*
%LPD*%
%LPC*%
G36*
X574409Y33406D02*
X574409Y33406D01*
X571655Y34547D01*
X569547Y36655D01*
X568406Y39409D01*
X568406Y42391D01*
X569547Y45145D01*
X571655Y47253D01*
X574409Y48394D01*
X577391Y48394D01*
X580145Y47253D01*
X582253Y45145D01*
X583394Y42391D01*
X583394Y39409D01*
X582253Y36655D01*
X580145Y34547D01*
X577391Y33406D01*
X574409Y33406D01*
G37*
%LPD*%
%LPC*%
G36*
X244209Y312806D02*
X244209Y312806D01*
X241455Y313947D01*
X239347Y316055D01*
X238206Y318809D01*
X238206Y321791D01*
X239347Y324545D01*
X241455Y326653D01*
X244209Y327794D01*
X247191Y327794D01*
X249945Y326653D01*
X252053Y324545D01*
X253194Y321791D01*
X253194Y318809D01*
X252053Y316055D01*
X249945Y313947D01*
X247191Y312806D01*
X244209Y312806D01*
G37*
%LPD*%
%LPC*%
G36*
X218809Y312806D02*
X218809Y312806D01*
X216055Y313947D01*
X213947Y316055D01*
X212806Y318809D01*
X212806Y321791D01*
X213947Y324545D01*
X216055Y326653D01*
X218809Y327794D01*
X221791Y327794D01*
X224545Y326653D01*
X226653Y324545D01*
X227794Y321791D01*
X227794Y318809D01*
X226653Y316055D01*
X224545Y313947D01*
X221791Y312806D01*
X218809Y312806D01*
G37*
%LPD*%
%LPC*%
G36*
X650609Y312806D02*
X650609Y312806D01*
X647855Y313947D01*
X645747Y316055D01*
X644606Y318809D01*
X644606Y321791D01*
X645747Y324545D01*
X647855Y326653D01*
X650609Y327794D01*
X653591Y327794D01*
X656345Y326653D01*
X658453Y324545D01*
X659594Y321791D01*
X659594Y318809D01*
X658453Y316055D01*
X656345Y313947D01*
X653591Y312806D01*
X650609Y312806D01*
G37*
%LPD*%
%LPC*%
G36*
X625209Y312806D02*
X625209Y312806D01*
X622455Y313947D01*
X620347Y316055D01*
X619206Y318809D01*
X619206Y321791D01*
X620347Y324545D01*
X622455Y326653D01*
X625209Y327794D01*
X628191Y327794D01*
X630945Y326653D01*
X633053Y324545D01*
X634194Y321791D01*
X634194Y318809D01*
X633053Y316055D01*
X630945Y313947D01*
X628191Y312806D01*
X625209Y312806D01*
G37*
%LPD*%
%LPC*%
G36*
X599809Y312806D02*
X599809Y312806D01*
X597055Y313947D01*
X594947Y316055D01*
X593806Y318809D01*
X593806Y321791D01*
X594947Y324545D01*
X597055Y326653D01*
X599809Y327794D01*
X602791Y327794D01*
X605545Y326653D01*
X607653Y324545D01*
X608794Y321791D01*
X608794Y318809D01*
X607653Y316055D01*
X605545Y313947D01*
X602791Y312806D01*
X599809Y312806D01*
G37*
%LPD*%
%LPC*%
G36*
X574409Y312806D02*
X574409Y312806D01*
X571655Y313947D01*
X569547Y316055D01*
X568406Y318809D01*
X568406Y321791D01*
X569547Y324545D01*
X571655Y326653D01*
X574409Y327794D01*
X577391Y327794D01*
X580145Y326653D01*
X582253Y324545D01*
X583394Y321791D01*
X583394Y318809D01*
X582253Y316055D01*
X580145Y313947D01*
X577391Y312806D01*
X574409Y312806D01*
G37*
%LPD*%
%LPC*%
G36*
X549009Y312806D02*
X549009Y312806D01*
X546255Y313947D01*
X544147Y316055D01*
X543006Y318809D01*
X543006Y321791D01*
X544147Y324545D01*
X546255Y326653D01*
X549009Y327794D01*
X551991Y327794D01*
X554745Y326653D01*
X556853Y324545D01*
X557994Y321791D01*
X557994Y318809D01*
X556853Y316055D01*
X554745Y313947D01*
X551991Y312806D01*
X549009Y312806D01*
G37*
%LPD*%
%LPC*%
G36*
X523609Y312806D02*
X523609Y312806D01*
X520855Y313947D01*
X518747Y316055D01*
X517606Y318809D01*
X517606Y321791D01*
X518747Y324545D01*
X520855Y326653D01*
X523609Y327794D01*
X526591Y327794D01*
X529345Y326653D01*
X531453Y324545D01*
X532594Y321791D01*
X532594Y318809D01*
X531453Y316055D01*
X529345Y313947D01*
X526591Y312806D01*
X523609Y312806D01*
G37*
%LPD*%
%LPC*%
G36*
X447409Y312806D02*
X447409Y312806D01*
X444655Y313947D01*
X442547Y316055D01*
X441406Y318809D01*
X441406Y321791D01*
X442547Y324545D01*
X444655Y326653D01*
X447409Y327794D01*
X450391Y327794D01*
X453145Y326653D01*
X455253Y324545D01*
X456394Y321791D01*
X456394Y318809D01*
X455253Y316055D01*
X453145Y313947D01*
X450391Y312806D01*
X447409Y312806D01*
G37*
%LPD*%
%LPC*%
G36*
X422009Y312806D02*
X422009Y312806D01*
X419255Y313947D01*
X417147Y316055D01*
X416006Y318809D01*
X416006Y321791D01*
X417147Y324545D01*
X419255Y326653D01*
X422009Y327794D01*
X424991Y327794D01*
X427745Y326653D01*
X429853Y324545D01*
X430994Y321791D01*
X430994Y318809D01*
X429853Y316055D01*
X427745Y313947D01*
X424991Y312806D01*
X422009Y312806D01*
G37*
%LPD*%
%LPC*%
G36*
X396609Y312806D02*
X396609Y312806D01*
X393855Y313947D01*
X391747Y316055D01*
X390606Y318809D01*
X390606Y321791D01*
X391747Y324545D01*
X393855Y326653D01*
X396609Y327794D01*
X399591Y327794D01*
X402345Y326653D01*
X404453Y324545D01*
X405594Y321791D01*
X405594Y318809D01*
X404453Y316055D01*
X402345Y313947D01*
X399591Y312806D01*
X396609Y312806D01*
G37*
%LPD*%
%LPC*%
G36*
X371209Y312806D02*
X371209Y312806D01*
X368455Y313947D01*
X366347Y316055D01*
X365206Y318809D01*
X365206Y321791D01*
X366347Y324545D01*
X368455Y326653D01*
X371209Y327794D01*
X374191Y327794D01*
X376945Y326653D01*
X379053Y324545D01*
X380194Y321791D01*
X380194Y318809D01*
X379053Y316055D01*
X376945Y313947D01*
X374191Y312806D01*
X371209Y312806D01*
G37*
%LPD*%
%LPC*%
G36*
X345809Y312806D02*
X345809Y312806D01*
X343055Y313947D01*
X340947Y316055D01*
X339806Y318809D01*
X339806Y321791D01*
X340947Y324545D01*
X343055Y326653D01*
X345809Y327794D01*
X348791Y327794D01*
X351545Y326653D01*
X353653Y324545D01*
X354794Y321791D01*
X354794Y318809D01*
X353653Y316055D01*
X351545Y313947D01*
X348791Y312806D01*
X345809Y312806D01*
G37*
%LPD*%
%LPC*%
G36*
X320409Y312806D02*
X320409Y312806D01*
X317655Y313947D01*
X315547Y316055D01*
X314406Y318809D01*
X314406Y321791D01*
X315547Y324545D01*
X317655Y326653D01*
X320409Y327794D01*
X323391Y327794D01*
X326145Y326653D01*
X328253Y324545D01*
X329394Y321791D01*
X329394Y318809D01*
X328253Y316055D01*
X326145Y313947D01*
X323391Y312806D01*
X320409Y312806D01*
G37*
%LPD*%
%LPC*%
G36*
X295009Y312806D02*
X295009Y312806D01*
X292255Y313947D01*
X290147Y316055D01*
X289006Y318809D01*
X289006Y321791D01*
X290147Y324545D01*
X292255Y326653D01*
X295009Y327794D01*
X297991Y327794D01*
X300745Y326653D01*
X302853Y324545D01*
X303994Y321791D01*
X303994Y318809D01*
X302853Y316055D01*
X300745Y313947D01*
X297991Y312806D01*
X295009Y312806D01*
G37*
%LPD*%
%LPC*%
G36*
X269609Y312806D02*
X269609Y312806D01*
X266855Y313947D01*
X264747Y316055D01*
X263606Y318809D01*
X263606Y321791D01*
X264747Y324545D01*
X266855Y326653D01*
X269609Y327794D01*
X272591Y327794D01*
X275345Y326653D01*
X277453Y324545D01*
X278594Y321791D01*
X278594Y318809D01*
X277453Y316055D01*
X275345Y313947D01*
X272591Y312806D01*
X269609Y312806D01*
G37*
%LPD*%
%LPC*%
G36*
X549009Y33406D02*
X549009Y33406D01*
X546255Y34547D01*
X544147Y36655D01*
X543006Y39409D01*
X543006Y42391D01*
X544147Y45145D01*
X546255Y47253D01*
X549009Y48394D01*
X551991Y48394D01*
X554745Y47253D01*
X556853Y45145D01*
X557994Y42391D01*
X557994Y39409D01*
X556853Y36655D01*
X554745Y34547D01*
X551991Y33406D01*
X549009Y33406D01*
G37*
%LPD*%
%LPC*%
G36*
X523609Y33406D02*
X523609Y33406D01*
X520855Y34547D01*
X518747Y36655D01*
X517606Y39409D01*
X517606Y42391D01*
X518747Y45145D01*
X520855Y47253D01*
X523609Y48394D01*
X526591Y48394D01*
X529345Y47253D01*
X531453Y45145D01*
X532594Y42391D01*
X532594Y39409D01*
X531453Y36655D01*
X529345Y34547D01*
X526591Y33406D01*
X523609Y33406D01*
G37*
%LPD*%
%LPC*%
G36*
X498209Y33406D02*
X498209Y33406D01*
X495455Y34547D01*
X493347Y36655D01*
X492206Y39409D01*
X492206Y42391D01*
X493347Y45145D01*
X495455Y47253D01*
X498209Y48394D01*
X501191Y48394D01*
X503945Y47253D01*
X506053Y45145D01*
X507194Y42391D01*
X507194Y39409D01*
X506053Y36655D01*
X503945Y34547D01*
X501191Y33406D01*
X498209Y33406D01*
G37*
%LPD*%
%LPC*%
G36*
X472809Y33406D02*
X472809Y33406D01*
X470055Y34547D01*
X467947Y36655D01*
X466806Y39409D01*
X466806Y42391D01*
X467947Y45145D01*
X470055Y47253D01*
X472809Y48394D01*
X475791Y48394D01*
X478545Y47253D01*
X480653Y45145D01*
X481794Y42391D01*
X481794Y39409D01*
X480653Y36655D01*
X478545Y34547D01*
X475791Y33406D01*
X472809Y33406D01*
G37*
%LPD*%
%LPC*%
G36*
X447409Y33406D02*
X447409Y33406D01*
X444655Y34547D01*
X442547Y36655D01*
X441406Y39409D01*
X441406Y42391D01*
X442547Y45145D01*
X444655Y47253D01*
X447409Y48394D01*
X450391Y48394D01*
X453145Y47253D01*
X455253Y45145D01*
X456394Y42391D01*
X456394Y39409D01*
X455253Y36655D01*
X453145Y34547D01*
X450391Y33406D01*
X447409Y33406D01*
G37*
%LPD*%
%LPC*%
G36*
X422009Y33406D02*
X422009Y33406D01*
X419255Y34547D01*
X417147Y36655D01*
X416006Y39409D01*
X416006Y42391D01*
X417147Y45145D01*
X419255Y47253D01*
X422009Y48394D01*
X424991Y48394D01*
X427745Y47253D01*
X429853Y45145D01*
X430994Y42391D01*
X430994Y39409D01*
X429853Y36655D01*
X427745Y34547D01*
X424991Y33406D01*
X422009Y33406D01*
G37*
%LPD*%
%LPC*%
G36*
X396609Y33406D02*
X396609Y33406D01*
X393855Y34547D01*
X391747Y36655D01*
X390606Y39409D01*
X390606Y42391D01*
X391747Y45145D01*
X393855Y47253D01*
X396609Y48394D01*
X399591Y48394D01*
X402345Y47253D01*
X404453Y45145D01*
X405594Y42391D01*
X405594Y39409D01*
X404453Y36655D01*
X402345Y34547D01*
X399591Y33406D01*
X396609Y33406D01*
G37*
%LPD*%
%LPC*%
G36*
X371209Y33406D02*
X371209Y33406D01*
X368455Y34547D01*
X366347Y36655D01*
X365206Y39409D01*
X365206Y42391D01*
X366347Y45145D01*
X368455Y47253D01*
X371209Y48394D01*
X374191Y48394D01*
X376945Y47253D01*
X379053Y45145D01*
X380194Y42391D01*
X380194Y39409D01*
X379053Y36655D01*
X376945Y34547D01*
X374191Y33406D01*
X371209Y33406D01*
G37*
%LPD*%
%LPC*%
G36*
X345809Y33406D02*
X345809Y33406D01*
X343055Y34547D01*
X340947Y36655D01*
X339806Y39409D01*
X339806Y42391D01*
X340947Y45145D01*
X343055Y47253D01*
X345809Y48394D01*
X348791Y48394D01*
X351545Y47253D01*
X353653Y45145D01*
X354794Y42391D01*
X354794Y39409D01*
X353653Y36655D01*
X351545Y34547D01*
X348791Y33406D01*
X345809Y33406D01*
G37*
%LPD*%
%LPC*%
G36*
X320409Y33406D02*
X320409Y33406D01*
X317655Y34547D01*
X315547Y36655D01*
X314406Y39409D01*
X314406Y42391D01*
X315547Y45145D01*
X317655Y47253D01*
X320409Y48394D01*
X323391Y48394D01*
X326145Y47253D01*
X328253Y45145D01*
X329394Y42391D01*
X329394Y39409D01*
X328253Y36655D01*
X326145Y34547D01*
X323391Y33406D01*
X320409Y33406D01*
G37*
%LPD*%
%LPC*%
G36*
X295009Y33406D02*
X295009Y33406D01*
X292255Y34547D01*
X290147Y36655D01*
X289006Y39409D01*
X289006Y42391D01*
X290147Y45145D01*
X292255Y47253D01*
X295009Y48394D01*
X297991Y48394D01*
X300745Y47253D01*
X302853Y45145D01*
X303994Y42391D01*
X303994Y39409D01*
X302853Y36655D01*
X300745Y34547D01*
X297991Y33406D01*
X295009Y33406D01*
G37*
%LPD*%
%LPC*%
G36*
X650609Y287406D02*
X650609Y287406D01*
X647855Y288547D01*
X645747Y290655D01*
X644606Y293409D01*
X644606Y296391D01*
X645747Y299145D01*
X647855Y301253D01*
X650609Y302394D01*
X653591Y302394D01*
X656345Y301253D01*
X658453Y299145D01*
X659594Y296391D01*
X659594Y293409D01*
X658453Y290655D01*
X656345Y288547D01*
X653591Y287406D01*
X650609Y287406D01*
G37*
%LPD*%
%LPC*%
G36*
X625209Y287406D02*
X625209Y287406D01*
X622455Y288547D01*
X620347Y290655D01*
X619206Y293409D01*
X619206Y296391D01*
X620347Y299145D01*
X622455Y301253D01*
X625209Y302394D01*
X628191Y302394D01*
X630945Y301253D01*
X633053Y299145D01*
X634194Y296391D01*
X634194Y293409D01*
X633053Y290655D01*
X630945Y288547D01*
X628191Y287406D01*
X625209Y287406D01*
G37*
%LPD*%
%LPC*%
G36*
X599809Y287406D02*
X599809Y287406D01*
X597055Y288547D01*
X594947Y290655D01*
X593806Y293409D01*
X593806Y296391D01*
X594947Y299145D01*
X597055Y301253D01*
X599809Y302394D01*
X602791Y302394D01*
X605545Y301253D01*
X607653Y299145D01*
X608794Y296391D01*
X608794Y293409D01*
X607653Y290655D01*
X605545Y288547D01*
X602791Y287406D01*
X599809Y287406D01*
G37*
%LPD*%
%LPC*%
G36*
X574409Y287406D02*
X574409Y287406D01*
X571655Y288547D01*
X569547Y290655D01*
X568406Y293409D01*
X568406Y296391D01*
X569547Y299145D01*
X571655Y301253D01*
X574409Y302394D01*
X577391Y302394D01*
X580145Y301253D01*
X582253Y299145D01*
X583394Y296391D01*
X583394Y293409D01*
X582253Y290655D01*
X580145Y288547D01*
X577391Y287406D01*
X574409Y287406D01*
G37*
%LPD*%
%LPC*%
G36*
X549009Y287406D02*
X549009Y287406D01*
X546255Y288547D01*
X544147Y290655D01*
X543006Y293409D01*
X543006Y296391D01*
X544147Y299145D01*
X546255Y301253D01*
X549009Y302394D01*
X551991Y302394D01*
X554745Y301253D01*
X556853Y299145D01*
X557994Y296391D01*
X557994Y293409D01*
X556853Y290655D01*
X554745Y288547D01*
X551991Y287406D01*
X549009Y287406D01*
G37*
%LPD*%
%LPC*%
G36*
X523609Y287406D02*
X523609Y287406D01*
X520855Y288547D01*
X518747Y290655D01*
X517606Y293409D01*
X517606Y296391D01*
X518747Y299145D01*
X520855Y301253D01*
X523609Y302394D01*
X526591Y302394D01*
X529345Y301253D01*
X531453Y299145D01*
X532594Y296391D01*
X532594Y293409D01*
X531453Y290655D01*
X529345Y288547D01*
X526591Y287406D01*
X523609Y287406D01*
G37*
%LPD*%
%LPC*%
G36*
X498209Y287406D02*
X498209Y287406D01*
X495455Y288547D01*
X493347Y290655D01*
X492206Y293409D01*
X492206Y296391D01*
X493347Y299145D01*
X495455Y301253D01*
X498209Y302394D01*
X501191Y302394D01*
X503945Y301253D01*
X506053Y299145D01*
X507194Y296391D01*
X507194Y293409D01*
X506053Y290655D01*
X503945Y288547D01*
X501191Y287406D01*
X498209Y287406D01*
G37*
%LPD*%
%LPC*%
G36*
X447409Y287406D02*
X447409Y287406D01*
X444655Y288547D01*
X442547Y290655D01*
X441406Y293409D01*
X441406Y296391D01*
X442547Y299145D01*
X444655Y301253D01*
X447409Y302394D01*
X450391Y302394D01*
X453145Y301253D01*
X455253Y299145D01*
X456394Y296391D01*
X456394Y293409D01*
X455253Y290655D01*
X453145Y288547D01*
X450391Y287406D01*
X447409Y287406D01*
G37*
%LPD*%
%LPC*%
G36*
X422009Y287406D02*
X422009Y287406D01*
X419255Y288547D01*
X417147Y290655D01*
X416006Y293409D01*
X416006Y296391D01*
X417147Y299145D01*
X419255Y301253D01*
X422009Y302394D01*
X424991Y302394D01*
X427745Y301253D01*
X429853Y299145D01*
X430994Y296391D01*
X430994Y293409D01*
X429853Y290655D01*
X427745Y288547D01*
X424991Y287406D01*
X422009Y287406D01*
G37*
%LPD*%
%LPC*%
G36*
X371209Y287406D02*
X371209Y287406D01*
X368455Y288547D01*
X366347Y290655D01*
X365206Y293409D01*
X365206Y296391D01*
X366347Y299145D01*
X368455Y301253D01*
X371209Y302394D01*
X374191Y302394D01*
X376945Y301253D01*
X379053Y299145D01*
X380194Y296391D01*
X380194Y293409D01*
X379053Y290655D01*
X376945Y288547D01*
X374191Y287406D01*
X371209Y287406D01*
G37*
%LPD*%
%LPC*%
G36*
X345809Y287406D02*
X345809Y287406D01*
X343055Y288547D01*
X340947Y290655D01*
X339806Y293409D01*
X339806Y296391D01*
X340947Y299145D01*
X343055Y301253D01*
X345809Y302394D01*
X348791Y302394D01*
X351545Y301253D01*
X353653Y299145D01*
X354794Y296391D01*
X354794Y293409D01*
X353653Y290655D01*
X351545Y288547D01*
X348791Y287406D01*
X345809Y287406D01*
G37*
%LPD*%
%LPC*%
G36*
X320409Y287406D02*
X320409Y287406D01*
X317655Y288547D01*
X315547Y290655D01*
X314406Y293409D01*
X314406Y296391D01*
X315547Y299145D01*
X317655Y301253D01*
X320409Y302394D01*
X323391Y302394D01*
X326145Y301253D01*
X328253Y299145D01*
X329394Y296391D01*
X329394Y293409D01*
X328253Y290655D01*
X326145Y288547D01*
X323391Y287406D01*
X320409Y287406D01*
G37*
%LPD*%
%LPC*%
G36*
X295009Y287406D02*
X295009Y287406D01*
X292255Y288547D01*
X290147Y290655D01*
X289006Y293409D01*
X289006Y296391D01*
X290147Y299145D01*
X292255Y301253D01*
X295009Y302394D01*
X297991Y302394D01*
X300745Y301253D01*
X302853Y299145D01*
X303994Y296391D01*
X303994Y293409D01*
X302853Y290655D01*
X300745Y288547D01*
X297991Y287406D01*
X295009Y287406D01*
G37*
%LPD*%
%LPC*%
G36*
X269609Y287406D02*
X269609Y287406D01*
X266855Y288547D01*
X264747Y290655D01*
X263606Y293409D01*
X263606Y296391D01*
X264747Y299145D01*
X266855Y301253D01*
X269609Y302394D01*
X272591Y302394D01*
X275345Y301253D01*
X277453Y299145D01*
X278594Y296391D01*
X278594Y293409D01*
X277453Y290655D01*
X275345Y288547D01*
X272591Y287406D01*
X269609Y287406D01*
G37*
%LPD*%
%LPC*%
G36*
X244209Y287406D02*
X244209Y287406D01*
X241455Y288547D01*
X239347Y290655D01*
X238206Y293409D01*
X238206Y296391D01*
X239347Y299145D01*
X241455Y301253D01*
X244209Y302394D01*
X247191Y302394D01*
X249945Y301253D01*
X252053Y299145D01*
X253194Y296391D01*
X253194Y293409D01*
X252053Y290655D01*
X249945Y288547D01*
X247191Y287406D01*
X244209Y287406D01*
G37*
%LPD*%
%LPC*%
G36*
X218809Y287406D02*
X218809Y287406D01*
X216055Y288547D01*
X213947Y290655D01*
X212806Y293409D01*
X212806Y296391D01*
X213947Y299145D01*
X216055Y301253D01*
X218809Y302394D01*
X221791Y302394D01*
X224545Y301253D01*
X226653Y299145D01*
X227794Y296391D01*
X227794Y293409D01*
X226653Y290655D01*
X224545Y288547D01*
X221791Y287406D01*
X218809Y287406D01*
G37*
%LPD*%
%LPC*%
G36*
X269609Y33406D02*
X269609Y33406D01*
X266855Y34547D01*
X264747Y36655D01*
X263606Y39409D01*
X263606Y42391D01*
X264747Y45145D01*
X266855Y47253D01*
X269609Y48394D01*
X272591Y48394D01*
X275345Y47253D01*
X277453Y45145D01*
X278594Y42391D01*
X278594Y39409D01*
X277453Y36655D01*
X275345Y34547D01*
X272591Y33406D01*
X269609Y33406D01*
G37*
%LPD*%
%LPC*%
G36*
X244209Y33406D02*
X244209Y33406D01*
X241455Y34547D01*
X239347Y36655D01*
X238206Y39409D01*
X238206Y42391D01*
X239347Y45145D01*
X241455Y47253D01*
X244209Y48394D01*
X247191Y48394D01*
X249945Y47253D01*
X252053Y45145D01*
X253194Y42391D01*
X253194Y39409D01*
X252053Y36655D01*
X249945Y34547D01*
X247191Y33406D01*
X244209Y33406D01*
G37*
%LPD*%
%LPC*%
G36*
X218809Y33406D02*
X218809Y33406D01*
X216055Y34547D01*
X213947Y36655D01*
X212806Y39409D01*
X212806Y42391D01*
X213947Y45145D01*
X216055Y47253D01*
X218809Y48394D01*
X221791Y48394D01*
X224545Y47253D01*
X226653Y45145D01*
X227794Y42391D01*
X227794Y39409D01*
X226653Y36655D01*
X224545Y34547D01*
X221791Y33406D01*
X218809Y33406D01*
G37*
%LPD*%
%LPC*%
G36*
X625209Y33406D02*
X625209Y33406D01*
X622455Y34547D01*
X620347Y36655D01*
X619206Y39409D01*
X619206Y42391D01*
X620347Y45145D01*
X622455Y47253D01*
X625209Y48394D01*
X628191Y48394D01*
X630945Y47253D01*
X633053Y45145D01*
X634194Y42391D01*
X634194Y39409D01*
X633053Y36655D01*
X630945Y34547D01*
X628191Y33406D01*
X625209Y33406D01*
G37*
%LPD*%
%LPC*%
G36*
X574409Y58806D02*
X574409Y58806D01*
X571655Y59947D01*
X569547Y62055D01*
X568406Y64809D01*
X568406Y67791D01*
X569547Y70545D01*
X571655Y72653D01*
X574409Y73794D01*
X577391Y73794D01*
X580145Y72653D01*
X582253Y70545D01*
X583394Y67791D01*
X583394Y64809D01*
X582253Y62055D01*
X580145Y59947D01*
X577391Y58806D01*
X574409Y58806D01*
G37*
%LPD*%
%LPC*%
G36*
X50209Y127806D02*
X50209Y127806D01*
X47455Y128947D01*
X45347Y131055D01*
X44206Y133809D01*
X44206Y136791D01*
X45347Y139545D01*
X47455Y141653D01*
X50209Y142794D01*
X53191Y142794D01*
X55945Y141653D01*
X58053Y139545D01*
X59194Y136791D01*
X59194Y133809D01*
X58053Y131055D01*
X55945Y128947D01*
X53191Y127806D01*
X50209Y127806D01*
G37*
%LPD*%
%LPC*%
G36*
X50209Y102406D02*
X50209Y102406D01*
X47455Y103547D01*
X45347Y105655D01*
X44206Y108409D01*
X44206Y111391D01*
X45347Y114145D01*
X47455Y116253D01*
X50209Y117394D01*
X53191Y117394D01*
X55945Y116253D01*
X58053Y114145D01*
X59194Y111391D01*
X59194Y108409D01*
X58053Y105655D01*
X55945Y103547D01*
X53191Y102406D01*
X50209Y102406D01*
G37*
%LPD*%
%LPC*%
G36*
X97909Y100356D02*
X97909Y100356D01*
X95155Y101497D01*
X93047Y103605D01*
X91906Y106359D01*
X91906Y109341D01*
X93047Y112095D01*
X95155Y114203D01*
X97909Y115344D01*
X100891Y115344D01*
X103645Y114203D01*
X105753Y112095D01*
X106894Y109341D01*
X106894Y106359D01*
X105753Y103605D01*
X103645Y101497D01*
X100891Y100356D01*
X97909Y100356D01*
G37*
%LPD*%
%LPC*%
G36*
X50209Y77006D02*
X50209Y77006D01*
X47455Y78147D01*
X45347Y80255D01*
X44206Y83009D01*
X44206Y85991D01*
X45347Y88745D01*
X47455Y90853D01*
X50209Y91994D01*
X53191Y91994D01*
X55945Y90853D01*
X58053Y88745D01*
X59194Y85991D01*
X59194Y83009D01*
X58053Y80255D01*
X55945Y78147D01*
X53191Y77006D01*
X50209Y77006D01*
G37*
%LPD*%
%LPC*%
G36*
X97909Y74956D02*
X97909Y74956D01*
X95155Y76097D01*
X93047Y78205D01*
X91906Y80959D01*
X91906Y83941D01*
X93047Y86695D01*
X95155Y88803D01*
X97909Y89944D01*
X100891Y89944D01*
X103645Y88803D01*
X105753Y86695D01*
X106894Y83941D01*
X106894Y80959D01*
X105753Y78205D01*
X103645Y76097D01*
X100891Y74956D01*
X97909Y74956D01*
G37*
%LPD*%
%LPC*%
G36*
X244209Y58806D02*
X244209Y58806D01*
X241455Y59947D01*
X239347Y62055D01*
X238206Y64809D01*
X238206Y67791D01*
X239347Y70545D01*
X241455Y72653D01*
X244209Y73794D01*
X247191Y73794D01*
X249945Y72653D01*
X252053Y70545D01*
X253194Y67791D01*
X253194Y64809D01*
X252053Y62055D01*
X249945Y59947D01*
X247191Y58806D01*
X244209Y58806D01*
G37*
%LPD*%
%LPC*%
G36*
X218809Y58806D02*
X218809Y58806D01*
X216055Y59947D01*
X213947Y62055D01*
X212806Y64809D01*
X212806Y67791D01*
X213947Y70545D01*
X216055Y72653D01*
X218809Y73794D01*
X221791Y73794D01*
X224545Y72653D01*
X226653Y70545D01*
X227794Y67791D01*
X227794Y64809D01*
X226653Y62055D01*
X224545Y59947D01*
X221791Y58806D01*
X218809Y58806D01*
G37*
%LPD*%
%LPC*%
G36*
X650609Y58806D02*
X650609Y58806D01*
X647855Y59947D01*
X645747Y62055D01*
X644606Y64809D01*
X644606Y67791D01*
X645747Y70545D01*
X647855Y72653D01*
X650609Y73794D01*
X653591Y73794D01*
X656345Y72653D01*
X658453Y70545D01*
X659594Y67791D01*
X659594Y64809D01*
X658453Y62055D01*
X656345Y59947D01*
X653591Y58806D01*
X650609Y58806D01*
G37*
%LPD*%
%LPC*%
G36*
X625209Y58806D02*
X625209Y58806D01*
X622455Y59947D01*
X620347Y62055D01*
X619206Y64809D01*
X619206Y67791D01*
X620347Y70545D01*
X622455Y72653D01*
X625209Y73794D01*
X628191Y73794D01*
X630945Y72653D01*
X633053Y70545D01*
X634194Y67791D01*
X634194Y64809D01*
X633053Y62055D01*
X630945Y59947D01*
X628191Y58806D01*
X625209Y58806D01*
G37*
%LPD*%
%LPC*%
G36*
X599809Y58806D02*
X599809Y58806D01*
X597055Y59947D01*
X594947Y62055D01*
X593806Y64809D01*
X593806Y67791D01*
X594947Y70545D01*
X597055Y72653D01*
X599809Y73794D01*
X602791Y73794D01*
X605545Y72653D01*
X607653Y70545D01*
X608794Y67791D01*
X608794Y64809D01*
X607653Y62055D01*
X605545Y59947D01*
X602791Y58806D01*
X599809Y58806D01*
G37*
%LPD*%
%LPC*%
G36*
X549009Y58806D02*
X549009Y58806D01*
X546255Y59947D01*
X544147Y62055D01*
X543006Y64809D01*
X543006Y67791D01*
X544147Y70545D01*
X546255Y72653D01*
X549009Y73794D01*
X551991Y73794D01*
X554745Y72653D01*
X556853Y70545D01*
X557994Y67791D01*
X557994Y64809D01*
X556853Y62055D01*
X554745Y59947D01*
X551991Y58806D01*
X549009Y58806D01*
G37*
%LPD*%
%LPC*%
G36*
X523609Y58806D02*
X523609Y58806D01*
X520855Y59947D01*
X518747Y62055D01*
X517606Y64809D01*
X517606Y67791D01*
X518747Y70545D01*
X520855Y72653D01*
X523609Y73794D01*
X526591Y73794D01*
X529345Y72653D01*
X531453Y70545D01*
X532594Y67791D01*
X532594Y64809D01*
X531453Y62055D01*
X529345Y59947D01*
X526591Y58806D01*
X523609Y58806D01*
G37*
%LPD*%
%LPC*%
G36*
X498209Y58806D02*
X498209Y58806D01*
X495455Y59947D01*
X493347Y62055D01*
X492206Y64809D01*
X492206Y67791D01*
X493347Y70545D01*
X495455Y72653D01*
X498209Y73794D01*
X501191Y73794D01*
X503945Y72653D01*
X506053Y70545D01*
X507194Y67791D01*
X507194Y64809D01*
X506053Y62055D01*
X503945Y59947D01*
X501191Y58806D01*
X498209Y58806D01*
G37*
%LPD*%
%LPC*%
G36*
X447409Y58806D02*
X447409Y58806D01*
X444655Y59947D01*
X442547Y62055D01*
X441406Y64809D01*
X441406Y67791D01*
X442547Y70545D01*
X444655Y72653D01*
X447409Y73794D01*
X450391Y73794D01*
X453145Y72653D01*
X455253Y70545D01*
X456394Y67791D01*
X456394Y64809D01*
X455253Y62055D01*
X453145Y59947D01*
X450391Y58806D01*
X447409Y58806D01*
G37*
%LPD*%
%LPC*%
G36*
X422009Y58806D02*
X422009Y58806D01*
X419255Y59947D01*
X417147Y62055D01*
X416006Y64809D01*
X416006Y67791D01*
X417147Y70545D01*
X419255Y72653D01*
X422009Y73794D01*
X424991Y73794D01*
X427745Y72653D01*
X429853Y70545D01*
X430994Y67791D01*
X430994Y64809D01*
X429853Y62055D01*
X427745Y59947D01*
X424991Y58806D01*
X422009Y58806D01*
G37*
%LPD*%
%LPC*%
G36*
X371209Y58806D02*
X371209Y58806D01*
X368455Y59947D01*
X366347Y62055D01*
X365206Y64809D01*
X365206Y67791D01*
X366347Y70545D01*
X368455Y72653D01*
X371209Y73794D01*
X374191Y73794D01*
X376945Y72653D01*
X379053Y70545D01*
X380194Y67791D01*
X380194Y64809D01*
X379053Y62055D01*
X376945Y59947D01*
X374191Y58806D01*
X371209Y58806D01*
G37*
%LPD*%
%LPC*%
G36*
X345809Y58806D02*
X345809Y58806D01*
X343055Y59947D01*
X340947Y62055D01*
X339806Y64809D01*
X339806Y67791D01*
X340947Y70545D01*
X343055Y72653D01*
X345809Y73794D01*
X348791Y73794D01*
X351545Y72653D01*
X353653Y70545D01*
X354794Y67791D01*
X354794Y64809D01*
X353653Y62055D01*
X351545Y59947D01*
X348791Y58806D01*
X345809Y58806D01*
G37*
%LPD*%
%LPC*%
G36*
X320409Y58806D02*
X320409Y58806D01*
X317655Y59947D01*
X315547Y62055D01*
X314406Y64809D01*
X314406Y67791D01*
X315547Y70545D01*
X317655Y72653D01*
X320409Y73794D01*
X323391Y73794D01*
X326145Y72653D01*
X328253Y70545D01*
X329394Y67791D01*
X329394Y64809D01*
X328253Y62055D01*
X326145Y59947D01*
X323391Y58806D01*
X320409Y58806D01*
G37*
%LPD*%
%LPC*%
G36*
X522083Y222785D02*
X522083Y222785D01*
X519946Y223670D01*
X518310Y225306D01*
X517425Y227443D01*
X517425Y229757D01*
X518310Y231894D01*
X519946Y233530D01*
X522083Y234415D01*
X524397Y234415D01*
X526534Y233530D01*
X528170Y231894D01*
X529055Y229757D01*
X529055Y227443D01*
X528170Y225306D01*
X526534Y223670D01*
X524397Y222785D01*
X522083Y222785D01*
G37*
%LPD*%
%LPC*%
G36*
X537323Y227865D02*
X537323Y227865D01*
X535186Y228750D01*
X533550Y230386D01*
X532665Y232523D01*
X532665Y234837D01*
X533550Y236974D01*
X535186Y238610D01*
X537323Y239495D01*
X539637Y239495D01*
X541774Y238610D01*
X543410Y236974D01*
X544295Y234837D01*
X544295Y232523D01*
X543410Y230386D01*
X541774Y228750D01*
X539637Y227865D01*
X537323Y227865D01*
G37*
%LPD*%
%LPC*%
G36*
X316343Y191035D02*
X316343Y191035D01*
X314206Y191920D01*
X312570Y193556D01*
X311685Y195693D01*
X311685Y198007D01*
X312570Y200144D01*
X314206Y201780D01*
X316343Y202665D01*
X318657Y202665D01*
X320794Y201780D01*
X322430Y200144D01*
X323315Y198007D01*
X323315Y195693D01*
X322430Y193556D01*
X320794Y191920D01*
X318657Y191035D01*
X316343Y191035D01*
G37*
%LPD*%
%LPC*%
G36*
X132238Y146811D02*
X132238Y146811D01*
X130184Y147662D01*
X128612Y149234D01*
X127761Y151288D01*
X127761Y153512D01*
X128612Y155566D01*
X130184Y157138D01*
X132238Y157989D01*
X134462Y157989D01*
X136516Y157138D01*
X138088Y155566D01*
X138939Y153512D01*
X138939Y151288D01*
X138088Y149234D01*
X136516Y147662D01*
X134462Y146811D01*
X132238Y146811D01*
G37*
%LPD*%
%LPC*%
G36*
X151288Y172211D02*
X151288Y172211D01*
X149234Y173062D01*
X147662Y174634D01*
X146811Y176688D01*
X146811Y178912D01*
X147662Y180966D01*
X149234Y182538D01*
X151288Y183389D01*
X153512Y183389D01*
X155566Y182538D01*
X157138Y180966D01*
X157989Y178912D01*
X157989Y176688D01*
X157138Y174634D01*
X155566Y173062D01*
X153512Y172211D01*
X151288Y172211D01*
G37*
%LPD*%
%LPC*%
G36*
X110089Y325389D02*
X110089Y325389D01*
X110089Y334942D01*
X110440Y334887D01*
X112287Y334287D01*
X114018Y333405D01*
X115589Y332263D01*
X116963Y330889D01*
X118105Y329318D01*
X118987Y327587D01*
X119587Y325740D01*
X119642Y325389D01*
X110089Y325389D01*
G37*
%LPD*%
%LPC*%
G36*
X110089Y200389D02*
X110089Y200389D01*
X110089Y209942D01*
X110440Y209887D01*
X112287Y209287D01*
X114018Y208405D01*
X115589Y207263D01*
X116963Y205889D01*
X118105Y204318D01*
X118987Y202587D01*
X119587Y200740D01*
X119642Y200389D01*
X110089Y200389D01*
G37*
%LPD*%
%LPC*%
G36*
X95458Y325389D02*
X95458Y325389D01*
X95513Y325740D01*
X96113Y327587D01*
X96995Y329318D01*
X98137Y330889D01*
X99511Y332263D01*
X101082Y333405D01*
X102813Y334287D01*
X104660Y334887D01*
X105011Y334942D01*
X105011Y325389D01*
X95458Y325389D01*
G37*
%LPD*%
%LPC*%
G36*
X95458Y200389D02*
X95458Y200389D01*
X95513Y200740D01*
X96113Y202587D01*
X96995Y204318D01*
X98137Y205889D01*
X99511Y207263D01*
X101082Y208405D01*
X102813Y209287D01*
X104660Y209887D01*
X105011Y209942D01*
X105011Y200389D01*
X95458Y200389D01*
G37*
%LPD*%
%LPC*%
G36*
X110089Y320311D02*
X110089Y320311D01*
X119642Y320311D01*
X119587Y319960D01*
X118987Y318113D01*
X118105Y316382D01*
X116963Y314811D01*
X115589Y313437D01*
X114018Y312295D01*
X112287Y311413D01*
X110440Y310813D01*
X110089Y310758D01*
X110089Y320311D01*
G37*
%LPD*%
%LPC*%
G36*
X110089Y195311D02*
X110089Y195311D01*
X119642Y195311D01*
X119587Y194960D01*
X118987Y193113D01*
X118105Y191382D01*
X116963Y189811D01*
X115589Y188437D01*
X114018Y187295D01*
X112287Y186413D01*
X110440Y185813D01*
X110089Y185758D01*
X110089Y195311D01*
G37*
%LPD*%
%LPC*%
G36*
X104660Y310813D02*
X104660Y310813D01*
X102813Y311413D01*
X101082Y312295D01*
X99511Y313437D01*
X98137Y314811D01*
X96995Y316382D01*
X96113Y318113D01*
X95513Y319960D01*
X95458Y320311D01*
X105011Y320311D01*
X105011Y310758D01*
X104660Y310813D01*
G37*
%LPD*%
%LPC*%
G36*
X104660Y185813D02*
X104660Y185813D01*
X102813Y186413D01*
X101082Y187295D01*
X99511Y188437D01*
X98137Y189811D01*
X96995Y191382D01*
X96113Y193113D01*
X95513Y194960D01*
X95458Y195311D01*
X105011Y195311D01*
X105011Y185758D01*
X104660Y185813D01*
G37*
%LPD*%
%LPC*%
G36*
X180339Y294639D02*
X180339Y294639D01*
X180339Y301424D01*
X181505Y301046D01*
X182859Y300356D01*
X184088Y299463D01*
X185163Y298388D01*
X186056Y297159D01*
X186746Y295805D01*
X187124Y294639D01*
X180339Y294639D01*
G37*
%LPD*%
%LPC*%
G36*
X180339Y289561D02*
X180339Y289561D01*
X187124Y289561D01*
X186746Y288395D01*
X186056Y287041D01*
X185163Y285812D01*
X184088Y284737D01*
X182859Y283844D01*
X181505Y283154D01*
X180339Y282776D01*
X180339Y289561D01*
G37*
%LPD*%
%LPC*%
G36*
X168476Y294639D02*
X168476Y294639D01*
X168854Y295805D01*
X169544Y297159D01*
X170437Y298388D01*
X171512Y299463D01*
X172741Y300356D01*
X174095Y301046D01*
X175261Y301424D01*
X175261Y294639D01*
X168476Y294639D01*
G37*
%LPD*%
%LPC*%
G36*
X174095Y283154D02*
X174095Y283154D01*
X172741Y283844D01*
X171512Y284737D01*
X170437Y285812D01*
X169544Y287041D01*
X168854Y288395D01*
X168476Y289561D01*
X175261Y289561D01*
X175261Y282776D01*
X174095Y283154D01*
G37*
%LPD*%
%LPC*%
G36*
X587099Y215249D02*
X587099Y215249D01*
X587099Y221649D01*
X587420Y221586D01*
X589054Y220909D01*
X590525Y219926D01*
X591776Y218675D01*
X592759Y217204D01*
X593436Y215570D01*
X593499Y215249D01*
X587099Y215249D01*
G37*
%LPD*%
%LPC*%
G36*
X587099Y210651D02*
X587099Y210651D01*
X593499Y210651D01*
X593436Y210330D01*
X592759Y208696D01*
X591776Y207225D01*
X590525Y205974D01*
X589054Y204991D01*
X587420Y204314D01*
X587099Y204251D01*
X587099Y210651D01*
G37*
%LPD*%
%LPC*%
G36*
X576101Y215249D02*
X576101Y215249D01*
X576164Y215570D01*
X576841Y217204D01*
X577824Y218675D01*
X579075Y219926D01*
X580546Y220909D01*
X582180Y221586D01*
X582501Y221649D01*
X582501Y215249D01*
X576101Y215249D01*
G37*
%LPD*%
%LPC*%
G36*
X582180Y204314D02*
X582180Y204314D01*
X580546Y204991D01*
X579075Y205974D01*
X577824Y207225D01*
X576841Y208696D01*
X576164Y210330D01*
X576101Y210651D01*
X582501Y210651D01*
X582501Y204251D01*
X582180Y204314D01*
G37*
%LPD*%
%LPC*%
G36*
X476522Y297122D02*
X476522Y297122D01*
X476522Y303393D01*
X476856Y303327D01*
X478451Y302666D01*
X479887Y301707D01*
X481107Y300487D01*
X482066Y299051D01*
X482727Y297456D01*
X482793Y297122D01*
X476522Y297122D01*
G37*
%LPD*%
%LPC*%
G36*
X400322Y68522D02*
X400322Y68522D01*
X400322Y74793D01*
X400656Y74727D01*
X402251Y74066D01*
X403687Y73107D01*
X404907Y71887D01*
X405866Y70451D01*
X406527Y68856D01*
X406593Y68522D01*
X400322Y68522D01*
G37*
%LPD*%
%LPC*%
G36*
X101622Y135472D02*
X101622Y135472D01*
X101622Y141743D01*
X101956Y141677D01*
X103551Y141016D01*
X104987Y140057D01*
X106207Y138837D01*
X107166Y137401D01*
X107827Y135806D01*
X107893Y135472D01*
X101622Y135472D01*
G37*
%LPD*%
%LPC*%
G36*
X476522Y68522D02*
X476522Y68522D01*
X476522Y74793D01*
X476856Y74727D01*
X478451Y74066D01*
X479887Y73107D01*
X481107Y71887D01*
X482066Y70451D01*
X482727Y68856D01*
X482793Y68522D01*
X476522Y68522D01*
G37*
%LPD*%
%LPC*%
G36*
X400322Y297122D02*
X400322Y297122D01*
X400322Y303393D01*
X400656Y303327D01*
X402251Y302666D01*
X403687Y301707D01*
X404907Y300487D01*
X405866Y299051D01*
X406527Y297456D01*
X406593Y297122D01*
X400322Y297122D01*
G37*
%LPD*%
%LPC*%
G36*
X53922Y162922D02*
X53922Y162922D01*
X53922Y169193D01*
X54256Y169127D01*
X55851Y168466D01*
X57287Y167507D01*
X58507Y166287D01*
X59466Y164851D01*
X60127Y163256D01*
X60193Y162922D01*
X53922Y162922D01*
G37*
%LPD*%
%LPC*%
G36*
X476522Y322522D02*
X476522Y322522D01*
X476522Y328793D01*
X476856Y328727D01*
X478451Y328066D01*
X479887Y327107D01*
X481107Y325887D01*
X482066Y324451D01*
X482727Y322856D01*
X482793Y322522D01*
X476522Y322522D01*
G37*
%LPD*%
%LPC*%
G36*
X501922Y322522D02*
X501922Y322522D01*
X501922Y328793D01*
X502256Y328727D01*
X503851Y328066D01*
X505287Y327107D01*
X506507Y325887D01*
X507466Y324451D01*
X508127Y322856D01*
X508193Y322522D01*
X501922Y322522D01*
G37*
%LPD*%
%LPC*%
G36*
X476522Y318078D02*
X476522Y318078D01*
X482793Y318078D01*
X482727Y317744D01*
X482066Y316149D01*
X481107Y314713D01*
X479887Y313493D01*
X478451Y312534D01*
X476856Y311873D01*
X476522Y311807D01*
X476522Y318078D01*
G37*
%LPD*%
%LPC*%
G36*
X501922Y318078D02*
X501922Y318078D01*
X508193Y318078D01*
X508127Y317744D01*
X507466Y316149D01*
X506507Y314713D01*
X505287Y313493D01*
X503851Y312534D01*
X502256Y311873D01*
X501922Y311807D01*
X501922Y318078D01*
G37*
%LPD*%
%LPC*%
G36*
X389607Y297122D02*
X389607Y297122D01*
X389673Y297456D01*
X390334Y299051D01*
X391293Y300487D01*
X392513Y301707D01*
X393949Y302666D01*
X395544Y303327D01*
X395878Y303393D01*
X395878Y297122D01*
X389607Y297122D01*
G37*
%LPD*%
%LPC*%
G36*
X465807Y297122D02*
X465807Y297122D01*
X465873Y297456D01*
X466534Y299051D01*
X467493Y300487D01*
X468713Y301707D01*
X470149Y302666D01*
X471744Y303327D01*
X472078Y303393D01*
X472078Y297122D01*
X465807Y297122D01*
G37*
%LPD*%
%LPC*%
G36*
X101622Y131028D02*
X101622Y131028D01*
X107893Y131028D01*
X107827Y130694D01*
X107166Y129099D01*
X106207Y127663D01*
X104987Y126443D01*
X103551Y125484D01*
X101956Y124823D01*
X101622Y124757D01*
X101622Y131028D01*
G37*
%LPD*%
%LPC*%
G36*
X476522Y64078D02*
X476522Y64078D01*
X482793Y64078D01*
X482727Y63744D01*
X482066Y62149D01*
X481107Y60713D01*
X479887Y59493D01*
X478451Y58534D01*
X476856Y57873D01*
X476522Y57807D01*
X476522Y64078D01*
G37*
%LPD*%
%LPC*%
G36*
X400322Y64078D02*
X400322Y64078D01*
X406593Y64078D01*
X406527Y63744D01*
X405866Y62149D01*
X404907Y60713D01*
X403687Y59493D01*
X402251Y58534D01*
X400656Y57873D01*
X400322Y57807D01*
X400322Y64078D01*
G37*
%LPD*%
%LPC*%
G36*
X53922Y158478D02*
X53922Y158478D01*
X60193Y158478D01*
X60127Y158144D01*
X59466Y156549D01*
X58507Y155113D01*
X57287Y153893D01*
X55851Y152934D01*
X54256Y152273D01*
X53922Y152207D01*
X53922Y158478D01*
G37*
%LPD*%
%LPC*%
G36*
X400322Y292678D02*
X400322Y292678D01*
X406593Y292678D01*
X406527Y292344D01*
X405866Y290749D01*
X404907Y289313D01*
X403687Y288093D01*
X402251Y287134D01*
X400656Y286473D01*
X400322Y286407D01*
X400322Y292678D01*
G37*
%LPD*%
%LPC*%
G36*
X465807Y68522D02*
X465807Y68522D01*
X465873Y68856D01*
X466534Y70451D01*
X467493Y71887D01*
X468713Y73107D01*
X470149Y74066D01*
X471744Y74727D01*
X472078Y74793D01*
X472078Y68522D01*
X465807Y68522D01*
G37*
%LPD*%
%LPC*%
G36*
X389607Y68522D02*
X389607Y68522D01*
X389673Y68856D01*
X390334Y70451D01*
X391293Y71887D01*
X392513Y73107D01*
X393949Y74066D01*
X395544Y74727D01*
X395878Y74793D01*
X395878Y68522D01*
X389607Y68522D01*
G37*
%LPD*%
%LPC*%
G36*
X43207Y162922D02*
X43207Y162922D01*
X43273Y163256D01*
X43934Y164851D01*
X44893Y166287D01*
X46113Y167507D01*
X47549Y168466D01*
X49144Y169127D01*
X49478Y169193D01*
X49478Y162922D01*
X43207Y162922D01*
G37*
%LPD*%
%LPC*%
G36*
X90907Y135472D02*
X90907Y135472D01*
X90973Y135806D01*
X91634Y137401D01*
X92593Y138837D01*
X93813Y140057D01*
X95249Y141016D01*
X96844Y141677D01*
X97178Y141743D01*
X97178Y135472D01*
X90907Y135472D01*
G37*
%LPD*%
%LPC*%
G36*
X476522Y292678D02*
X476522Y292678D01*
X482793Y292678D01*
X482727Y292344D01*
X482066Y290749D01*
X481107Y289313D01*
X479887Y288093D01*
X478451Y287134D01*
X476856Y286473D01*
X476522Y286407D01*
X476522Y292678D01*
G37*
%LPD*%
%LPC*%
G36*
X491207Y322522D02*
X491207Y322522D01*
X491273Y322856D01*
X491934Y324451D01*
X492893Y325887D01*
X494113Y327107D01*
X495549Y328066D01*
X497144Y328727D01*
X497478Y328793D01*
X497478Y322522D01*
X491207Y322522D01*
G37*
%LPD*%
%LPC*%
G36*
X465807Y322522D02*
X465807Y322522D01*
X465873Y322856D01*
X466534Y324451D01*
X467493Y325887D01*
X468713Y327107D01*
X470149Y328066D01*
X471744Y328727D01*
X472078Y328793D01*
X472078Y322522D01*
X465807Y322522D01*
G37*
%LPD*%
%LPC*%
G36*
X471744Y286473D02*
X471744Y286473D01*
X470149Y287134D01*
X468713Y288093D01*
X467493Y289313D01*
X466534Y290749D01*
X465873Y292344D01*
X465807Y292678D01*
X472078Y292678D01*
X472078Y286407D01*
X471744Y286473D01*
G37*
%LPD*%
%LPC*%
G36*
X395544Y57873D02*
X395544Y57873D01*
X393949Y58534D01*
X392513Y59493D01*
X391293Y60713D01*
X390334Y62149D01*
X389673Y63744D01*
X389607Y64078D01*
X395878Y64078D01*
X395878Y57807D01*
X395544Y57873D01*
G37*
%LPD*%
%LPC*%
G36*
X497144Y311873D02*
X497144Y311873D01*
X495549Y312534D01*
X494113Y313493D01*
X492893Y314713D01*
X491934Y316149D01*
X491273Y317744D01*
X491207Y318078D01*
X497478Y318078D01*
X497478Y311807D01*
X497144Y311873D01*
G37*
%LPD*%
%LPC*%
G36*
X471744Y311873D02*
X471744Y311873D01*
X470149Y312534D01*
X468713Y313493D01*
X467493Y314713D01*
X466534Y316149D01*
X465873Y317744D01*
X465807Y318078D01*
X472078Y318078D01*
X472078Y311807D01*
X471744Y311873D01*
G37*
%LPD*%
%LPC*%
G36*
X49144Y152273D02*
X49144Y152273D01*
X47549Y152934D01*
X46113Y153893D01*
X44893Y155113D01*
X43934Y156549D01*
X43273Y158144D01*
X43207Y158478D01*
X49478Y158478D01*
X49478Y152207D01*
X49144Y152273D01*
G37*
%LPD*%
%LPC*%
G36*
X471744Y57873D02*
X471744Y57873D01*
X470149Y58534D01*
X468713Y59493D01*
X467493Y60713D01*
X466534Y62149D01*
X465873Y63744D01*
X465807Y64078D01*
X472078Y64078D01*
X472078Y57807D01*
X471744Y57873D01*
G37*
%LPD*%
%LPC*%
G36*
X96844Y124823D02*
X96844Y124823D01*
X95249Y125484D01*
X93813Y126443D01*
X92593Y127663D01*
X91634Y129099D01*
X90973Y130694D01*
X90907Y131028D01*
X97178Y131028D01*
X97178Y124757D01*
X96844Y124823D01*
G37*
%LPD*%
%LPC*%
G36*
X395544Y286473D02*
X395544Y286473D01*
X393949Y287134D01*
X392513Y288093D01*
X391293Y289313D01*
X390334Y290749D01*
X389673Y292344D01*
X389607Y292678D01*
X395878Y292678D01*
X395878Y286407D01*
X395544Y286473D01*
G37*
%LPD*%
%LPC*%
G36*
X107549Y197849D02*
X107549Y197849D01*
X107549Y197851D01*
X107551Y197851D01*
X107551Y197849D01*
X107549Y197849D01*
G37*
%LPD*%
%LPC*%
G36*
X107549Y322849D02*
X107549Y322849D01*
X107549Y322851D01*
X107551Y322851D01*
X107551Y322849D01*
X107549Y322849D01*
G37*
%LPD*%
%LPC*%
G36*
X177799Y292099D02*
X177799Y292099D01*
X177799Y292101D01*
X177801Y292101D01*
X177801Y292099D01*
X177799Y292099D01*
G37*
%LPD*%
D10*
X57550Y322850D03*
X107550Y322850D03*
X107550Y197850D03*
X57550Y197850D03*
D11*
X652100Y320300D03*
X652100Y294900D03*
X626700Y320300D03*
X626700Y294900D03*
X601300Y320300D03*
X601300Y294900D03*
X575900Y320300D03*
X575900Y294900D03*
X550500Y320300D03*
X550500Y294900D03*
X525100Y320300D03*
X525100Y294900D03*
X499700Y320300D03*
X499700Y294900D03*
X474300Y320300D03*
X474300Y294900D03*
X448900Y320300D03*
X448900Y294900D03*
X423500Y320300D03*
X423500Y294900D03*
X398100Y320300D03*
X398100Y294900D03*
X372700Y320300D03*
X372700Y294900D03*
X347300Y320300D03*
X347300Y294900D03*
X321900Y320300D03*
X321900Y294900D03*
X296500Y320300D03*
X296500Y294900D03*
X271100Y320300D03*
X271100Y294900D03*
X245700Y320300D03*
X245700Y294900D03*
X220300Y320300D03*
X220300Y294900D03*
X652100Y66300D03*
X652100Y40900D03*
X626700Y66300D03*
X626700Y40900D03*
X601300Y66300D03*
X601300Y40900D03*
X575900Y66300D03*
X575900Y40900D03*
X550500Y66300D03*
X550500Y40900D03*
X525100Y66300D03*
X525100Y40900D03*
X499700Y66300D03*
X499700Y40900D03*
X474300Y66300D03*
X474300Y40900D03*
X448900Y66300D03*
X448900Y40900D03*
X423500Y66300D03*
X423500Y40900D03*
X398100Y66300D03*
X398100Y40900D03*
X372700Y66300D03*
X372700Y40900D03*
X347300Y66300D03*
X347300Y40900D03*
X321900Y66300D03*
X321900Y40900D03*
X296500Y66300D03*
X296500Y40900D03*
X271100Y66300D03*
X271100Y40900D03*
X245700Y66300D03*
X245700Y40900D03*
X220300Y66300D03*
X220300Y40900D03*
X99400Y107850D03*
X99400Y82450D03*
X99400Y133250D03*
D12*
X177800Y63500D03*
X177800Y88900D03*
X177800Y114300D03*
X177800Y139700D03*
X177800Y165100D03*
X177800Y190500D03*
X177800Y215900D03*
X177800Y241300D03*
X177800Y266700D03*
X177800Y292100D03*
D13*
X611900Y112250D03*
D14*
X584800Y142950D03*
D13*
X611900Y243650D03*
D14*
X584800Y167950D03*
X584800Y187950D03*
X584800Y212950D03*
D11*
X51700Y135300D03*
X51700Y160700D03*
X51700Y109900D03*
X51700Y84500D03*
X51700Y59100D03*
D15*
X234950Y215900D03*
D16*
X349250Y177800D03*
D15*
X133350Y152400D03*
X323850Y146050D03*
D16*
X317500Y196850D03*
D15*
X330200Y139700D03*
D16*
X523240Y228600D03*
X538480Y233680D03*
D15*
X152400Y177800D03*
M02*
