G04 EAGLE Gerber RS-274X export*
G75*
%MOMM*%
%FSLAX34Y34*%
%LPD*%
%INSilkscreen Top*%
%IPPOS*%
%AMOC8*
5,1,8,0,0,1.08239X$1,22.5*%
G01*
%ADD10C,0.152400*%
%ADD11C,0.127000*%
%ADD12C,0.254000*%
%ADD13C,0.203200*%
%ADD14R,0.508000X0.508000*%
%ADD15C,0.200000*%


D10*
X197612Y121412D02*
X197612Y132588D01*
X201337Y126379D01*
X205063Y132588D01*
X205063Y121412D01*
X211046Y123275D02*
X211046Y128863D01*
X211045Y123275D02*
X211047Y123191D01*
X211052Y123108D01*
X211062Y123025D01*
X211075Y122942D01*
X211092Y122860D01*
X211112Y122779D01*
X211136Y122699D01*
X211164Y122620D01*
X211195Y122543D01*
X211229Y122467D01*
X211267Y122392D01*
X211309Y122319D01*
X211353Y122249D01*
X211401Y122180D01*
X211451Y122113D01*
X211505Y122049D01*
X211561Y121988D01*
X211621Y121928D01*
X211682Y121872D01*
X211746Y121818D01*
X211813Y121768D01*
X211882Y121720D01*
X211952Y121676D01*
X212025Y121634D01*
X212100Y121596D01*
X212176Y121562D01*
X212253Y121531D01*
X212332Y121503D01*
X212412Y121479D01*
X212493Y121459D01*
X212575Y121442D01*
X212658Y121429D01*
X212741Y121419D01*
X212824Y121414D01*
X212908Y121412D01*
X216013Y121412D01*
X216013Y128863D01*
X222264Y125758D02*
X225369Y124516D01*
X222264Y125758D02*
X222192Y125789D01*
X222122Y125823D01*
X222053Y125861D01*
X221986Y125902D01*
X221921Y125946D01*
X221859Y125994D01*
X221799Y126044D01*
X221741Y126097D01*
X221686Y126153D01*
X221634Y126212D01*
X221585Y126273D01*
X221539Y126336D01*
X221496Y126401D01*
X221456Y126469D01*
X221419Y126538D01*
X221386Y126609D01*
X221357Y126682D01*
X221331Y126756D01*
X221308Y126831D01*
X221290Y126907D01*
X221275Y126984D01*
X221263Y127062D01*
X221256Y127140D01*
X221252Y127218D01*
X221253Y127296D01*
X221257Y127375D01*
X221264Y127453D01*
X221276Y127530D01*
X221291Y127607D01*
X221311Y127683D01*
X221333Y127758D01*
X221360Y127832D01*
X221390Y127904D01*
X221423Y127975D01*
X221460Y128044D01*
X221500Y128112D01*
X221544Y128177D01*
X221590Y128240D01*
X221640Y128301D01*
X221692Y128359D01*
X221747Y128415D01*
X221805Y128468D01*
X221866Y128518D01*
X221928Y128565D01*
X221993Y128608D01*
X222060Y128649D01*
X222129Y128687D01*
X222200Y128720D01*
X222272Y128751D01*
X222346Y128778D01*
X222420Y128801D01*
X222496Y128821D01*
X222573Y128837D01*
X222650Y128849D01*
X222728Y128857D01*
X222807Y128862D01*
X222885Y128863D01*
X222885Y128862D02*
X223054Y128858D01*
X223224Y128849D01*
X223393Y128837D01*
X223561Y128820D01*
X223730Y128799D01*
X223897Y128775D01*
X224064Y128746D01*
X224231Y128713D01*
X224396Y128676D01*
X224561Y128635D01*
X224724Y128591D01*
X224887Y128542D01*
X225048Y128490D01*
X225208Y128433D01*
X225366Y128373D01*
X225523Y128309D01*
X225679Y128241D01*
X225369Y124517D02*
X225441Y124486D01*
X225511Y124452D01*
X225580Y124414D01*
X225647Y124373D01*
X225712Y124329D01*
X225774Y124281D01*
X225834Y124231D01*
X225892Y124178D01*
X225947Y124122D01*
X225999Y124063D01*
X226048Y124002D01*
X226094Y123939D01*
X226137Y123874D01*
X226177Y123806D01*
X226214Y123737D01*
X226247Y123666D01*
X226276Y123593D01*
X226302Y123519D01*
X226325Y123444D01*
X226343Y123368D01*
X226358Y123291D01*
X226370Y123213D01*
X226377Y123135D01*
X226381Y123057D01*
X226380Y122979D01*
X226376Y122900D01*
X226369Y122822D01*
X226357Y122745D01*
X226342Y122668D01*
X226322Y122592D01*
X226300Y122517D01*
X226273Y122443D01*
X226243Y122371D01*
X226210Y122300D01*
X226173Y122231D01*
X226133Y122163D01*
X226089Y122098D01*
X226043Y122035D01*
X225993Y121974D01*
X225941Y121916D01*
X225886Y121860D01*
X225828Y121807D01*
X225767Y121757D01*
X225705Y121710D01*
X225640Y121667D01*
X225573Y121626D01*
X225504Y121588D01*
X225433Y121555D01*
X225361Y121524D01*
X225287Y121497D01*
X225213Y121474D01*
X225137Y121454D01*
X225060Y121438D01*
X224983Y121426D01*
X224905Y121418D01*
X224826Y121413D01*
X224748Y121412D01*
X224747Y121412D02*
X224498Y121419D01*
X224250Y121431D01*
X224001Y121449D01*
X223753Y121473D01*
X223506Y121503D01*
X223260Y121539D01*
X223014Y121581D01*
X222770Y121628D01*
X222526Y121682D01*
X222284Y121740D01*
X222044Y121805D01*
X221805Y121875D01*
X221568Y121951D01*
X221333Y122033D01*
X231055Y121412D02*
X231055Y128863D01*
X230745Y131967D02*
X230745Y132588D01*
X231366Y132588D01*
X231366Y131967D01*
X230745Y131967D01*
X237690Y121412D02*
X240174Y121412D01*
X237690Y121412D02*
X237606Y121414D01*
X237523Y121419D01*
X237440Y121429D01*
X237357Y121442D01*
X237275Y121459D01*
X237194Y121479D01*
X237114Y121503D01*
X237035Y121531D01*
X236958Y121562D01*
X236882Y121596D01*
X236807Y121634D01*
X236734Y121676D01*
X236664Y121720D01*
X236595Y121768D01*
X236528Y121818D01*
X236464Y121872D01*
X236403Y121928D01*
X236343Y121988D01*
X236287Y122049D01*
X236233Y122113D01*
X236183Y122180D01*
X236135Y122249D01*
X236091Y122319D01*
X236049Y122392D01*
X236011Y122467D01*
X235977Y122543D01*
X235946Y122620D01*
X235918Y122699D01*
X235894Y122779D01*
X235874Y122860D01*
X235857Y122942D01*
X235844Y123025D01*
X235834Y123108D01*
X235829Y123191D01*
X235827Y123275D01*
X235827Y127000D01*
X235829Y127084D01*
X235835Y127167D01*
X235844Y127250D01*
X235857Y127333D01*
X235874Y127415D01*
X235894Y127496D01*
X235918Y127576D01*
X235946Y127655D01*
X235977Y127732D01*
X236011Y127808D01*
X236049Y127883D01*
X236091Y127956D01*
X236135Y128026D01*
X236183Y128095D01*
X236233Y128162D01*
X236287Y128226D01*
X236343Y128287D01*
X236403Y128347D01*
X236464Y128403D01*
X236528Y128457D01*
X236595Y128507D01*
X236664Y128555D01*
X236734Y128599D01*
X236807Y128641D01*
X236882Y128679D01*
X236958Y128713D01*
X237035Y128744D01*
X237114Y128772D01*
X237194Y128796D01*
X237275Y128816D01*
X237357Y128833D01*
X237440Y128846D01*
X237523Y128856D01*
X237606Y128861D01*
X237690Y128863D01*
X240174Y128863D01*
X251403Y127621D02*
X254508Y127621D01*
X254508Y127620D02*
X254619Y127618D01*
X254729Y127612D01*
X254840Y127602D01*
X254950Y127588D01*
X255059Y127571D01*
X255168Y127549D01*
X255276Y127524D01*
X255382Y127494D01*
X255488Y127461D01*
X255593Y127424D01*
X255696Y127384D01*
X255797Y127339D01*
X255897Y127292D01*
X255996Y127240D01*
X256092Y127185D01*
X256186Y127127D01*
X256278Y127066D01*
X256368Y127001D01*
X256456Y126933D01*
X256541Y126862D01*
X256623Y126788D01*
X256703Y126711D01*
X256780Y126631D01*
X256854Y126549D01*
X256925Y126464D01*
X256993Y126376D01*
X257058Y126286D01*
X257119Y126194D01*
X257177Y126100D01*
X257232Y126004D01*
X257284Y125905D01*
X257331Y125805D01*
X257376Y125704D01*
X257416Y125601D01*
X257453Y125496D01*
X257486Y125390D01*
X257516Y125284D01*
X257541Y125176D01*
X257563Y125067D01*
X257580Y124958D01*
X257594Y124848D01*
X257604Y124737D01*
X257610Y124627D01*
X257612Y124516D01*
X257610Y124405D01*
X257604Y124295D01*
X257594Y124184D01*
X257580Y124074D01*
X257563Y123965D01*
X257541Y123856D01*
X257516Y123748D01*
X257486Y123642D01*
X257453Y123536D01*
X257416Y123431D01*
X257376Y123328D01*
X257331Y123227D01*
X257284Y123127D01*
X257232Y123028D01*
X257177Y122932D01*
X257119Y122838D01*
X257058Y122746D01*
X256993Y122656D01*
X256925Y122568D01*
X256854Y122483D01*
X256780Y122401D01*
X256703Y122321D01*
X256623Y122244D01*
X256541Y122170D01*
X256456Y122099D01*
X256368Y122031D01*
X256278Y121966D01*
X256186Y121905D01*
X256092Y121847D01*
X255996Y121792D01*
X255897Y121740D01*
X255797Y121693D01*
X255696Y121648D01*
X255593Y121608D01*
X255488Y121571D01*
X255382Y121538D01*
X255276Y121508D01*
X255168Y121483D01*
X255059Y121461D01*
X254950Y121444D01*
X254840Y121430D01*
X254729Y121420D01*
X254619Y121414D01*
X254508Y121412D01*
X251403Y121412D01*
X251403Y132588D01*
X254508Y132588D01*
X254607Y132586D01*
X254705Y132580D01*
X254804Y132570D01*
X254901Y132557D01*
X254999Y132539D01*
X255095Y132518D01*
X255191Y132492D01*
X255285Y132463D01*
X255378Y132431D01*
X255470Y132394D01*
X255560Y132354D01*
X255649Y132310D01*
X255736Y132263D01*
X255821Y132213D01*
X255903Y132159D01*
X255984Y132102D01*
X256062Y132042D01*
X256138Y131978D01*
X256211Y131912D01*
X256282Y131843D01*
X256350Y131771D01*
X256414Y131696D01*
X256476Y131619D01*
X256535Y131540D01*
X256590Y131458D01*
X256643Y131374D01*
X256691Y131289D01*
X256737Y131201D01*
X256779Y131111D01*
X256817Y131020D01*
X256851Y130928D01*
X256882Y130834D01*
X256909Y130739D01*
X256933Y130643D01*
X256952Y130546D01*
X256968Y130449D01*
X256980Y130351D01*
X256988Y130252D01*
X256992Y130153D01*
X256992Y130055D01*
X256988Y129956D01*
X256980Y129857D01*
X256968Y129759D01*
X256952Y129662D01*
X256933Y129565D01*
X256909Y129469D01*
X256882Y129374D01*
X256851Y129280D01*
X256817Y129188D01*
X256779Y129097D01*
X256737Y129007D01*
X256691Y128919D01*
X256643Y128834D01*
X256590Y128750D01*
X256535Y128668D01*
X256476Y128589D01*
X256414Y128512D01*
X256350Y128437D01*
X256282Y128365D01*
X256211Y128296D01*
X256138Y128230D01*
X256062Y128166D01*
X255984Y128106D01*
X255903Y128049D01*
X255821Y127995D01*
X255736Y127945D01*
X255649Y127898D01*
X255560Y127854D01*
X255470Y127814D01*
X255378Y127777D01*
X255285Y127745D01*
X255191Y127716D01*
X255095Y127690D01*
X254999Y127669D01*
X254901Y127651D01*
X254804Y127638D01*
X254705Y127628D01*
X254607Y127622D01*
X254508Y127620D01*
X262564Y128863D02*
X262564Y121412D01*
X262564Y128863D02*
X266289Y128863D01*
X266289Y127621D01*
X272200Y125758D02*
X274994Y125758D01*
X272200Y125758D02*
X272108Y125756D01*
X272016Y125750D01*
X271924Y125740D01*
X271833Y125727D01*
X271742Y125709D01*
X271652Y125688D01*
X271564Y125663D01*
X271476Y125634D01*
X271390Y125601D01*
X271305Y125565D01*
X271222Y125525D01*
X271140Y125482D01*
X271061Y125435D01*
X270983Y125385D01*
X270908Y125332D01*
X270835Y125276D01*
X270764Y125216D01*
X270696Y125154D01*
X270631Y125089D01*
X270569Y125021D01*
X270509Y124950D01*
X270453Y124877D01*
X270400Y124802D01*
X270350Y124724D01*
X270303Y124645D01*
X270260Y124563D01*
X270220Y124480D01*
X270184Y124395D01*
X270151Y124309D01*
X270122Y124221D01*
X270097Y124133D01*
X270076Y124043D01*
X270058Y123952D01*
X270045Y123861D01*
X270035Y123769D01*
X270029Y123677D01*
X270027Y123585D01*
X270029Y123493D01*
X270035Y123401D01*
X270045Y123309D01*
X270058Y123218D01*
X270076Y123127D01*
X270097Y123037D01*
X270122Y122949D01*
X270151Y122861D01*
X270184Y122775D01*
X270220Y122690D01*
X270260Y122607D01*
X270303Y122525D01*
X270350Y122446D01*
X270400Y122368D01*
X270453Y122293D01*
X270509Y122220D01*
X270569Y122149D01*
X270631Y122081D01*
X270696Y122016D01*
X270764Y121954D01*
X270835Y121894D01*
X270908Y121838D01*
X270983Y121785D01*
X271061Y121735D01*
X271140Y121688D01*
X271222Y121645D01*
X271305Y121605D01*
X271390Y121569D01*
X271476Y121536D01*
X271564Y121507D01*
X271652Y121482D01*
X271742Y121461D01*
X271833Y121443D01*
X271924Y121430D01*
X272016Y121420D01*
X272108Y121414D01*
X272200Y121412D01*
X274994Y121412D01*
X274994Y127000D01*
X274992Y127084D01*
X274987Y127167D01*
X274977Y127250D01*
X274964Y127333D01*
X274947Y127415D01*
X274927Y127496D01*
X274903Y127576D01*
X274875Y127655D01*
X274844Y127732D01*
X274810Y127808D01*
X274772Y127883D01*
X274730Y127956D01*
X274686Y128026D01*
X274638Y128095D01*
X274588Y128162D01*
X274534Y128226D01*
X274478Y128287D01*
X274418Y128347D01*
X274357Y128403D01*
X274293Y128457D01*
X274226Y128507D01*
X274157Y128555D01*
X274087Y128599D01*
X274014Y128641D01*
X273939Y128679D01*
X273863Y128713D01*
X273786Y128744D01*
X273707Y128772D01*
X273627Y128796D01*
X273546Y128816D01*
X273464Y128833D01*
X273381Y128846D01*
X273298Y128856D01*
X273215Y128861D01*
X273131Y128863D01*
X270648Y128863D01*
X282267Y121412D02*
X284750Y121412D01*
X282267Y121412D02*
X282183Y121414D01*
X282100Y121419D01*
X282017Y121429D01*
X281934Y121442D01*
X281852Y121459D01*
X281771Y121479D01*
X281691Y121503D01*
X281612Y121531D01*
X281535Y121562D01*
X281459Y121596D01*
X281384Y121634D01*
X281311Y121676D01*
X281241Y121720D01*
X281172Y121768D01*
X281105Y121818D01*
X281041Y121872D01*
X280980Y121928D01*
X280920Y121988D01*
X280864Y122049D01*
X280810Y122113D01*
X280760Y122180D01*
X280712Y122249D01*
X280668Y122319D01*
X280626Y122392D01*
X280588Y122467D01*
X280554Y122543D01*
X280523Y122620D01*
X280495Y122699D01*
X280471Y122779D01*
X280451Y122860D01*
X280434Y122942D01*
X280421Y123025D01*
X280411Y123108D01*
X280406Y123191D01*
X280404Y123275D01*
X280404Y127000D01*
X280406Y127084D01*
X280412Y127167D01*
X280421Y127250D01*
X280434Y127333D01*
X280451Y127415D01*
X280471Y127496D01*
X280495Y127576D01*
X280523Y127655D01*
X280554Y127732D01*
X280588Y127808D01*
X280626Y127883D01*
X280668Y127956D01*
X280712Y128026D01*
X280760Y128095D01*
X280810Y128162D01*
X280864Y128226D01*
X280920Y128287D01*
X280980Y128347D01*
X281041Y128403D01*
X281105Y128457D01*
X281172Y128507D01*
X281241Y128555D01*
X281311Y128599D01*
X281384Y128641D01*
X281459Y128679D01*
X281535Y128713D01*
X281612Y128744D01*
X281691Y128772D01*
X281771Y128796D01*
X281852Y128816D01*
X281934Y128833D01*
X282017Y128846D01*
X282100Y128856D01*
X282183Y128861D01*
X282267Y128863D01*
X284750Y128863D01*
X291013Y121412D02*
X294118Y121412D01*
X291013Y121412D02*
X290929Y121414D01*
X290846Y121419D01*
X290763Y121429D01*
X290680Y121442D01*
X290598Y121459D01*
X290517Y121479D01*
X290437Y121503D01*
X290358Y121531D01*
X290281Y121562D01*
X290205Y121596D01*
X290130Y121634D01*
X290057Y121676D01*
X289987Y121720D01*
X289918Y121768D01*
X289851Y121818D01*
X289787Y121872D01*
X289726Y121928D01*
X289666Y121988D01*
X289610Y122049D01*
X289556Y122113D01*
X289506Y122180D01*
X289458Y122249D01*
X289414Y122319D01*
X289372Y122392D01*
X289334Y122467D01*
X289300Y122543D01*
X289269Y122620D01*
X289241Y122699D01*
X289217Y122779D01*
X289197Y122860D01*
X289180Y122942D01*
X289167Y123025D01*
X289157Y123108D01*
X289152Y123191D01*
X289150Y123275D01*
X289151Y123275D02*
X289151Y126379D01*
X289150Y126379D02*
X289152Y126478D01*
X289158Y126576D01*
X289168Y126675D01*
X289181Y126772D01*
X289199Y126870D01*
X289220Y126966D01*
X289246Y127062D01*
X289275Y127156D01*
X289307Y127249D01*
X289344Y127341D01*
X289384Y127431D01*
X289428Y127520D01*
X289475Y127607D01*
X289525Y127692D01*
X289579Y127774D01*
X289636Y127855D01*
X289696Y127933D01*
X289760Y128009D01*
X289826Y128082D01*
X289895Y128153D01*
X289967Y128221D01*
X290042Y128285D01*
X290119Y128347D01*
X290198Y128406D01*
X290280Y128461D01*
X290364Y128514D01*
X290449Y128562D01*
X290537Y128608D01*
X290627Y128650D01*
X290718Y128688D01*
X290810Y128722D01*
X290904Y128753D01*
X290999Y128780D01*
X291095Y128804D01*
X291192Y128823D01*
X291289Y128839D01*
X291387Y128851D01*
X291486Y128859D01*
X291585Y128863D01*
X291683Y128863D01*
X291782Y128859D01*
X291881Y128851D01*
X291979Y128839D01*
X292076Y128823D01*
X292173Y128804D01*
X292269Y128780D01*
X292364Y128753D01*
X292458Y128722D01*
X292550Y128688D01*
X292641Y128650D01*
X292731Y128608D01*
X292819Y128562D01*
X292904Y128514D01*
X292988Y128461D01*
X293070Y128406D01*
X293149Y128347D01*
X293226Y128285D01*
X293301Y128221D01*
X293373Y128153D01*
X293442Y128082D01*
X293508Y128009D01*
X293572Y127933D01*
X293632Y127855D01*
X293689Y127774D01*
X293743Y127692D01*
X293793Y127607D01*
X293840Y127520D01*
X293884Y127431D01*
X293924Y127341D01*
X293961Y127249D01*
X293993Y127156D01*
X294022Y127062D01*
X294048Y126966D01*
X294069Y126870D01*
X294087Y126772D01*
X294100Y126675D01*
X294110Y126576D01*
X294116Y126478D01*
X294118Y126379D01*
X294118Y125137D01*
X289151Y125137D01*
X299148Y123275D02*
X299148Y132588D01*
X299148Y123275D02*
X299150Y123191D01*
X299155Y123108D01*
X299165Y123025D01*
X299178Y122942D01*
X299195Y122860D01*
X299215Y122779D01*
X299239Y122699D01*
X299267Y122620D01*
X299298Y122543D01*
X299332Y122467D01*
X299370Y122392D01*
X299412Y122319D01*
X299456Y122249D01*
X299504Y122180D01*
X299554Y122113D01*
X299608Y122049D01*
X299664Y121988D01*
X299724Y121928D01*
X299785Y121872D01*
X299849Y121818D01*
X299916Y121768D01*
X299985Y121720D01*
X300055Y121676D01*
X300128Y121634D01*
X300203Y121596D01*
X300279Y121562D01*
X300356Y121531D01*
X300435Y121503D01*
X300515Y121479D01*
X300596Y121459D01*
X300678Y121442D01*
X300761Y121429D01*
X300844Y121419D01*
X300927Y121414D01*
X301011Y121412D01*
X307015Y121412D02*
X310120Y121412D01*
X307015Y121412D02*
X306931Y121414D01*
X306848Y121419D01*
X306765Y121429D01*
X306682Y121442D01*
X306600Y121459D01*
X306519Y121479D01*
X306439Y121503D01*
X306360Y121531D01*
X306283Y121562D01*
X306207Y121596D01*
X306132Y121634D01*
X306059Y121676D01*
X305989Y121720D01*
X305920Y121768D01*
X305853Y121818D01*
X305789Y121872D01*
X305728Y121928D01*
X305668Y121988D01*
X305612Y122049D01*
X305558Y122113D01*
X305508Y122180D01*
X305460Y122249D01*
X305416Y122319D01*
X305374Y122392D01*
X305336Y122467D01*
X305302Y122543D01*
X305271Y122620D01*
X305243Y122699D01*
X305219Y122779D01*
X305199Y122860D01*
X305182Y122942D01*
X305169Y123025D01*
X305159Y123108D01*
X305154Y123191D01*
X305152Y123275D01*
X305152Y126379D01*
X305154Y126478D01*
X305160Y126576D01*
X305170Y126675D01*
X305183Y126772D01*
X305201Y126870D01*
X305222Y126966D01*
X305248Y127062D01*
X305277Y127156D01*
X305309Y127249D01*
X305346Y127341D01*
X305386Y127431D01*
X305430Y127520D01*
X305477Y127607D01*
X305527Y127692D01*
X305581Y127774D01*
X305638Y127855D01*
X305698Y127933D01*
X305762Y128009D01*
X305828Y128082D01*
X305897Y128153D01*
X305969Y128221D01*
X306044Y128285D01*
X306121Y128347D01*
X306200Y128406D01*
X306282Y128461D01*
X306366Y128514D01*
X306451Y128562D01*
X306539Y128608D01*
X306629Y128650D01*
X306720Y128688D01*
X306812Y128722D01*
X306906Y128753D01*
X307001Y128780D01*
X307097Y128804D01*
X307194Y128823D01*
X307291Y128839D01*
X307389Y128851D01*
X307488Y128859D01*
X307587Y128863D01*
X307685Y128863D01*
X307784Y128859D01*
X307883Y128851D01*
X307981Y128839D01*
X308078Y128823D01*
X308175Y128804D01*
X308271Y128780D01*
X308366Y128753D01*
X308460Y128722D01*
X308552Y128688D01*
X308643Y128650D01*
X308733Y128608D01*
X308821Y128562D01*
X308906Y128514D01*
X308990Y128461D01*
X309072Y128406D01*
X309151Y128347D01*
X309228Y128285D01*
X309303Y128221D01*
X309375Y128153D01*
X309444Y128082D01*
X309510Y128009D01*
X309574Y127933D01*
X309634Y127855D01*
X309691Y127774D01*
X309745Y127692D01*
X309795Y127607D01*
X309842Y127520D01*
X309886Y127431D01*
X309926Y127341D01*
X309963Y127249D01*
X309995Y127156D01*
X310024Y127062D01*
X310050Y126966D01*
X310071Y126870D01*
X310089Y126772D01*
X310102Y126675D01*
X310112Y126576D01*
X310118Y126478D01*
X310120Y126379D01*
X310120Y125137D01*
X305152Y125137D01*
X314040Y128863D02*
X317765Y128863D01*
X315282Y132588D02*
X315282Y123275D01*
X315281Y123275D02*
X315283Y123191D01*
X315288Y123108D01*
X315298Y123025D01*
X315311Y122942D01*
X315328Y122860D01*
X315348Y122779D01*
X315372Y122699D01*
X315400Y122620D01*
X315431Y122543D01*
X315465Y122467D01*
X315503Y122392D01*
X315545Y122319D01*
X315589Y122249D01*
X315637Y122180D01*
X315687Y122113D01*
X315741Y122049D01*
X315797Y121988D01*
X315857Y121928D01*
X315918Y121872D01*
X315982Y121818D01*
X316049Y121768D01*
X316118Y121720D01*
X316188Y121676D01*
X316261Y121634D01*
X316336Y121596D01*
X316412Y121562D01*
X316489Y121531D01*
X316568Y121503D01*
X316648Y121479D01*
X316729Y121459D01*
X316811Y121442D01*
X316894Y121429D01*
X316977Y121419D01*
X317060Y121414D01*
X317144Y121412D01*
X317765Y121412D01*
X202579Y102362D02*
X197612Y102362D01*
X197612Y113538D01*
X202579Y113538D01*
X201337Y108571D02*
X197612Y108571D01*
X207490Y113538D02*
X207490Y102362D01*
X213699Y102362D02*
X207490Y113538D01*
X213699Y113538D02*
X213699Y102362D01*
X224028Y108571D02*
X225891Y108571D01*
X225891Y102362D01*
X222165Y102362D01*
X222067Y102364D01*
X221970Y102370D01*
X221873Y102379D01*
X221776Y102393D01*
X221680Y102410D01*
X221585Y102431D01*
X221491Y102455D01*
X221397Y102484D01*
X221305Y102516D01*
X221214Y102551D01*
X221125Y102590D01*
X221037Y102633D01*
X220951Y102679D01*
X220867Y102728D01*
X220785Y102781D01*
X220705Y102836D01*
X220627Y102895D01*
X220552Y102957D01*
X220479Y103022D01*
X220409Y103090D01*
X220341Y103160D01*
X220276Y103233D01*
X220214Y103308D01*
X220155Y103386D01*
X220100Y103466D01*
X220047Y103548D01*
X219998Y103632D01*
X219952Y103718D01*
X219909Y103806D01*
X219870Y103895D01*
X219835Y103986D01*
X219803Y104078D01*
X219774Y104172D01*
X219750Y104266D01*
X219729Y104361D01*
X219712Y104457D01*
X219698Y104554D01*
X219689Y104651D01*
X219683Y104748D01*
X219681Y104846D01*
X219682Y104846D02*
X219682Y111054D01*
X219681Y111054D02*
X219683Y111152D01*
X219689Y111249D01*
X219698Y111346D01*
X219712Y111443D01*
X219729Y111539D01*
X219750Y111634D01*
X219774Y111728D01*
X219803Y111822D01*
X219835Y111914D01*
X219870Y112005D01*
X219909Y112094D01*
X219952Y112182D01*
X219998Y112268D01*
X220047Y112352D01*
X220100Y112434D01*
X220155Y112514D01*
X220214Y112592D01*
X220276Y112667D01*
X220341Y112740D01*
X220409Y112810D01*
X220479Y112878D01*
X220552Y112943D01*
X220627Y113005D01*
X220705Y113064D01*
X220785Y113119D01*
X220867Y113172D01*
X220951Y113221D01*
X221037Y113267D01*
X221125Y113310D01*
X221214Y113349D01*
X221305Y113384D01*
X221397Y113416D01*
X221491Y113445D01*
X221585Y113469D01*
X221680Y113490D01*
X221776Y113507D01*
X221873Y113521D01*
X221970Y113530D01*
X222067Y113536D01*
X222165Y113538D01*
X225891Y113538D01*
X232311Y113538D02*
X232311Y102362D01*
X231069Y102362D02*
X233553Y102362D01*
X233553Y113538D02*
X231069Y113538D01*
X238351Y102362D02*
X241455Y102362D01*
X241566Y102364D01*
X241676Y102370D01*
X241787Y102380D01*
X241897Y102394D01*
X242006Y102411D01*
X242115Y102433D01*
X242223Y102458D01*
X242329Y102488D01*
X242435Y102521D01*
X242540Y102558D01*
X242643Y102598D01*
X242744Y102643D01*
X242844Y102690D01*
X242943Y102742D01*
X243039Y102797D01*
X243133Y102855D01*
X243225Y102916D01*
X243315Y102981D01*
X243403Y103049D01*
X243488Y103120D01*
X243570Y103194D01*
X243650Y103271D01*
X243727Y103351D01*
X243801Y103433D01*
X243872Y103518D01*
X243940Y103606D01*
X244005Y103696D01*
X244066Y103788D01*
X244124Y103882D01*
X244179Y103978D01*
X244231Y104077D01*
X244278Y104177D01*
X244323Y104278D01*
X244363Y104381D01*
X244400Y104486D01*
X244433Y104592D01*
X244463Y104698D01*
X244488Y104806D01*
X244510Y104915D01*
X244527Y105024D01*
X244541Y105134D01*
X244551Y105245D01*
X244557Y105355D01*
X244559Y105466D01*
X244557Y105577D01*
X244551Y105687D01*
X244541Y105798D01*
X244527Y105908D01*
X244510Y106017D01*
X244488Y106126D01*
X244463Y106234D01*
X244433Y106340D01*
X244400Y106446D01*
X244363Y106551D01*
X244323Y106654D01*
X244278Y106755D01*
X244231Y106855D01*
X244179Y106954D01*
X244124Y107050D01*
X244066Y107144D01*
X244005Y107236D01*
X243940Y107326D01*
X243872Y107414D01*
X243801Y107499D01*
X243727Y107581D01*
X243650Y107661D01*
X243570Y107738D01*
X243488Y107812D01*
X243403Y107883D01*
X243315Y107951D01*
X243225Y108016D01*
X243133Y108077D01*
X243039Y108135D01*
X242943Y108190D01*
X242844Y108242D01*
X242744Y108289D01*
X242643Y108334D01*
X242540Y108374D01*
X242435Y108411D01*
X242329Y108444D01*
X242223Y108474D01*
X242115Y108499D01*
X242006Y108521D01*
X241897Y108538D01*
X241787Y108552D01*
X241676Y108562D01*
X241566Y108568D01*
X241455Y108570D01*
X242076Y113538D02*
X238351Y113538D01*
X242076Y113538D02*
X242175Y113536D01*
X242273Y113530D01*
X242372Y113520D01*
X242469Y113507D01*
X242567Y113489D01*
X242663Y113468D01*
X242759Y113442D01*
X242853Y113413D01*
X242946Y113381D01*
X243038Y113344D01*
X243128Y113304D01*
X243217Y113260D01*
X243304Y113213D01*
X243389Y113163D01*
X243471Y113109D01*
X243552Y113052D01*
X243630Y112992D01*
X243706Y112928D01*
X243779Y112862D01*
X243850Y112793D01*
X243918Y112721D01*
X243982Y112646D01*
X244044Y112569D01*
X244103Y112490D01*
X244158Y112408D01*
X244211Y112324D01*
X244259Y112239D01*
X244305Y112151D01*
X244347Y112061D01*
X244385Y111970D01*
X244419Y111878D01*
X244450Y111784D01*
X244477Y111689D01*
X244501Y111593D01*
X244520Y111496D01*
X244536Y111399D01*
X244548Y111301D01*
X244556Y111202D01*
X244560Y111103D01*
X244560Y111005D01*
X244556Y110906D01*
X244548Y110807D01*
X244536Y110709D01*
X244520Y110612D01*
X244501Y110515D01*
X244477Y110419D01*
X244450Y110324D01*
X244419Y110230D01*
X244385Y110138D01*
X244347Y110047D01*
X244305Y109957D01*
X244259Y109869D01*
X244211Y109784D01*
X244158Y109700D01*
X244103Y109618D01*
X244044Y109539D01*
X243982Y109462D01*
X243918Y109387D01*
X243850Y109315D01*
X243779Y109246D01*
X243706Y109180D01*
X243630Y109116D01*
X243552Y109056D01*
X243471Y108999D01*
X243389Y108945D01*
X243304Y108895D01*
X243217Y108848D01*
X243128Y108804D01*
X243038Y108764D01*
X242946Y108727D01*
X242853Y108695D01*
X242759Y108666D01*
X242663Y108640D01*
X242567Y108619D01*
X242469Y108601D01*
X242372Y108588D01*
X242273Y108578D01*
X242175Y108572D01*
X242076Y108570D01*
X242076Y108571D02*
X239592Y108571D01*
X249781Y107950D02*
X249784Y108170D01*
X249791Y108390D01*
X249805Y108609D01*
X249823Y108828D01*
X249847Y109047D01*
X249875Y109265D01*
X249909Y109482D01*
X249948Y109698D01*
X249993Y109914D01*
X250042Y110128D01*
X250097Y110341D01*
X250156Y110553D01*
X250221Y110763D01*
X250291Y110971D01*
X250365Y111178D01*
X250445Y111383D01*
X250529Y111586D01*
X250618Y111787D01*
X250712Y111986D01*
X250745Y112075D01*
X250781Y112163D01*
X250821Y112249D01*
X250864Y112334D01*
X250911Y112416D01*
X250962Y112497D01*
X251015Y112575D01*
X251072Y112651D01*
X251132Y112725D01*
X251195Y112796D01*
X251260Y112865D01*
X251329Y112931D01*
X251400Y112993D01*
X251474Y113053D01*
X251550Y113110D01*
X251628Y113164D01*
X251709Y113214D01*
X251791Y113261D01*
X251876Y113304D01*
X251962Y113344D01*
X252050Y113381D01*
X252139Y113413D01*
X252229Y113442D01*
X252321Y113468D01*
X252413Y113489D01*
X252507Y113507D01*
X252601Y113520D01*
X252695Y113530D01*
X252790Y113536D01*
X252885Y113538D01*
X252980Y113536D01*
X253075Y113530D01*
X253169Y113520D01*
X253263Y113507D01*
X253357Y113489D01*
X253449Y113468D01*
X253541Y113442D01*
X253631Y113413D01*
X253720Y113381D01*
X253808Y113344D01*
X253894Y113304D01*
X253979Y113261D01*
X254061Y113214D01*
X254142Y113164D01*
X254220Y113110D01*
X254296Y113053D01*
X254370Y112993D01*
X254441Y112931D01*
X254510Y112865D01*
X254575Y112796D01*
X254638Y112725D01*
X254698Y112651D01*
X254755Y112575D01*
X254808Y112497D01*
X254859Y112416D01*
X254906Y112333D01*
X254949Y112249D01*
X254989Y112163D01*
X255025Y112075D01*
X255058Y111986D01*
X255059Y111986D02*
X255153Y111787D01*
X255242Y111586D01*
X255326Y111383D01*
X255406Y111178D01*
X255480Y110971D01*
X255550Y110763D01*
X255615Y110553D01*
X255674Y110341D01*
X255729Y110128D01*
X255778Y109914D01*
X255823Y109698D01*
X255862Y109482D01*
X255896Y109265D01*
X255924Y109047D01*
X255948Y108828D01*
X255966Y108609D01*
X255980Y108390D01*
X255987Y108170D01*
X255990Y107950D01*
X249781Y107950D02*
X249784Y107730D01*
X249791Y107510D01*
X249805Y107291D01*
X249823Y107072D01*
X249847Y106853D01*
X249875Y106635D01*
X249909Y106418D01*
X249948Y106202D01*
X249993Y105986D01*
X250042Y105772D01*
X250097Y105559D01*
X250156Y105348D01*
X250221Y105137D01*
X250291Y104929D01*
X250365Y104722D01*
X250445Y104517D01*
X250529Y104314D01*
X250618Y104113D01*
X250712Y103914D01*
X250745Y103825D01*
X250781Y103737D01*
X250821Y103651D01*
X250864Y103566D01*
X250911Y103484D01*
X250962Y103403D01*
X251015Y103325D01*
X251072Y103249D01*
X251132Y103175D01*
X251195Y103104D01*
X251260Y103035D01*
X251329Y102969D01*
X251400Y102907D01*
X251474Y102847D01*
X251550Y102790D01*
X251628Y102736D01*
X251709Y102686D01*
X251791Y102639D01*
X251876Y102596D01*
X251962Y102556D01*
X252050Y102519D01*
X252139Y102487D01*
X252229Y102458D01*
X252321Y102432D01*
X252413Y102411D01*
X252507Y102393D01*
X252601Y102380D01*
X252695Y102370D01*
X252790Y102364D01*
X252885Y102362D01*
X255059Y103914D02*
X255153Y104113D01*
X255242Y104314D01*
X255326Y104517D01*
X255406Y104722D01*
X255480Y104929D01*
X255550Y105137D01*
X255615Y105347D01*
X255674Y105559D01*
X255729Y105772D01*
X255778Y105986D01*
X255823Y106202D01*
X255862Y106418D01*
X255896Y106635D01*
X255924Y106853D01*
X255948Y107072D01*
X255966Y107291D01*
X255980Y107510D01*
X255987Y107730D01*
X255990Y107950D01*
X255058Y103914D02*
X255025Y103825D01*
X254989Y103737D01*
X254949Y103651D01*
X254906Y103566D01*
X254859Y103484D01*
X254808Y103403D01*
X254755Y103325D01*
X254698Y103249D01*
X254638Y103175D01*
X254575Y103104D01*
X254510Y103035D01*
X254441Y102969D01*
X254370Y102907D01*
X254296Y102847D01*
X254220Y102790D01*
X254142Y102736D01*
X254061Y102686D01*
X253979Y102639D01*
X253894Y102596D01*
X253808Y102556D01*
X253720Y102519D01*
X253631Y102487D01*
X253541Y102458D01*
X253449Y102432D01*
X253357Y102411D01*
X253263Y102393D01*
X253169Y102380D01*
X253075Y102370D01*
X252980Y102364D01*
X252885Y102362D01*
X250402Y104846D02*
X255369Y111054D01*
X261211Y111054D02*
X264315Y113538D01*
X264315Y102362D01*
X261211Y102362D02*
X267420Y102362D01*
X279146Y102362D02*
X279146Y113538D01*
X279146Y102362D02*
X284113Y102362D01*
X288008Y102362D02*
X288008Y102983D01*
X288629Y102983D01*
X288629Y102362D01*
X288008Y102362D01*
X292834Y113538D02*
X299043Y113538D01*
X292834Y102362D01*
X299043Y102362D01*
X197612Y94488D02*
X197612Y83312D01*
X197612Y94488D02*
X200716Y94488D01*
X200827Y94486D01*
X200937Y94480D01*
X201048Y94470D01*
X201158Y94456D01*
X201267Y94439D01*
X201376Y94417D01*
X201484Y94392D01*
X201590Y94362D01*
X201696Y94329D01*
X201801Y94292D01*
X201904Y94252D01*
X202005Y94207D01*
X202105Y94160D01*
X202204Y94108D01*
X202300Y94053D01*
X202394Y93995D01*
X202486Y93934D01*
X202576Y93869D01*
X202664Y93801D01*
X202749Y93730D01*
X202831Y93656D01*
X202911Y93579D01*
X202988Y93499D01*
X203062Y93417D01*
X203133Y93332D01*
X203201Y93244D01*
X203266Y93154D01*
X203327Y93062D01*
X203385Y92968D01*
X203440Y92872D01*
X203492Y92773D01*
X203539Y92673D01*
X203584Y92572D01*
X203624Y92469D01*
X203661Y92364D01*
X203694Y92258D01*
X203724Y92152D01*
X203749Y92044D01*
X203771Y91935D01*
X203788Y91826D01*
X203802Y91716D01*
X203812Y91605D01*
X203818Y91495D01*
X203820Y91384D01*
X203818Y91273D01*
X203812Y91163D01*
X203802Y91052D01*
X203788Y90942D01*
X203771Y90833D01*
X203749Y90724D01*
X203724Y90616D01*
X203694Y90510D01*
X203661Y90404D01*
X203624Y90299D01*
X203584Y90196D01*
X203539Y90095D01*
X203492Y89995D01*
X203440Y89896D01*
X203385Y89800D01*
X203327Y89706D01*
X203266Y89614D01*
X203201Y89524D01*
X203133Y89436D01*
X203062Y89351D01*
X202988Y89269D01*
X202911Y89189D01*
X202831Y89112D01*
X202749Y89038D01*
X202664Y88967D01*
X202576Y88899D01*
X202486Y88834D01*
X202394Y88773D01*
X202300Y88715D01*
X202204Y88660D01*
X202105Y88608D01*
X202005Y88561D01*
X201904Y88516D01*
X201801Y88476D01*
X201696Y88439D01*
X201590Y88406D01*
X201484Y88376D01*
X201376Y88351D01*
X201267Y88329D01*
X201158Y88312D01*
X201048Y88298D01*
X200937Y88288D01*
X200827Y88282D01*
X200716Y88280D01*
X200716Y88279D02*
X197612Y88279D01*
X201337Y88279D02*
X203821Y83312D01*
X210672Y83312D02*
X213776Y83312D01*
X210672Y83312D02*
X210588Y83314D01*
X210505Y83319D01*
X210422Y83329D01*
X210339Y83342D01*
X210257Y83359D01*
X210176Y83379D01*
X210096Y83403D01*
X210017Y83431D01*
X209940Y83462D01*
X209864Y83496D01*
X209789Y83534D01*
X209716Y83576D01*
X209646Y83620D01*
X209577Y83668D01*
X209510Y83718D01*
X209446Y83772D01*
X209385Y83828D01*
X209325Y83888D01*
X209269Y83949D01*
X209215Y84013D01*
X209165Y84080D01*
X209117Y84149D01*
X209073Y84219D01*
X209031Y84292D01*
X208993Y84367D01*
X208959Y84443D01*
X208928Y84520D01*
X208900Y84599D01*
X208876Y84679D01*
X208856Y84760D01*
X208839Y84842D01*
X208826Y84925D01*
X208816Y85008D01*
X208811Y85091D01*
X208809Y85175D01*
X208809Y88279D01*
X208808Y88279D02*
X208810Y88378D01*
X208816Y88476D01*
X208826Y88575D01*
X208839Y88672D01*
X208857Y88770D01*
X208878Y88866D01*
X208904Y88962D01*
X208933Y89056D01*
X208965Y89149D01*
X209002Y89241D01*
X209042Y89331D01*
X209086Y89420D01*
X209133Y89507D01*
X209183Y89592D01*
X209237Y89674D01*
X209294Y89755D01*
X209354Y89833D01*
X209418Y89909D01*
X209484Y89982D01*
X209553Y90053D01*
X209625Y90121D01*
X209700Y90185D01*
X209777Y90247D01*
X209856Y90306D01*
X209938Y90361D01*
X210022Y90414D01*
X210107Y90462D01*
X210195Y90508D01*
X210285Y90550D01*
X210376Y90588D01*
X210468Y90622D01*
X210562Y90653D01*
X210657Y90680D01*
X210753Y90704D01*
X210850Y90723D01*
X210947Y90739D01*
X211045Y90751D01*
X211144Y90759D01*
X211243Y90763D01*
X211341Y90763D01*
X211440Y90759D01*
X211539Y90751D01*
X211637Y90739D01*
X211734Y90723D01*
X211831Y90704D01*
X211927Y90680D01*
X212022Y90653D01*
X212116Y90622D01*
X212208Y90588D01*
X212299Y90550D01*
X212389Y90508D01*
X212477Y90462D01*
X212562Y90414D01*
X212646Y90361D01*
X212728Y90306D01*
X212807Y90247D01*
X212884Y90185D01*
X212959Y90121D01*
X213031Y90053D01*
X213100Y89982D01*
X213166Y89909D01*
X213230Y89833D01*
X213290Y89755D01*
X213347Y89674D01*
X213401Y89592D01*
X213451Y89507D01*
X213498Y89420D01*
X213542Y89331D01*
X213582Y89241D01*
X213619Y89149D01*
X213651Y89056D01*
X213680Y88962D01*
X213706Y88866D01*
X213727Y88770D01*
X213745Y88672D01*
X213758Y88575D01*
X213768Y88476D01*
X213774Y88378D01*
X213776Y88279D01*
X213776Y87037D01*
X208809Y87037D01*
X218334Y90763D02*
X220817Y83312D01*
X223301Y90763D01*
X227675Y90763D02*
X227675Y83312D01*
X227365Y93867D02*
X227365Y94488D01*
X227986Y94488D01*
X227986Y93867D01*
X227365Y93867D01*
X233362Y87658D02*
X236467Y86416D01*
X233362Y87658D02*
X233290Y87689D01*
X233220Y87723D01*
X233151Y87761D01*
X233084Y87802D01*
X233019Y87846D01*
X232957Y87894D01*
X232897Y87944D01*
X232839Y87997D01*
X232784Y88053D01*
X232732Y88112D01*
X232683Y88173D01*
X232637Y88236D01*
X232594Y88301D01*
X232554Y88369D01*
X232517Y88438D01*
X232484Y88509D01*
X232455Y88582D01*
X232429Y88656D01*
X232406Y88731D01*
X232388Y88807D01*
X232373Y88884D01*
X232361Y88962D01*
X232354Y89040D01*
X232350Y89118D01*
X232351Y89196D01*
X232355Y89275D01*
X232362Y89353D01*
X232374Y89430D01*
X232389Y89507D01*
X232409Y89583D01*
X232431Y89658D01*
X232458Y89732D01*
X232488Y89804D01*
X232521Y89875D01*
X232558Y89944D01*
X232598Y90012D01*
X232642Y90077D01*
X232688Y90140D01*
X232738Y90201D01*
X232790Y90259D01*
X232845Y90315D01*
X232903Y90368D01*
X232964Y90418D01*
X233026Y90465D01*
X233091Y90508D01*
X233158Y90549D01*
X233227Y90587D01*
X233298Y90620D01*
X233370Y90651D01*
X233444Y90678D01*
X233518Y90701D01*
X233594Y90721D01*
X233671Y90737D01*
X233748Y90749D01*
X233826Y90757D01*
X233905Y90762D01*
X233983Y90763D01*
X233983Y90762D02*
X234152Y90758D01*
X234322Y90749D01*
X234491Y90737D01*
X234659Y90720D01*
X234828Y90699D01*
X234995Y90675D01*
X235162Y90646D01*
X235329Y90613D01*
X235494Y90576D01*
X235659Y90535D01*
X235822Y90491D01*
X235985Y90442D01*
X236146Y90390D01*
X236306Y90333D01*
X236464Y90273D01*
X236621Y90209D01*
X236777Y90141D01*
X236467Y86417D02*
X236539Y86386D01*
X236609Y86352D01*
X236678Y86314D01*
X236745Y86273D01*
X236810Y86229D01*
X236872Y86181D01*
X236932Y86131D01*
X236990Y86078D01*
X237045Y86022D01*
X237097Y85963D01*
X237146Y85902D01*
X237192Y85839D01*
X237235Y85774D01*
X237275Y85706D01*
X237312Y85637D01*
X237345Y85566D01*
X237374Y85493D01*
X237400Y85419D01*
X237423Y85344D01*
X237441Y85268D01*
X237456Y85191D01*
X237468Y85113D01*
X237475Y85035D01*
X237479Y84957D01*
X237478Y84879D01*
X237474Y84800D01*
X237467Y84722D01*
X237455Y84645D01*
X237440Y84568D01*
X237420Y84492D01*
X237398Y84417D01*
X237371Y84343D01*
X237341Y84271D01*
X237308Y84200D01*
X237271Y84131D01*
X237231Y84063D01*
X237187Y83998D01*
X237141Y83935D01*
X237091Y83874D01*
X237039Y83816D01*
X236984Y83760D01*
X236926Y83707D01*
X236865Y83657D01*
X236803Y83610D01*
X236738Y83567D01*
X236671Y83526D01*
X236602Y83488D01*
X236531Y83455D01*
X236459Y83424D01*
X236385Y83397D01*
X236311Y83374D01*
X236235Y83354D01*
X236158Y83338D01*
X236081Y83326D01*
X236003Y83318D01*
X235924Y83313D01*
X235846Y83312D01*
X235845Y83312D02*
X235596Y83319D01*
X235348Y83331D01*
X235099Y83349D01*
X234851Y83373D01*
X234604Y83403D01*
X234358Y83439D01*
X234112Y83481D01*
X233868Y83528D01*
X233624Y83582D01*
X233382Y83640D01*
X233142Y83705D01*
X232903Y83775D01*
X232666Y83851D01*
X232431Y83933D01*
X242153Y83312D02*
X242153Y90763D01*
X241843Y93867D02*
X241843Y94488D01*
X242464Y94488D01*
X242464Y93867D01*
X241843Y93867D01*
X246909Y88279D02*
X246909Y85796D01*
X246908Y88279D02*
X246910Y88378D01*
X246916Y88476D01*
X246926Y88575D01*
X246939Y88672D01*
X246957Y88770D01*
X246978Y88866D01*
X247004Y88962D01*
X247033Y89056D01*
X247065Y89149D01*
X247102Y89241D01*
X247142Y89331D01*
X247186Y89420D01*
X247233Y89507D01*
X247283Y89592D01*
X247337Y89674D01*
X247394Y89755D01*
X247454Y89833D01*
X247518Y89909D01*
X247584Y89982D01*
X247653Y90053D01*
X247725Y90121D01*
X247800Y90185D01*
X247877Y90247D01*
X247956Y90306D01*
X248038Y90361D01*
X248122Y90414D01*
X248207Y90462D01*
X248295Y90508D01*
X248385Y90550D01*
X248476Y90588D01*
X248568Y90622D01*
X248662Y90653D01*
X248757Y90680D01*
X248853Y90704D01*
X248950Y90723D01*
X249047Y90739D01*
X249145Y90751D01*
X249244Y90759D01*
X249343Y90763D01*
X249441Y90763D01*
X249540Y90759D01*
X249639Y90751D01*
X249737Y90739D01*
X249834Y90723D01*
X249931Y90704D01*
X250027Y90680D01*
X250122Y90653D01*
X250216Y90622D01*
X250308Y90588D01*
X250399Y90550D01*
X250489Y90508D01*
X250577Y90462D01*
X250662Y90414D01*
X250746Y90361D01*
X250828Y90306D01*
X250907Y90247D01*
X250984Y90185D01*
X251059Y90121D01*
X251131Y90053D01*
X251200Y89982D01*
X251266Y89909D01*
X251330Y89833D01*
X251390Y89755D01*
X251447Y89674D01*
X251501Y89592D01*
X251551Y89507D01*
X251598Y89420D01*
X251642Y89331D01*
X251682Y89241D01*
X251719Y89149D01*
X251751Y89056D01*
X251780Y88962D01*
X251806Y88866D01*
X251827Y88770D01*
X251845Y88672D01*
X251858Y88575D01*
X251868Y88476D01*
X251874Y88378D01*
X251876Y88279D01*
X251876Y85796D01*
X251874Y85697D01*
X251868Y85599D01*
X251858Y85500D01*
X251845Y85403D01*
X251827Y85305D01*
X251806Y85209D01*
X251780Y85113D01*
X251751Y85019D01*
X251719Y84926D01*
X251682Y84834D01*
X251642Y84744D01*
X251598Y84655D01*
X251551Y84568D01*
X251501Y84483D01*
X251447Y84401D01*
X251390Y84320D01*
X251330Y84242D01*
X251266Y84166D01*
X251200Y84093D01*
X251131Y84022D01*
X251059Y83954D01*
X250984Y83890D01*
X250907Y83828D01*
X250828Y83769D01*
X250746Y83714D01*
X250662Y83661D01*
X250577Y83613D01*
X250489Y83567D01*
X250399Y83525D01*
X250308Y83487D01*
X250216Y83453D01*
X250122Y83422D01*
X250027Y83395D01*
X249931Y83371D01*
X249834Y83352D01*
X249737Y83336D01*
X249639Y83324D01*
X249540Y83316D01*
X249441Y83312D01*
X249343Y83312D01*
X249244Y83316D01*
X249145Y83324D01*
X249047Y83336D01*
X248950Y83352D01*
X248853Y83371D01*
X248757Y83395D01*
X248662Y83422D01*
X248568Y83453D01*
X248476Y83487D01*
X248385Y83525D01*
X248295Y83567D01*
X248207Y83613D01*
X248122Y83661D01*
X248038Y83714D01*
X247956Y83769D01*
X247877Y83828D01*
X247800Y83890D01*
X247725Y83954D01*
X247653Y84022D01*
X247584Y84093D01*
X247518Y84166D01*
X247454Y84242D01*
X247394Y84320D01*
X247337Y84401D01*
X247283Y84483D01*
X247233Y84568D01*
X247186Y84655D01*
X247142Y84744D01*
X247102Y84834D01*
X247065Y84926D01*
X247033Y85019D01*
X247004Y85113D01*
X246978Y85209D01*
X246957Y85305D01*
X246939Y85403D01*
X246926Y85500D01*
X246916Y85599D01*
X246910Y85697D01*
X246908Y85796D01*
X257196Y83312D02*
X257196Y90763D01*
X260300Y90763D01*
X260384Y90761D01*
X260467Y90756D01*
X260550Y90746D01*
X260633Y90733D01*
X260715Y90716D01*
X260796Y90696D01*
X260876Y90672D01*
X260955Y90644D01*
X261032Y90613D01*
X261108Y90579D01*
X261183Y90541D01*
X261256Y90499D01*
X261326Y90455D01*
X261395Y90407D01*
X261462Y90357D01*
X261526Y90303D01*
X261587Y90247D01*
X261647Y90187D01*
X261703Y90126D01*
X261757Y90062D01*
X261807Y89995D01*
X261855Y89926D01*
X261899Y89856D01*
X261941Y89783D01*
X261979Y89708D01*
X262013Y89632D01*
X262044Y89555D01*
X262072Y89476D01*
X262096Y89396D01*
X262116Y89315D01*
X262133Y89233D01*
X262146Y89150D01*
X262156Y89067D01*
X262161Y88984D01*
X262163Y88900D01*
X262163Y83312D01*
X273720Y92004D02*
X276824Y94488D01*
X276824Y83312D01*
X273720Y83312D02*
X279929Y83312D01*
D11*
X138430Y177800D02*
X128270Y177800D01*
D10*
X146812Y153141D02*
X157988Y153141D01*
X146812Y153141D02*
X146812Y156246D01*
X146814Y156357D01*
X146820Y156467D01*
X146830Y156578D01*
X146844Y156688D01*
X146861Y156797D01*
X146883Y156906D01*
X146908Y157014D01*
X146938Y157120D01*
X146971Y157226D01*
X147008Y157331D01*
X147048Y157434D01*
X147093Y157535D01*
X147140Y157635D01*
X147192Y157734D01*
X147247Y157830D01*
X147305Y157924D01*
X147366Y158016D01*
X147431Y158106D01*
X147499Y158194D01*
X147570Y158279D01*
X147644Y158361D01*
X147721Y158441D01*
X147801Y158518D01*
X147883Y158592D01*
X147968Y158663D01*
X148056Y158731D01*
X148146Y158796D01*
X148238Y158857D01*
X148332Y158915D01*
X148428Y158970D01*
X148527Y159022D01*
X148627Y159069D01*
X148728Y159114D01*
X148831Y159154D01*
X148936Y159191D01*
X149042Y159224D01*
X149148Y159254D01*
X149256Y159279D01*
X149365Y159301D01*
X149474Y159318D01*
X149584Y159332D01*
X149695Y159342D01*
X149805Y159348D01*
X149916Y159350D01*
X150027Y159348D01*
X150137Y159342D01*
X150248Y159332D01*
X150358Y159318D01*
X150467Y159301D01*
X150576Y159279D01*
X150684Y159254D01*
X150790Y159224D01*
X150896Y159191D01*
X151001Y159154D01*
X151104Y159114D01*
X151205Y159069D01*
X151305Y159022D01*
X151404Y158970D01*
X151500Y158915D01*
X151594Y158857D01*
X151686Y158796D01*
X151776Y158731D01*
X151864Y158663D01*
X151949Y158592D01*
X152031Y158518D01*
X152111Y158441D01*
X152188Y158361D01*
X152262Y158279D01*
X152333Y158194D01*
X152401Y158106D01*
X152466Y158016D01*
X152527Y157924D01*
X152585Y157830D01*
X152640Y157734D01*
X152692Y157635D01*
X152739Y157535D01*
X152784Y157434D01*
X152824Y157331D01*
X152861Y157226D01*
X152894Y157120D01*
X152924Y157014D01*
X152949Y156906D01*
X152971Y156797D01*
X152988Y156688D01*
X153002Y156578D01*
X153012Y156467D01*
X153018Y156357D01*
X153020Y156246D01*
X153021Y156246D02*
X153021Y153141D01*
X153021Y156866D02*
X157988Y159350D01*
X149296Y164479D02*
X146812Y167584D01*
X157988Y167584D01*
X157988Y170688D02*
X157988Y164479D01*
D12*
X142550Y310350D02*
X142547Y310592D01*
X142538Y310833D01*
X142524Y311074D01*
X142503Y311315D01*
X142477Y311555D01*
X142445Y311795D01*
X142407Y312034D01*
X142364Y312271D01*
X142314Y312508D01*
X142259Y312743D01*
X142199Y312977D01*
X142132Y313209D01*
X142061Y313440D01*
X141983Y313669D01*
X141900Y313896D01*
X141812Y314121D01*
X141718Y314344D01*
X141619Y314564D01*
X141514Y314782D01*
X141405Y314997D01*
X141290Y315210D01*
X141170Y315420D01*
X141045Y315626D01*
X140915Y315830D01*
X140780Y316031D01*
X140640Y316228D01*
X140496Y316422D01*
X140347Y316612D01*
X140193Y316798D01*
X140035Y316981D01*
X139873Y317160D01*
X139706Y317335D01*
X139535Y317506D01*
X139360Y317673D01*
X139181Y317835D01*
X138998Y317993D01*
X138812Y318147D01*
X138622Y318296D01*
X138428Y318440D01*
X138231Y318580D01*
X138030Y318715D01*
X137826Y318845D01*
X137620Y318970D01*
X137410Y319090D01*
X137197Y319205D01*
X136982Y319314D01*
X136764Y319419D01*
X136544Y319518D01*
X136321Y319612D01*
X136096Y319700D01*
X135869Y319783D01*
X135640Y319861D01*
X135409Y319932D01*
X135177Y319999D01*
X134943Y320059D01*
X134708Y320114D01*
X134471Y320164D01*
X134234Y320207D01*
X133995Y320245D01*
X133755Y320277D01*
X133515Y320303D01*
X133274Y320324D01*
X133033Y320338D01*
X132792Y320347D01*
X132550Y320350D01*
X142550Y310350D02*
X142550Y210350D01*
X142547Y210108D01*
X142538Y209867D01*
X142524Y209626D01*
X142503Y209385D01*
X142477Y209145D01*
X142445Y208905D01*
X142407Y208666D01*
X142364Y208429D01*
X142314Y208192D01*
X142259Y207957D01*
X142199Y207723D01*
X142132Y207491D01*
X142061Y207260D01*
X141983Y207031D01*
X141900Y206804D01*
X141812Y206579D01*
X141718Y206356D01*
X141619Y206136D01*
X141514Y205918D01*
X141405Y205703D01*
X141290Y205490D01*
X141170Y205280D01*
X141045Y205074D01*
X140915Y204870D01*
X140780Y204669D01*
X140640Y204472D01*
X140496Y204278D01*
X140347Y204088D01*
X140193Y203902D01*
X140035Y203719D01*
X139873Y203540D01*
X139706Y203365D01*
X139535Y203194D01*
X139360Y203027D01*
X139181Y202865D01*
X138998Y202707D01*
X138812Y202553D01*
X138622Y202404D01*
X138428Y202260D01*
X138231Y202120D01*
X138030Y201985D01*
X137826Y201855D01*
X137620Y201730D01*
X137410Y201610D01*
X137197Y201495D01*
X136982Y201386D01*
X136764Y201281D01*
X136544Y201182D01*
X136321Y201088D01*
X136096Y201000D01*
X135869Y200917D01*
X135640Y200839D01*
X135409Y200768D01*
X135177Y200701D01*
X134943Y200641D01*
X134708Y200586D01*
X134471Y200536D01*
X134234Y200493D01*
X133995Y200455D01*
X133755Y200423D01*
X133515Y200397D01*
X133274Y200376D01*
X133033Y200362D01*
X132792Y200353D01*
X132550Y200350D01*
X32550Y200350D02*
X32308Y200353D01*
X32067Y200362D01*
X31826Y200376D01*
X31585Y200397D01*
X31345Y200423D01*
X31105Y200455D01*
X30866Y200493D01*
X30629Y200536D01*
X30392Y200586D01*
X30157Y200641D01*
X29923Y200701D01*
X29691Y200768D01*
X29460Y200839D01*
X29231Y200917D01*
X29004Y201000D01*
X28779Y201088D01*
X28556Y201182D01*
X28336Y201281D01*
X28118Y201386D01*
X27903Y201495D01*
X27690Y201610D01*
X27480Y201730D01*
X27274Y201855D01*
X27070Y201985D01*
X26869Y202120D01*
X26672Y202260D01*
X26478Y202404D01*
X26288Y202553D01*
X26102Y202707D01*
X25919Y202865D01*
X25740Y203027D01*
X25565Y203194D01*
X25394Y203365D01*
X25227Y203540D01*
X25065Y203719D01*
X24907Y203902D01*
X24753Y204088D01*
X24604Y204278D01*
X24460Y204472D01*
X24320Y204669D01*
X24185Y204870D01*
X24055Y205074D01*
X23930Y205280D01*
X23810Y205490D01*
X23695Y205703D01*
X23586Y205918D01*
X23481Y206136D01*
X23382Y206356D01*
X23288Y206579D01*
X23200Y206804D01*
X23117Y207031D01*
X23039Y207260D01*
X22968Y207491D01*
X22901Y207723D01*
X22841Y207957D01*
X22786Y208192D01*
X22736Y208429D01*
X22693Y208666D01*
X22655Y208905D01*
X22623Y209145D01*
X22597Y209385D01*
X22576Y209626D01*
X22562Y209867D01*
X22553Y210108D01*
X22550Y210350D01*
X22550Y310350D01*
X22553Y310592D01*
X22562Y310833D01*
X22576Y311074D01*
X22597Y311315D01*
X22623Y311555D01*
X22655Y311795D01*
X22693Y312034D01*
X22736Y312271D01*
X22786Y312508D01*
X22841Y312743D01*
X22901Y312977D01*
X22968Y313209D01*
X23039Y313440D01*
X23117Y313669D01*
X23200Y313896D01*
X23288Y314121D01*
X23382Y314344D01*
X23481Y314564D01*
X23586Y314782D01*
X23695Y314997D01*
X23810Y315210D01*
X23930Y315420D01*
X24055Y315626D01*
X24185Y315830D01*
X24320Y316031D01*
X24460Y316228D01*
X24604Y316422D01*
X24753Y316612D01*
X24907Y316798D01*
X25065Y316981D01*
X25227Y317160D01*
X25394Y317335D01*
X25565Y317506D01*
X25740Y317673D01*
X25919Y317835D01*
X26102Y317993D01*
X26288Y318147D01*
X26478Y318296D01*
X26672Y318440D01*
X26869Y318580D01*
X27070Y318715D01*
X27274Y318845D01*
X27480Y318970D01*
X27690Y319090D01*
X27903Y319205D01*
X28118Y319314D01*
X28336Y319419D01*
X28556Y319518D01*
X28779Y319612D01*
X29004Y319700D01*
X29231Y319783D01*
X29460Y319861D01*
X29691Y319932D01*
X29923Y319999D01*
X30157Y320059D01*
X30392Y320114D01*
X30629Y320164D01*
X30866Y320207D01*
X31105Y320245D01*
X31345Y320277D01*
X31585Y320303D01*
X31826Y320324D01*
X32067Y320338D01*
X32308Y320347D01*
X32550Y320350D01*
X47195Y260350D02*
X47206Y261218D01*
X47238Y262085D01*
X47291Y262951D01*
X47365Y263815D01*
X47461Y264678D01*
X47578Y265538D01*
X47716Y266394D01*
X47874Y267247D01*
X48054Y268096D01*
X48255Y268941D01*
X48476Y269780D01*
X48717Y270613D01*
X48979Y271440D01*
X49262Y272261D01*
X49564Y273074D01*
X49886Y273880D01*
X50228Y274677D01*
X50589Y275466D01*
X50970Y276246D01*
X51370Y277016D01*
X51788Y277776D01*
X52225Y278526D01*
X52680Y279265D01*
X53153Y279992D01*
X53644Y280708D01*
X54153Y281411D01*
X54678Y282102D01*
X55220Y282779D01*
X55779Y283443D01*
X56354Y284093D01*
X56944Y284729D01*
X57550Y285350D01*
X58171Y285956D01*
X58807Y286546D01*
X59457Y287121D01*
X60121Y287680D01*
X60798Y288222D01*
X61489Y288747D01*
X62192Y289256D01*
X62908Y289747D01*
X63635Y290220D01*
X64374Y290675D01*
X65124Y291112D01*
X65884Y291530D01*
X66654Y291930D01*
X67434Y292311D01*
X68223Y292672D01*
X69020Y293014D01*
X69826Y293336D01*
X70639Y293638D01*
X71460Y293921D01*
X72287Y294183D01*
X73120Y294424D01*
X73959Y294645D01*
X74804Y294846D01*
X75653Y295026D01*
X76506Y295184D01*
X77362Y295322D01*
X78222Y295439D01*
X79085Y295535D01*
X79949Y295609D01*
X80815Y295662D01*
X81682Y295694D01*
X82550Y295705D01*
X83418Y295694D01*
X84285Y295662D01*
X85151Y295609D01*
X86015Y295535D01*
X86878Y295439D01*
X87738Y295322D01*
X88594Y295184D01*
X89447Y295026D01*
X90296Y294846D01*
X91141Y294645D01*
X91980Y294424D01*
X92813Y294183D01*
X93640Y293921D01*
X94461Y293638D01*
X95274Y293336D01*
X96080Y293014D01*
X96877Y292672D01*
X97666Y292311D01*
X98446Y291930D01*
X99216Y291530D01*
X99976Y291112D01*
X100726Y290675D01*
X101465Y290220D01*
X102192Y289747D01*
X102908Y289256D01*
X103611Y288747D01*
X104302Y288222D01*
X104979Y287680D01*
X105643Y287121D01*
X106293Y286546D01*
X106929Y285956D01*
X107550Y285350D01*
X108156Y284729D01*
X108746Y284093D01*
X109321Y283443D01*
X109880Y282779D01*
X110422Y282102D01*
X110947Y281411D01*
X111456Y280708D01*
X111947Y279992D01*
X112420Y279265D01*
X112875Y278526D01*
X113312Y277776D01*
X113730Y277016D01*
X114130Y276246D01*
X114511Y275466D01*
X114872Y274677D01*
X115214Y273880D01*
X115536Y273074D01*
X115838Y272261D01*
X116121Y271440D01*
X116383Y270613D01*
X116624Y269780D01*
X116845Y268941D01*
X117046Y268096D01*
X117226Y267247D01*
X117384Y266394D01*
X117522Y265538D01*
X117639Y264678D01*
X117735Y263815D01*
X117809Y262951D01*
X117862Y262085D01*
X117894Y261218D01*
X117905Y260350D01*
X117894Y259482D01*
X117862Y258615D01*
X117809Y257749D01*
X117735Y256885D01*
X117639Y256022D01*
X117522Y255162D01*
X117384Y254306D01*
X117226Y253453D01*
X117046Y252604D01*
X116845Y251759D01*
X116624Y250920D01*
X116383Y250087D01*
X116121Y249260D01*
X115838Y248439D01*
X115536Y247626D01*
X115214Y246820D01*
X114872Y246023D01*
X114511Y245234D01*
X114130Y244454D01*
X113730Y243684D01*
X113312Y242924D01*
X112875Y242174D01*
X112420Y241435D01*
X111947Y240708D01*
X111456Y239992D01*
X110947Y239289D01*
X110422Y238598D01*
X109880Y237921D01*
X109321Y237257D01*
X108746Y236607D01*
X108156Y235971D01*
X107550Y235350D01*
X106929Y234744D01*
X106293Y234154D01*
X105643Y233579D01*
X104979Y233020D01*
X104302Y232478D01*
X103611Y231953D01*
X102908Y231444D01*
X102192Y230953D01*
X101465Y230480D01*
X100726Y230025D01*
X99976Y229588D01*
X99216Y229170D01*
X98446Y228770D01*
X97666Y228389D01*
X96877Y228028D01*
X96080Y227686D01*
X95274Y227364D01*
X94461Y227062D01*
X93640Y226779D01*
X92813Y226517D01*
X91980Y226276D01*
X91141Y226055D01*
X90296Y225854D01*
X89447Y225674D01*
X88594Y225516D01*
X87738Y225378D01*
X86878Y225261D01*
X86015Y225165D01*
X85151Y225091D01*
X84285Y225038D01*
X83418Y225006D01*
X82550Y224995D01*
X81682Y225006D01*
X80815Y225038D01*
X79949Y225091D01*
X79085Y225165D01*
X78222Y225261D01*
X77362Y225378D01*
X76506Y225516D01*
X75653Y225674D01*
X74804Y225854D01*
X73959Y226055D01*
X73120Y226276D01*
X72287Y226517D01*
X71460Y226779D01*
X70639Y227062D01*
X69826Y227364D01*
X69020Y227686D01*
X68223Y228028D01*
X67434Y228389D01*
X66654Y228770D01*
X65884Y229170D01*
X65124Y229588D01*
X64374Y230025D01*
X63635Y230480D01*
X62908Y230953D01*
X62192Y231444D01*
X61489Y231953D01*
X60798Y232478D01*
X60121Y233020D01*
X59457Y233579D01*
X58807Y234154D01*
X58171Y234744D01*
X57550Y235350D01*
X56944Y235971D01*
X56354Y236607D01*
X55779Y237257D01*
X55220Y237921D01*
X54678Y238598D01*
X54153Y239289D01*
X53644Y239992D01*
X53153Y240708D01*
X52680Y241435D01*
X52225Y242174D01*
X51788Y242924D01*
X51370Y243684D01*
X50970Y244454D01*
X50589Y245234D01*
X50228Y246023D01*
X49886Y246820D01*
X49564Y247626D01*
X49262Y248439D01*
X48979Y249260D01*
X48717Y250087D01*
X48476Y250920D01*
X48255Y251759D01*
X48054Y252604D01*
X47874Y253453D01*
X47716Y254306D01*
X47578Y255162D01*
X47461Y256022D01*
X47365Y256885D01*
X47291Y257749D01*
X47238Y258615D01*
X47206Y259482D01*
X47195Y260350D01*
X62550Y240350D02*
X62550Y280350D01*
X102550Y280350D01*
X102550Y240350D01*
X62550Y240350D01*
X45050Y200350D02*
X32550Y200350D01*
X70050Y200350D02*
X95050Y200350D01*
X120050Y200350D02*
X132550Y200350D01*
X45050Y320350D02*
X32550Y320350D01*
X70050Y320350D02*
X95050Y320350D01*
X120050Y320350D02*
X132550Y320350D01*
D10*
X18288Y214037D02*
X18286Y214134D01*
X18280Y214232D01*
X18271Y214329D01*
X18257Y214426D01*
X18240Y214522D01*
X18219Y214617D01*
X18195Y214711D01*
X18166Y214805D01*
X18134Y214897D01*
X18099Y214988D01*
X18060Y215077D01*
X18017Y215165D01*
X17971Y215251D01*
X17922Y215335D01*
X17869Y215417D01*
X17814Y215497D01*
X17755Y215575D01*
X17693Y215650D01*
X17628Y215723D01*
X17560Y215793D01*
X17490Y215861D01*
X17417Y215926D01*
X17342Y215988D01*
X17264Y216047D01*
X17184Y216102D01*
X17102Y216155D01*
X17018Y216204D01*
X16932Y216250D01*
X16844Y216293D01*
X16755Y216332D01*
X16664Y216367D01*
X16572Y216399D01*
X16478Y216428D01*
X16384Y216452D01*
X16289Y216473D01*
X16193Y216490D01*
X16096Y216504D01*
X15999Y216513D01*
X15902Y216519D01*
X15804Y216521D01*
X18288Y214037D02*
X18286Y213894D01*
X18280Y213751D01*
X18271Y213609D01*
X18257Y213467D01*
X18239Y213325D01*
X18218Y213184D01*
X18193Y213043D01*
X18164Y212903D01*
X18131Y212764D01*
X18095Y212626D01*
X18054Y212489D01*
X18010Y212353D01*
X17963Y212218D01*
X17911Y212085D01*
X17856Y211953D01*
X17798Y211823D01*
X17736Y211694D01*
X17670Y211567D01*
X17601Y211442D01*
X17529Y211319D01*
X17453Y211198D01*
X17375Y211079D01*
X17292Y210962D01*
X17207Y210847D01*
X17119Y210735D01*
X17027Y210625D01*
X16933Y210518D01*
X16836Y210413D01*
X16736Y210311D01*
X9596Y210622D02*
X9498Y210624D01*
X9401Y210630D01*
X9304Y210639D01*
X9207Y210653D01*
X9111Y210670D01*
X9016Y210691D01*
X8922Y210715D01*
X8828Y210744D01*
X8736Y210776D01*
X8645Y210811D01*
X8556Y210850D01*
X8468Y210893D01*
X8382Y210939D01*
X8298Y210988D01*
X8216Y211041D01*
X8136Y211096D01*
X8058Y211155D01*
X7983Y211217D01*
X7910Y211282D01*
X7840Y211350D01*
X7772Y211420D01*
X7707Y211493D01*
X7645Y211568D01*
X7586Y211646D01*
X7531Y211726D01*
X7478Y211808D01*
X7429Y211892D01*
X7383Y211978D01*
X7340Y212066D01*
X7301Y212155D01*
X7266Y212246D01*
X7234Y212338D01*
X7205Y212432D01*
X7181Y212526D01*
X7160Y212621D01*
X7143Y212717D01*
X7129Y212814D01*
X7120Y212911D01*
X7114Y213008D01*
X7112Y213106D01*
X7114Y213236D01*
X7119Y213366D01*
X7128Y213496D01*
X7141Y213626D01*
X7157Y213755D01*
X7177Y213884D01*
X7201Y214012D01*
X7228Y214140D01*
X7259Y214266D01*
X7293Y214392D01*
X7331Y214517D01*
X7372Y214640D01*
X7417Y214763D01*
X7465Y214884D01*
X7516Y215004D01*
X7571Y215122D01*
X7629Y215238D01*
X7690Y215353D01*
X7755Y215467D01*
X7822Y215578D01*
X7893Y215687D01*
X7967Y215795D01*
X8043Y215900D01*
X11769Y211865D02*
X11718Y211782D01*
X11664Y211701D01*
X11607Y211623D01*
X11547Y211547D01*
X11484Y211473D01*
X11418Y211402D01*
X11350Y211333D01*
X11279Y211267D01*
X11206Y211203D01*
X11130Y211143D01*
X11052Y211086D01*
X10971Y211031D01*
X10889Y210980D01*
X10805Y210932D01*
X10719Y210887D01*
X10631Y210845D01*
X10542Y210807D01*
X10452Y210773D01*
X10360Y210741D01*
X10267Y210714D01*
X10173Y210690D01*
X10078Y210669D01*
X9982Y210653D01*
X9886Y210640D01*
X9790Y210630D01*
X9693Y210625D01*
X9596Y210623D01*
X13631Y215278D02*
X13682Y215361D01*
X13736Y215442D01*
X13793Y215520D01*
X13853Y215596D01*
X13916Y215670D01*
X13982Y215741D01*
X14050Y215810D01*
X14121Y215876D01*
X14194Y215940D01*
X14270Y216000D01*
X14348Y216057D01*
X14429Y216112D01*
X14511Y216163D01*
X14595Y216211D01*
X14681Y216256D01*
X14769Y216298D01*
X14858Y216336D01*
X14948Y216370D01*
X15040Y216402D01*
X15133Y216429D01*
X15227Y216453D01*
X15322Y216474D01*
X15418Y216490D01*
X15514Y216503D01*
X15610Y216513D01*
X15707Y216518D01*
X15804Y216520D01*
X13631Y215279D02*
X11769Y211864D01*
X7112Y221022D02*
X18288Y223506D01*
X10837Y225989D01*
X18288Y228473D01*
X7112Y230957D01*
X9596Y235839D02*
X7112Y238943D01*
X18288Y238943D01*
X18288Y235839D02*
X18288Y242048D01*
D12*
X262470Y6870D02*
X612470Y6870D01*
X614886Y6899D01*
X617301Y6987D01*
X619713Y7133D01*
X622121Y7337D01*
X624524Y7599D01*
X626919Y7919D01*
X629306Y8297D01*
X631683Y8733D01*
X634048Y9226D01*
X636402Y9776D01*
X638741Y10382D01*
X641065Y11045D01*
X643372Y11764D01*
X645661Y12539D01*
X647930Y13368D01*
X650179Y14253D01*
X652406Y15191D01*
X654610Y16183D01*
X656789Y17227D01*
X658942Y18324D01*
X661068Y19473D01*
X663166Y20673D01*
X665234Y21923D01*
X667271Y23223D01*
X669276Y24572D01*
X671249Y25968D01*
X673186Y27412D01*
X675089Y28903D01*
X676954Y30438D01*
X678782Y32019D01*
X680572Y33643D01*
X682321Y35310D01*
X684030Y37019D01*
X685697Y38768D01*
X687321Y40558D01*
X688902Y42386D01*
X690437Y44251D01*
X691928Y46154D01*
X693372Y48091D01*
X694768Y50064D01*
X696117Y52069D01*
X697417Y54106D01*
X698667Y56174D01*
X699867Y58272D01*
X701016Y60398D01*
X702113Y62551D01*
X703157Y64730D01*
X704149Y66934D01*
X705087Y69161D01*
X705972Y71410D01*
X706801Y73679D01*
X707576Y75968D01*
X708295Y78275D01*
X708958Y80599D01*
X709564Y82938D01*
X710114Y85292D01*
X710607Y87657D01*
X711043Y90034D01*
X711421Y92421D01*
X711741Y94816D01*
X712003Y97219D01*
X712207Y99627D01*
X712353Y102039D01*
X712441Y104454D01*
X712470Y106870D01*
X712470Y256870D01*
X712441Y259286D01*
X712353Y261701D01*
X712207Y264113D01*
X712003Y266521D01*
X711741Y268924D01*
X711421Y271319D01*
X711043Y273706D01*
X710607Y276083D01*
X710114Y278448D01*
X709564Y280802D01*
X708958Y283141D01*
X708295Y285465D01*
X707576Y287772D01*
X706801Y290061D01*
X705972Y292330D01*
X705087Y294579D01*
X704149Y296806D01*
X703157Y299010D01*
X702113Y301189D01*
X701016Y303342D01*
X699867Y305468D01*
X698667Y307566D01*
X697417Y309634D01*
X696117Y311671D01*
X694768Y313676D01*
X693372Y315649D01*
X691928Y317586D01*
X690437Y319489D01*
X688902Y321354D01*
X687321Y323182D01*
X685697Y324972D01*
X684030Y326721D01*
X682321Y328430D01*
X680572Y330097D01*
X678782Y331721D01*
X676954Y333302D01*
X675089Y334837D01*
X673186Y336328D01*
X671249Y337772D01*
X669276Y339168D01*
X667271Y340517D01*
X665234Y341817D01*
X663166Y343067D01*
X661068Y344267D01*
X658942Y345416D01*
X656789Y346513D01*
X654610Y347557D01*
X652406Y348549D01*
X650179Y349487D01*
X647930Y350372D01*
X645661Y351201D01*
X643372Y351976D01*
X641065Y352695D01*
X638741Y353358D01*
X636402Y353964D01*
X634048Y354514D01*
X631683Y355007D01*
X629306Y355443D01*
X626919Y355821D01*
X624524Y356141D01*
X622121Y356403D01*
X619713Y356607D01*
X617301Y356753D01*
X614886Y356841D01*
X612470Y356870D01*
X262470Y356870D01*
X260054Y356841D01*
X257639Y356753D01*
X255227Y356607D01*
X252819Y356403D01*
X250416Y356141D01*
X248021Y355821D01*
X245634Y355443D01*
X243257Y355007D01*
X240892Y354514D01*
X238538Y353964D01*
X236199Y353358D01*
X233875Y352695D01*
X231568Y351976D01*
X229279Y351201D01*
X227010Y350372D01*
X224761Y349487D01*
X222534Y348549D01*
X220330Y347557D01*
X218151Y346513D01*
X215998Y345416D01*
X213872Y344267D01*
X211774Y343067D01*
X209706Y341817D01*
X207669Y340517D01*
X205664Y339168D01*
X203691Y337772D01*
X201754Y336328D01*
X199851Y334837D01*
X197986Y333302D01*
X196158Y331721D01*
X194368Y330097D01*
X192619Y328430D01*
X190910Y326721D01*
X189243Y324972D01*
X187619Y323182D01*
X186038Y321354D01*
X184503Y319489D01*
X183012Y317586D01*
X181568Y315649D01*
X180172Y313676D01*
X178823Y311671D01*
X177523Y309634D01*
X176273Y307566D01*
X175073Y305468D01*
X173924Y303342D01*
X172827Y301189D01*
X171783Y299010D01*
X170791Y296806D01*
X169853Y294579D01*
X168968Y292330D01*
X168139Y290061D01*
X167364Y287772D01*
X166645Y285465D01*
X165982Y283141D01*
X165376Y280802D01*
X164826Y278448D01*
X164333Y276083D01*
X163897Y273706D01*
X163519Y271319D01*
X163199Y268924D01*
X162937Y266521D01*
X162733Y264113D01*
X162587Y261701D01*
X162499Y259286D01*
X162470Y256870D01*
X162470Y106870D01*
X162499Y104454D01*
X162587Y102039D01*
X162733Y99627D01*
X162937Y97219D01*
X163199Y94816D01*
X163519Y92421D01*
X163897Y90034D01*
X164333Y87657D01*
X164826Y85292D01*
X165376Y82938D01*
X165982Y80599D01*
X166645Y78275D01*
X167364Y75968D01*
X168139Y73679D01*
X168968Y71410D01*
X169853Y69161D01*
X170791Y66934D01*
X171783Y64730D01*
X172827Y62551D01*
X173924Y60398D01*
X175073Y58272D01*
X176273Y56174D01*
X177523Y54106D01*
X178823Y52069D01*
X180172Y50064D01*
X181568Y48091D01*
X183012Y46154D01*
X184503Y44251D01*
X186038Y42386D01*
X187619Y40558D01*
X189243Y38768D01*
X190910Y37019D01*
X192619Y35310D01*
X194368Y33643D01*
X196158Y32019D01*
X197986Y30438D01*
X199851Y28903D01*
X201754Y27412D01*
X203691Y25968D01*
X205664Y24572D01*
X207669Y23223D01*
X209706Y21923D01*
X211774Y20673D01*
X213872Y19473D01*
X215998Y18324D01*
X218151Y17227D01*
X220330Y16183D01*
X222534Y15191D01*
X224761Y14253D01*
X227010Y13368D01*
X229279Y12539D01*
X231568Y11764D01*
X233875Y11045D01*
X236199Y10382D01*
X238538Y9776D01*
X240892Y9226D01*
X243257Y8733D01*
X245634Y8297D01*
X248021Y7919D01*
X250416Y7599D01*
X252819Y7337D01*
X255227Y7133D01*
X257639Y6987D01*
X260054Y6899D01*
X262470Y6870D01*
D10*
X372449Y83312D02*
X372449Y94488D01*
X375553Y94488D01*
X375664Y94486D01*
X375774Y94480D01*
X375885Y94470D01*
X375995Y94456D01*
X376104Y94439D01*
X376213Y94417D01*
X376321Y94392D01*
X376427Y94362D01*
X376533Y94329D01*
X376638Y94292D01*
X376741Y94252D01*
X376842Y94207D01*
X376942Y94160D01*
X377041Y94108D01*
X377137Y94053D01*
X377231Y93995D01*
X377323Y93934D01*
X377413Y93869D01*
X377501Y93801D01*
X377586Y93730D01*
X377668Y93656D01*
X377748Y93579D01*
X377825Y93499D01*
X377899Y93417D01*
X377970Y93332D01*
X378038Y93244D01*
X378103Y93154D01*
X378164Y93062D01*
X378222Y92968D01*
X378277Y92872D01*
X378329Y92773D01*
X378376Y92673D01*
X378421Y92572D01*
X378461Y92469D01*
X378498Y92364D01*
X378531Y92258D01*
X378561Y92152D01*
X378586Y92044D01*
X378608Y91935D01*
X378625Y91826D01*
X378639Y91716D01*
X378649Y91605D01*
X378655Y91495D01*
X378657Y91384D01*
X378655Y91273D01*
X378649Y91163D01*
X378639Y91052D01*
X378625Y90942D01*
X378608Y90833D01*
X378586Y90724D01*
X378561Y90616D01*
X378531Y90510D01*
X378498Y90404D01*
X378461Y90299D01*
X378421Y90196D01*
X378376Y90095D01*
X378329Y89995D01*
X378277Y89896D01*
X378222Y89800D01*
X378164Y89706D01*
X378103Y89614D01*
X378038Y89524D01*
X377970Y89436D01*
X377899Y89351D01*
X377825Y89269D01*
X377748Y89189D01*
X377668Y89112D01*
X377586Y89038D01*
X377501Y88967D01*
X377413Y88899D01*
X377323Y88834D01*
X377231Y88773D01*
X377137Y88715D01*
X377041Y88660D01*
X376942Y88608D01*
X376842Y88561D01*
X376741Y88516D01*
X376638Y88476D01*
X376533Y88439D01*
X376427Y88406D01*
X376321Y88376D01*
X376213Y88351D01*
X376104Y88329D01*
X375995Y88312D01*
X375885Y88298D01*
X375774Y88288D01*
X375664Y88282D01*
X375553Y88280D01*
X375553Y88279D02*
X372449Y88279D01*
X383145Y88279D02*
X383145Y85796D01*
X383145Y88279D02*
X383147Y88378D01*
X383153Y88476D01*
X383163Y88575D01*
X383176Y88672D01*
X383194Y88770D01*
X383215Y88866D01*
X383241Y88962D01*
X383270Y89056D01*
X383302Y89149D01*
X383339Y89241D01*
X383379Y89331D01*
X383423Y89420D01*
X383470Y89507D01*
X383520Y89592D01*
X383574Y89674D01*
X383631Y89755D01*
X383691Y89833D01*
X383755Y89909D01*
X383821Y89982D01*
X383890Y90053D01*
X383962Y90121D01*
X384037Y90185D01*
X384114Y90247D01*
X384193Y90306D01*
X384275Y90361D01*
X384359Y90414D01*
X384444Y90462D01*
X384532Y90508D01*
X384622Y90550D01*
X384713Y90588D01*
X384805Y90622D01*
X384899Y90653D01*
X384994Y90680D01*
X385090Y90704D01*
X385187Y90723D01*
X385284Y90739D01*
X385382Y90751D01*
X385481Y90759D01*
X385580Y90763D01*
X385678Y90763D01*
X385777Y90759D01*
X385876Y90751D01*
X385974Y90739D01*
X386071Y90723D01*
X386168Y90704D01*
X386264Y90680D01*
X386359Y90653D01*
X386453Y90622D01*
X386545Y90588D01*
X386636Y90550D01*
X386726Y90508D01*
X386814Y90462D01*
X386899Y90414D01*
X386983Y90361D01*
X387065Y90306D01*
X387144Y90247D01*
X387221Y90185D01*
X387296Y90121D01*
X387368Y90053D01*
X387437Y89982D01*
X387503Y89909D01*
X387567Y89833D01*
X387627Y89755D01*
X387684Y89674D01*
X387738Y89592D01*
X387788Y89507D01*
X387835Y89420D01*
X387879Y89331D01*
X387919Y89241D01*
X387956Y89149D01*
X387988Y89056D01*
X388017Y88962D01*
X388043Y88866D01*
X388064Y88770D01*
X388082Y88672D01*
X388095Y88575D01*
X388105Y88476D01*
X388111Y88378D01*
X388113Y88279D01*
X388112Y88279D02*
X388112Y85796D01*
X388113Y85796D02*
X388111Y85697D01*
X388105Y85599D01*
X388095Y85500D01*
X388082Y85403D01*
X388064Y85305D01*
X388043Y85209D01*
X388017Y85113D01*
X387988Y85019D01*
X387956Y84926D01*
X387919Y84834D01*
X387879Y84744D01*
X387835Y84655D01*
X387788Y84568D01*
X387738Y84483D01*
X387684Y84401D01*
X387627Y84320D01*
X387567Y84242D01*
X387503Y84166D01*
X387437Y84093D01*
X387368Y84022D01*
X387296Y83954D01*
X387221Y83890D01*
X387144Y83828D01*
X387065Y83769D01*
X386983Y83714D01*
X386899Y83661D01*
X386814Y83613D01*
X386726Y83567D01*
X386636Y83525D01*
X386545Y83487D01*
X386453Y83453D01*
X386359Y83422D01*
X386264Y83395D01*
X386168Y83371D01*
X386071Y83352D01*
X385974Y83336D01*
X385876Y83324D01*
X385777Y83316D01*
X385678Y83312D01*
X385580Y83312D01*
X385481Y83316D01*
X385382Y83324D01*
X385284Y83336D01*
X385187Y83352D01*
X385090Y83371D01*
X384994Y83395D01*
X384899Y83422D01*
X384805Y83453D01*
X384713Y83487D01*
X384622Y83525D01*
X384532Y83567D01*
X384444Y83613D01*
X384359Y83661D01*
X384275Y83714D01*
X384193Y83769D01*
X384114Y83828D01*
X384037Y83890D01*
X383962Y83954D01*
X383890Y84022D01*
X383821Y84093D01*
X383755Y84166D01*
X383691Y84242D01*
X383631Y84320D01*
X383574Y84401D01*
X383520Y84483D01*
X383470Y84568D01*
X383423Y84655D01*
X383379Y84744D01*
X383339Y84834D01*
X383302Y84926D01*
X383270Y85019D01*
X383241Y85113D01*
X383215Y85209D01*
X383194Y85305D01*
X383176Y85403D01*
X383163Y85500D01*
X383153Y85599D01*
X383147Y85697D01*
X383145Y85796D01*
X394930Y83312D02*
X397414Y83312D01*
X394930Y83312D02*
X394846Y83314D01*
X394763Y83319D01*
X394680Y83329D01*
X394597Y83342D01*
X394515Y83359D01*
X394434Y83379D01*
X394354Y83403D01*
X394275Y83431D01*
X394198Y83462D01*
X394122Y83496D01*
X394047Y83534D01*
X393974Y83576D01*
X393904Y83620D01*
X393835Y83668D01*
X393768Y83718D01*
X393704Y83772D01*
X393643Y83828D01*
X393583Y83888D01*
X393527Y83949D01*
X393473Y84013D01*
X393423Y84080D01*
X393375Y84149D01*
X393331Y84219D01*
X393289Y84292D01*
X393251Y84367D01*
X393217Y84443D01*
X393186Y84520D01*
X393158Y84599D01*
X393134Y84679D01*
X393114Y84760D01*
X393097Y84842D01*
X393084Y84925D01*
X393074Y85008D01*
X393069Y85091D01*
X393067Y85175D01*
X393068Y85175D02*
X393068Y88900D01*
X393067Y88900D02*
X393069Y88984D01*
X393075Y89067D01*
X393084Y89150D01*
X393097Y89233D01*
X393114Y89315D01*
X393134Y89396D01*
X393158Y89476D01*
X393186Y89555D01*
X393217Y89632D01*
X393251Y89708D01*
X393289Y89783D01*
X393331Y89856D01*
X393375Y89926D01*
X393423Y89995D01*
X393473Y90062D01*
X393527Y90126D01*
X393583Y90187D01*
X393643Y90247D01*
X393704Y90303D01*
X393768Y90357D01*
X393835Y90407D01*
X393904Y90455D01*
X393974Y90499D01*
X394047Y90541D01*
X394122Y90579D01*
X394198Y90613D01*
X394275Y90644D01*
X394354Y90672D01*
X394434Y90696D01*
X394515Y90716D01*
X394597Y90733D01*
X394680Y90746D01*
X394763Y90756D01*
X394846Y90761D01*
X394930Y90763D01*
X397414Y90763D01*
X403677Y83312D02*
X406781Y83312D01*
X403677Y83312D02*
X403593Y83314D01*
X403510Y83319D01*
X403427Y83329D01*
X403344Y83342D01*
X403262Y83359D01*
X403181Y83379D01*
X403101Y83403D01*
X403022Y83431D01*
X402945Y83462D01*
X402869Y83496D01*
X402794Y83534D01*
X402721Y83576D01*
X402651Y83620D01*
X402582Y83668D01*
X402515Y83718D01*
X402451Y83772D01*
X402390Y83828D01*
X402330Y83888D01*
X402274Y83949D01*
X402220Y84013D01*
X402170Y84080D01*
X402122Y84149D01*
X402078Y84219D01*
X402036Y84292D01*
X401998Y84367D01*
X401964Y84443D01*
X401933Y84520D01*
X401905Y84599D01*
X401881Y84679D01*
X401861Y84760D01*
X401844Y84842D01*
X401831Y84925D01*
X401821Y85008D01*
X401816Y85091D01*
X401814Y85175D01*
X401814Y88279D01*
X401816Y88378D01*
X401822Y88476D01*
X401832Y88575D01*
X401845Y88672D01*
X401863Y88770D01*
X401884Y88866D01*
X401910Y88962D01*
X401939Y89056D01*
X401971Y89149D01*
X402008Y89241D01*
X402048Y89331D01*
X402092Y89420D01*
X402139Y89507D01*
X402189Y89592D01*
X402243Y89674D01*
X402300Y89755D01*
X402360Y89833D01*
X402424Y89909D01*
X402490Y89982D01*
X402559Y90053D01*
X402631Y90121D01*
X402706Y90185D01*
X402783Y90247D01*
X402862Y90306D01*
X402944Y90361D01*
X403028Y90414D01*
X403113Y90462D01*
X403201Y90508D01*
X403291Y90550D01*
X403382Y90588D01*
X403474Y90622D01*
X403568Y90653D01*
X403663Y90680D01*
X403759Y90704D01*
X403856Y90723D01*
X403953Y90739D01*
X404051Y90751D01*
X404150Y90759D01*
X404249Y90763D01*
X404347Y90763D01*
X404446Y90759D01*
X404545Y90751D01*
X404643Y90739D01*
X404740Y90723D01*
X404837Y90704D01*
X404933Y90680D01*
X405028Y90653D01*
X405122Y90622D01*
X405214Y90588D01*
X405305Y90550D01*
X405395Y90508D01*
X405483Y90462D01*
X405568Y90414D01*
X405652Y90361D01*
X405734Y90306D01*
X405813Y90247D01*
X405890Y90185D01*
X405965Y90121D01*
X406037Y90053D01*
X406106Y89982D01*
X406172Y89909D01*
X406236Y89833D01*
X406296Y89755D01*
X406353Y89674D01*
X406407Y89592D01*
X406457Y89507D01*
X406504Y89420D01*
X406548Y89331D01*
X406588Y89241D01*
X406625Y89149D01*
X406657Y89056D01*
X406686Y88962D01*
X406712Y88866D01*
X406733Y88770D01*
X406751Y88672D01*
X406764Y88575D01*
X406774Y88476D01*
X406780Y88378D01*
X406782Y88279D01*
X406781Y88279D02*
X406781Y87037D01*
X401814Y87037D01*
X412270Y83312D02*
X412270Y94488D01*
X417238Y90763D02*
X412270Y87037D01*
X414444Y88590D02*
X417238Y83312D01*
X420608Y90763D02*
X424333Y90763D01*
X421849Y94488D02*
X421849Y85175D01*
X421851Y85091D01*
X421856Y85008D01*
X421866Y84925D01*
X421879Y84842D01*
X421896Y84760D01*
X421916Y84679D01*
X421940Y84599D01*
X421968Y84520D01*
X421999Y84443D01*
X422033Y84367D01*
X422071Y84292D01*
X422113Y84219D01*
X422157Y84149D01*
X422205Y84080D01*
X422255Y84013D01*
X422309Y83949D01*
X422365Y83888D01*
X422425Y83828D01*
X422486Y83772D01*
X422550Y83718D01*
X422617Y83668D01*
X422686Y83620D01*
X422756Y83576D01*
X422829Y83534D01*
X422904Y83496D01*
X422980Y83462D01*
X423057Y83431D01*
X423136Y83403D01*
X423216Y83379D01*
X423297Y83359D01*
X423379Y83342D01*
X423462Y83329D01*
X423545Y83319D01*
X423628Y83314D01*
X423712Y83312D01*
X424333Y83312D01*
X429599Y89521D02*
X432703Y89521D01*
X432703Y89520D02*
X432814Y89518D01*
X432924Y89512D01*
X433035Y89502D01*
X433145Y89488D01*
X433254Y89471D01*
X433363Y89449D01*
X433471Y89424D01*
X433577Y89394D01*
X433683Y89361D01*
X433788Y89324D01*
X433891Y89284D01*
X433992Y89239D01*
X434092Y89192D01*
X434191Y89140D01*
X434287Y89085D01*
X434381Y89027D01*
X434473Y88966D01*
X434563Y88901D01*
X434651Y88833D01*
X434736Y88762D01*
X434818Y88688D01*
X434898Y88611D01*
X434975Y88531D01*
X435049Y88449D01*
X435120Y88364D01*
X435188Y88276D01*
X435253Y88186D01*
X435314Y88094D01*
X435372Y88000D01*
X435427Y87904D01*
X435479Y87805D01*
X435526Y87705D01*
X435571Y87604D01*
X435611Y87501D01*
X435648Y87396D01*
X435681Y87290D01*
X435711Y87184D01*
X435736Y87076D01*
X435758Y86967D01*
X435775Y86858D01*
X435789Y86748D01*
X435799Y86637D01*
X435805Y86527D01*
X435807Y86416D01*
X435805Y86305D01*
X435799Y86195D01*
X435789Y86084D01*
X435775Y85974D01*
X435758Y85865D01*
X435736Y85756D01*
X435711Y85648D01*
X435681Y85542D01*
X435648Y85436D01*
X435611Y85331D01*
X435571Y85228D01*
X435526Y85127D01*
X435479Y85027D01*
X435427Y84928D01*
X435372Y84832D01*
X435314Y84738D01*
X435253Y84646D01*
X435188Y84556D01*
X435120Y84468D01*
X435049Y84383D01*
X434975Y84301D01*
X434898Y84221D01*
X434818Y84144D01*
X434736Y84070D01*
X434651Y83999D01*
X434563Y83931D01*
X434473Y83866D01*
X434381Y83805D01*
X434287Y83747D01*
X434191Y83692D01*
X434092Y83640D01*
X433992Y83593D01*
X433891Y83548D01*
X433788Y83508D01*
X433683Y83471D01*
X433577Y83438D01*
X433471Y83408D01*
X433363Y83383D01*
X433254Y83361D01*
X433145Y83344D01*
X433035Y83330D01*
X432924Y83320D01*
X432814Y83314D01*
X432703Y83312D01*
X429599Y83312D01*
X429599Y94488D01*
X432703Y94488D01*
X432802Y94486D01*
X432900Y94480D01*
X432999Y94470D01*
X433096Y94457D01*
X433194Y94439D01*
X433290Y94418D01*
X433386Y94392D01*
X433480Y94363D01*
X433573Y94331D01*
X433665Y94294D01*
X433755Y94254D01*
X433844Y94210D01*
X433931Y94163D01*
X434016Y94113D01*
X434098Y94059D01*
X434179Y94002D01*
X434257Y93942D01*
X434333Y93878D01*
X434406Y93812D01*
X434477Y93743D01*
X434545Y93671D01*
X434609Y93596D01*
X434671Y93519D01*
X434730Y93440D01*
X434785Y93358D01*
X434838Y93274D01*
X434886Y93189D01*
X434932Y93101D01*
X434974Y93011D01*
X435012Y92920D01*
X435046Y92828D01*
X435077Y92734D01*
X435104Y92639D01*
X435128Y92543D01*
X435147Y92446D01*
X435163Y92349D01*
X435175Y92251D01*
X435183Y92152D01*
X435187Y92053D01*
X435187Y91955D01*
X435183Y91856D01*
X435175Y91757D01*
X435163Y91659D01*
X435147Y91562D01*
X435128Y91465D01*
X435104Y91369D01*
X435077Y91274D01*
X435046Y91180D01*
X435012Y91088D01*
X434974Y90997D01*
X434932Y90907D01*
X434886Y90819D01*
X434838Y90734D01*
X434785Y90650D01*
X434730Y90568D01*
X434671Y90489D01*
X434609Y90412D01*
X434545Y90337D01*
X434477Y90265D01*
X434406Y90196D01*
X434333Y90130D01*
X434257Y90066D01*
X434179Y90006D01*
X434098Y89949D01*
X434016Y89895D01*
X433931Y89845D01*
X433844Y89798D01*
X433755Y89754D01*
X433665Y89714D01*
X433573Y89677D01*
X433480Y89645D01*
X433386Y89616D01*
X433290Y89590D01*
X433194Y89569D01*
X433096Y89551D01*
X432999Y89538D01*
X432900Y89528D01*
X432802Y89522D01*
X432703Y89520D01*
X442158Y83312D02*
X445262Y83312D01*
X442158Y83312D02*
X442074Y83314D01*
X441991Y83319D01*
X441908Y83329D01*
X441825Y83342D01*
X441743Y83359D01*
X441662Y83379D01*
X441582Y83403D01*
X441503Y83431D01*
X441426Y83462D01*
X441350Y83496D01*
X441275Y83534D01*
X441202Y83576D01*
X441132Y83620D01*
X441063Y83668D01*
X440996Y83718D01*
X440932Y83772D01*
X440871Y83828D01*
X440811Y83888D01*
X440755Y83949D01*
X440701Y84013D01*
X440651Y84080D01*
X440603Y84149D01*
X440559Y84219D01*
X440517Y84292D01*
X440479Y84367D01*
X440445Y84443D01*
X440414Y84520D01*
X440386Y84599D01*
X440362Y84679D01*
X440342Y84760D01*
X440325Y84842D01*
X440312Y84925D01*
X440302Y85008D01*
X440297Y85091D01*
X440295Y85175D01*
X440295Y88279D01*
X440297Y88378D01*
X440303Y88476D01*
X440313Y88575D01*
X440326Y88672D01*
X440344Y88770D01*
X440365Y88866D01*
X440391Y88962D01*
X440420Y89056D01*
X440452Y89149D01*
X440489Y89241D01*
X440529Y89331D01*
X440573Y89420D01*
X440620Y89507D01*
X440670Y89592D01*
X440724Y89674D01*
X440781Y89755D01*
X440841Y89833D01*
X440905Y89909D01*
X440971Y89982D01*
X441040Y90053D01*
X441112Y90121D01*
X441187Y90185D01*
X441264Y90247D01*
X441343Y90306D01*
X441425Y90361D01*
X441509Y90414D01*
X441594Y90462D01*
X441682Y90508D01*
X441772Y90550D01*
X441863Y90588D01*
X441955Y90622D01*
X442049Y90653D01*
X442144Y90680D01*
X442240Y90704D01*
X442337Y90723D01*
X442434Y90739D01*
X442532Y90751D01*
X442631Y90759D01*
X442730Y90763D01*
X442828Y90763D01*
X442927Y90759D01*
X443026Y90751D01*
X443124Y90739D01*
X443221Y90723D01*
X443318Y90704D01*
X443414Y90680D01*
X443509Y90653D01*
X443603Y90622D01*
X443695Y90588D01*
X443786Y90550D01*
X443876Y90508D01*
X443964Y90462D01*
X444049Y90414D01*
X444133Y90361D01*
X444215Y90306D01*
X444294Y90247D01*
X444371Y90185D01*
X444446Y90121D01*
X444518Y90053D01*
X444587Y89982D01*
X444653Y89909D01*
X444717Y89833D01*
X444777Y89755D01*
X444834Y89674D01*
X444888Y89592D01*
X444938Y89507D01*
X444985Y89420D01*
X445029Y89331D01*
X445069Y89241D01*
X445106Y89149D01*
X445138Y89056D01*
X445167Y88962D01*
X445193Y88866D01*
X445214Y88770D01*
X445232Y88672D01*
X445245Y88575D01*
X445255Y88476D01*
X445261Y88378D01*
X445263Y88279D01*
X445262Y88279D02*
X445262Y87037D01*
X440295Y87037D01*
X452300Y87658D02*
X455094Y87658D01*
X452300Y87658D02*
X452208Y87656D01*
X452116Y87650D01*
X452024Y87640D01*
X451933Y87627D01*
X451842Y87609D01*
X451752Y87588D01*
X451664Y87563D01*
X451576Y87534D01*
X451490Y87501D01*
X451405Y87465D01*
X451322Y87425D01*
X451240Y87382D01*
X451161Y87335D01*
X451083Y87285D01*
X451008Y87232D01*
X450935Y87176D01*
X450864Y87116D01*
X450796Y87054D01*
X450731Y86989D01*
X450669Y86921D01*
X450609Y86850D01*
X450553Y86777D01*
X450500Y86702D01*
X450450Y86624D01*
X450403Y86545D01*
X450360Y86463D01*
X450320Y86380D01*
X450284Y86295D01*
X450251Y86209D01*
X450222Y86121D01*
X450197Y86033D01*
X450176Y85943D01*
X450158Y85852D01*
X450145Y85761D01*
X450135Y85669D01*
X450129Y85577D01*
X450127Y85485D01*
X450129Y85393D01*
X450135Y85301D01*
X450145Y85209D01*
X450158Y85118D01*
X450176Y85027D01*
X450197Y84937D01*
X450222Y84849D01*
X450251Y84761D01*
X450284Y84675D01*
X450320Y84590D01*
X450360Y84507D01*
X450403Y84425D01*
X450450Y84346D01*
X450500Y84268D01*
X450553Y84193D01*
X450609Y84120D01*
X450669Y84049D01*
X450731Y83981D01*
X450796Y83916D01*
X450864Y83854D01*
X450935Y83794D01*
X451008Y83738D01*
X451083Y83685D01*
X451161Y83635D01*
X451240Y83588D01*
X451322Y83545D01*
X451405Y83505D01*
X451490Y83469D01*
X451576Y83436D01*
X451664Y83407D01*
X451752Y83382D01*
X451842Y83361D01*
X451933Y83343D01*
X452024Y83330D01*
X452116Y83320D01*
X452208Y83314D01*
X452300Y83312D01*
X455094Y83312D01*
X455094Y88900D01*
X455095Y88900D02*
X455093Y88984D01*
X455088Y89067D01*
X455078Y89150D01*
X455065Y89233D01*
X455048Y89315D01*
X455028Y89396D01*
X455004Y89476D01*
X454976Y89555D01*
X454945Y89632D01*
X454911Y89708D01*
X454873Y89783D01*
X454831Y89856D01*
X454787Y89926D01*
X454739Y89995D01*
X454689Y90062D01*
X454635Y90126D01*
X454579Y90187D01*
X454519Y90247D01*
X454458Y90303D01*
X454394Y90357D01*
X454327Y90407D01*
X454258Y90455D01*
X454188Y90499D01*
X454115Y90541D01*
X454040Y90579D01*
X453964Y90613D01*
X453887Y90644D01*
X453808Y90672D01*
X453728Y90696D01*
X453647Y90716D01*
X453565Y90733D01*
X453482Y90746D01*
X453399Y90756D01*
X453316Y90761D01*
X453232Y90763D01*
X450748Y90763D01*
X462277Y83312D02*
X465381Y83312D01*
X462277Y83312D02*
X462193Y83314D01*
X462110Y83319D01*
X462027Y83329D01*
X461944Y83342D01*
X461862Y83359D01*
X461781Y83379D01*
X461701Y83403D01*
X461622Y83431D01*
X461545Y83462D01*
X461469Y83496D01*
X461394Y83534D01*
X461321Y83576D01*
X461251Y83620D01*
X461182Y83668D01*
X461115Y83718D01*
X461051Y83772D01*
X460990Y83828D01*
X460930Y83888D01*
X460874Y83949D01*
X460820Y84013D01*
X460770Y84080D01*
X460722Y84149D01*
X460678Y84219D01*
X460636Y84292D01*
X460598Y84367D01*
X460564Y84443D01*
X460533Y84520D01*
X460505Y84599D01*
X460481Y84679D01*
X460461Y84760D01*
X460444Y84842D01*
X460431Y84925D01*
X460421Y85008D01*
X460416Y85091D01*
X460414Y85175D01*
X460414Y88900D01*
X460416Y88984D01*
X460422Y89067D01*
X460431Y89150D01*
X460444Y89233D01*
X460461Y89315D01*
X460481Y89396D01*
X460505Y89476D01*
X460533Y89555D01*
X460564Y89632D01*
X460598Y89708D01*
X460636Y89783D01*
X460678Y89856D01*
X460722Y89926D01*
X460770Y89995D01*
X460820Y90062D01*
X460874Y90126D01*
X460930Y90187D01*
X460990Y90247D01*
X461051Y90303D01*
X461115Y90357D01*
X461182Y90407D01*
X461251Y90455D01*
X461321Y90499D01*
X461394Y90541D01*
X461469Y90579D01*
X461545Y90613D01*
X461622Y90644D01*
X461701Y90672D01*
X461781Y90696D01*
X461862Y90716D01*
X461944Y90733D01*
X462027Y90746D01*
X462110Y90756D01*
X462193Y90761D01*
X462277Y90763D01*
X465381Y90763D01*
X465381Y81449D01*
X465382Y81449D02*
X465380Y81363D01*
X465374Y81277D01*
X465364Y81192D01*
X465350Y81107D01*
X465333Y81022D01*
X465311Y80939D01*
X465285Y80857D01*
X465256Y80776D01*
X465223Y80697D01*
X465187Y80619D01*
X465147Y80542D01*
X465103Y80468D01*
X465056Y80396D01*
X465006Y80326D01*
X464952Y80259D01*
X464896Y80194D01*
X464836Y80132D01*
X464774Y80072D01*
X464709Y80016D01*
X464642Y79962D01*
X464572Y79912D01*
X464500Y79865D01*
X464426Y79821D01*
X464349Y79781D01*
X464272Y79745D01*
X464192Y79712D01*
X464111Y79683D01*
X464029Y79657D01*
X463946Y79635D01*
X463861Y79618D01*
X463776Y79604D01*
X463691Y79594D01*
X463605Y79588D01*
X463519Y79586D01*
X463519Y79587D02*
X461035Y79587D01*
X470867Y85175D02*
X470867Y94488D01*
X470866Y85175D02*
X470868Y85091D01*
X470873Y85008D01*
X470883Y84925D01*
X470896Y84842D01*
X470913Y84760D01*
X470933Y84679D01*
X470957Y84599D01*
X470985Y84520D01*
X471016Y84443D01*
X471050Y84367D01*
X471088Y84292D01*
X471130Y84219D01*
X471174Y84149D01*
X471222Y84080D01*
X471272Y84013D01*
X471326Y83949D01*
X471382Y83888D01*
X471442Y83828D01*
X471503Y83772D01*
X471567Y83718D01*
X471634Y83668D01*
X471703Y83620D01*
X471773Y83576D01*
X471846Y83534D01*
X471921Y83496D01*
X471997Y83462D01*
X472074Y83431D01*
X472153Y83403D01*
X472233Y83379D01*
X472314Y83359D01*
X472396Y83342D01*
X472479Y83329D01*
X472562Y83319D01*
X472645Y83314D01*
X472729Y83312D01*
X478734Y83312D02*
X481838Y83312D01*
X478734Y83312D02*
X478650Y83314D01*
X478567Y83319D01*
X478484Y83329D01*
X478401Y83342D01*
X478319Y83359D01*
X478238Y83379D01*
X478158Y83403D01*
X478079Y83431D01*
X478002Y83462D01*
X477926Y83496D01*
X477851Y83534D01*
X477778Y83576D01*
X477708Y83620D01*
X477639Y83668D01*
X477572Y83718D01*
X477508Y83772D01*
X477447Y83828D01*
X477387Y83888D01*
X477331Y83949D01*
X477277Y84013D01*
X477227Y84080D01*
X477179Y84149D01*
X477135Y84219D01*
X477093Y84292D01*
X477055Y84367D01*
X477021Y84443D01*
X476990Y84520D01*
X476962Y84599D01*
X476938Y84679D01*
X476918Y84760D01*
X476901Y84842D01*
X476888Y84925D01*
X476878Y85008D01*
X476873Y85091D01*
X476871Y85175D01*
X476871Y88279D01*
X476870Y88279D02*
X476872Y88378D01*
X476878Y88476D01*
X476888Y88575D01*
X476901Y88672D01*
X476919Y88770D01*
X476940Y88866D01*
X476966Y88962D01*
X476995Y89056D01*
X477027Y89149D01*
X477064Y89241D01*
X477104Y89331D01*
X477148Y89420D01*
X477195Y89507D01*
X477245Y89592D01*
X477299Y89674D01*
X477356Y89755D01*
X477416Y89833D01*
X477480Y89909D01*
X477546Y89982D01*
X477615Y90053D01*
X477687Y90121D01*
X477762Y90185D01*
X477839Y90247D01*
X477918Y90306D01*
X478000Y90361D01*
X478084Y90414D01*
X478169Y90462D01*
X478257Y90508D01*
X478347Y90550D01*
X478438Y90588D01*
X478530Y90622D01*
X478624Y90653D01*
X478719Y90680D01*
X478815Y90704D01*
X478912Y90723D01*
X479009Y90739D01*
X479107Y90751D01*
X479206Y90759D01*
X479305Y90763D01*
X479403Y90763D01*
X479502Y90759D01*
X479601Y90751D01*
X479699Y90739D01*
X479796Y90723D01*
X479893Y90704D01*
X479989Y90680D01*
X480084Y90653D01*
X480178Y90622D01*
X480270Y90588D01*
X480361Y90550D01*
X480451Y90508D01*
X480539Y90462D01*
X480624Y90414D01*
X480708Y90361D01*
X480790Y90306D01*
X480869Y90247D01*
X480946Y90185D01*
X481021Y90121D01*
X481093Y90053D01*
X481162Y89982D01*
X481228Y89909D01*
X481292Y89833D01*
X481352Y89755D01*
X481409Y89674D01*
X481463Y89592D01*
X481513Y89507D01*
X481560Y89420D01*
X481604Y89331D01*
X481644Y89241D01*
X481681Y89149D01*
X481713Y89056D01*
X481742Y88962D01*
X481768Y88866D01*
X481789Y88770D01*
X481807Y88672D01*
X481820Y88575D01*
X481830Y88476D01*
X481836Y88378D01*
X481838Y88279D01*
X481838Y87037D01*
X476871Y87037D01*
X690287Y128051D02*
X697738Y128051D01*
X690287Y128051D02*
X690287Y133639D01*
X690289Y133723D01*
X690295Y133806D01*
X690304Y133889D01*
X690317Y133972D01*
X690334Y134054D01*
X690354Y134135D01*
X690378Y134215D01*
X690406Y134294D01*
X690437Y134371D01*
X690471Y134447D01*
X690509Y134522D01*
X690551Y134595D01*
X690595Y134665D01*
X690643Y134734D01*
X690693Y134801D01*
X690747Y134865D01*
X690803Y134926D01*
X690863Y134986D01*
X690924Y135042D01*
X690988Y135096D01*
X691055Y135146D01*
X691124Y135194D01*
X691194Y135238D01*
X691267Y135280D01*
X691342Y135318D01*
X691418Y135352D01*
X691495Y135383D01*
X691574Y135411D01*
X691654Y135435D01*
X691735Y135455D01*
X691817Y135472D01*
X691900Y135485D01*
X691983Y135495D01*
X692066Y135500D01*
X692150Y135502D01*
X697738Y135502D01*
X697738Y131777D02*
X690287Y131777D01*
X690287Y140921D02*
X697738Y140921D01*
X687183Y140610D02*
X686562Y140610D01*
X686562Y141231D01*
X687183Y141231D01*
X687183Y140610D01*
X697738Y147555D02*
X697738Y150039D01*
X697738Y147555D02*
X697736Y147469D01*
X697730Y147383D01*
X697720Y147298D01*
X697706Y147213D01*
X697689Y147128D01*
X697667Y147045D01*
X697641Y146963D01*
X697612Y146882D01*
X697579Y146803D01*
X697543Y146725D01*
X697503Y146648D01*
X697459Y146574D01*
X697412Y146502D01*
X697362Y146432D01*
X697308Y146365D01*
X697252Y146300D01*
X697192Y146238D01*
X697130Y146178D01*
X697065Y146122D01*
X696998Y146068D01*
X696928Y146018D01*
X696856Y145971D01*
X696782Y145927D01*
X696705Y145887D01*
X696628Y145851D01*
X696548Y145818D01*
X696467Y145789D01*
X696385Y145763D01*
X696302Y145741D01*
X696217Y145724D01*
X696132Y145710D01*
X696047Y145700D01*
X695961Y145694D01*
X695875Y145692D01*
X695875Y145693D02*
X692150Y145693D01*
X692150Y145692D02*
X692066Y145694D01*
X691983Y145699D01*
X691900Y145709D01*
X691817Y145722D01*
X691735Y145739D01*
X691654Y145759D01*
X691574Y145783D01*
X691495Y145811D01*
X691418Y145842D01*
X691342Y145876D01*
X691267Y145914D01*
X691194Y145956D01*
X691124Y146000D01*
X691055Y146048D01*
X690988Y146098D01*
X690924Y146152D01*
X690863Y146208D01*
X690803Y146268D01*
X690747Y146329D01*
X690693Y146393D01*
X690643Y146460D01*
X690595Y146529D01*
X690551Y146599D01*
X690509Y146672D01*
X690471Y146747D01*
X690437Y146823D01*
X690406Y146900D01*
X690378Y146979D01*
X690354Y147059D01*
X690334Y147140D01*
X690317Y147222D01*
X690304Y147305D01*
X690294Y147388D01*
X690289Y147471D01*
X690287Y147555D01*
X690287Y150039D01*
X690287Y154903D02*
X697738Y154903D01*
X690287Y154903D02*
X690287Y158628D01*
X691529Y158628D01*
X692771Y162440D02*
X695254Y162440D01*
X692771Y162440D02*
X692672Y162442D01*
X692574Y162448D01*
X692475Y162458D01*
X692378Y162471D01*
X692280Y162489D01*
X692184Y162510D01*
X692088Y162536D01*
X691994Y162565D01*
X691901Y162597D01*
X691809Y162634D01*
X691719Y162674D01*
X691630Y162718D01*
X691543Y162765D01*
X691458Y162815D01*
X691376Y162869D01*
X691295Y162926D01*
X691217Y162986D01*
X691141Y163050D01*
X691068Y163116D01*
X690997Y163185D01*
X690929Y163257D01*
X690865Y163332D01*
X690803Y163409D01*
X690744Y163488D01*
X690689Y163570D01*
X690636Y163654D01*
X690588Y163739D01*
X690542Y163827D01*
X690500Y163917D01*
X690462Y164008D01*
X690428Y164100D01*
X690397Y164194D01*
X690370Y164289D01*
X690346Y164385D01*
X690327Y164482D01*
X690311Y164579D01*
X690299Y164677D01*
X690291Y164776D01*
X690287Y164875D01*
X690287Y164973D01*
X690291Y165072D01*
X690299Y165171D01*
X690311Y165269D01*
X690327Y165366D01*
X690346Y165463D01*
X690370Y165559D01*
X690397Y165654D01*
X690428Y165748D01*
X690462Y165840D01*
X690500Y165931D01*
X690542Y166021D01*
X690588Y166109D01*
X690636Y166194D01*
X690689Y166278D01*
X690744Y166360D01*
X690803Y166439D01*
X690865Y166516D01*
X690929Y166591D01*
X690997Y166663D01*
X691068Y166732D01*
X691141Y166798D01*
X691217Y166862D01*
X691295Y166922D01*
X691376Y166979D01*
X691458Y167033D01*
X691543Y167083D01*
X691630Y167130D01*
X691719Y167174D01*
X691809Y167214D01*
X691901Y167251D01*
X691994Y167283D01*
X692088Y167312D01*
X692184Y167338D01*
X692280Y167359D01*
X692378Y167377D01*
X692475Y167390D01*
X692574Y167400D01*
X692672Y167406D01*
X692771Y167408D01*
X692771Y167407D02*
X695254Y167407D01*
X695254Y167408D02*
X695353Y167406D01*
X695451Y167400D01*
X695550Y167390D01*
X695647Y167377D01*
X695745Y167359D01*
X695841Y167338D01*
X695937Y167312D01*
X696031Y167283D01*
X696124Y167251D01*
X696216Y167214D01*
X696306Y167174D01*
X696395Y167130D01*
X696482Y167083D01*
X696567Y167033D01*
X696649Y166979D01*
X696730Y166922D01*
X696808Y166862D01*
X696884Y166798D01*
X696957Y166732D01*
X697028Y166663D01*
X697096Y166591D01*
X697160Y166516D01*
X697222Y166439D01*
X697281Y166360D01*
X697336Y166278D01*
X697389Y166194D01*
X697437Y166109D01*
X697483Y166021D01*
X697525Y165931D01*
X697563Y165840D01*
X697597Y165748D01*
X697628Y165654D01*
X697655Y165559D01*
X697679Y165463D01*
X697698Y165366D01*
X697714Y165269D01*
X697726Y165171D01*
X697734Y165072D01*
X697738Y164973D01*
X697738Y164875D01*
X697734Y164776D01*
X697726Y164677D01*
X697714Y164579D01*
X697698Y164482D01*
X697679Y164385D01*
X697655Y164289D01*
X697628Y164194D01*
X697597Y164100D01*
X697563Y164008D01*
X697525Y163917D01*
X697483Y163827D01*
X697437Y163739D01*
X697389Y163654D01*
X697336Y163570D01*
X697281Y163488D01*
X697222Y163409D01*
X697160Y163332D01*
X697096Y163257D01*
X697028Y163185D01*
X696957Y163116D01*
X696884Y163050D01*
X696808Y162986D01*
X696730Y162926D01*
X696649Y162869D01*
X696567Y162815D01*
X696482Y162765D01*
X696395Y162718D01*
X696306Y162674D01*
X696216Y162634D01*
X696124Y162597D01*
X696031Y162565D01*
X695937Y162536D01*
X695841Y162510D01*
X695745Y162489D01*
X695647Y162471D01*
X695550Y162458D01*
X695451Y162448D01*
X695353Y162442D01*
X695254Y162440D01*
X694634Y172868D02*
X686562Y172868D01*
X694634Y172869D02*
X694745Y172871D01*
X694855Y172877D01*
X694966Y172887D01*
X695076Y172901D01*
X695185Y172918D01*
X695294Y172940D01*
X695402Y172965D01*
X695508Y172995D01*
X695614Y173028D01*
X695719Y173065D01*
X695822Y173105D01*
X695923Y173150D01*
X696023Y173197D01*
X696122Y173249D01*
X696218Y173304D01*
X696312Y173362D01*
X696404Y173423D01*
X696494Y173488D01*
X696582Y173556D01*
X696667Y173627D01*
X696749Y173701D01*
X696829Y173778D01*
X696906Y173858D01*
X696980Y173940D01*
X697051Y174025D01*
X697119Y174113D01*
X697184Y174203D01*
X697245Y174295D01*
X697303Y174389D01*
X697358Y174485D01*
X697410Y174584D01*
X697457Y174684D01*
X697502Y174785D01*
X697542Y174888D01*
X697579Y174993D01*
X697612Y175099D01*
X697642Y175205D01*
X697667Y175313D01*
X697689Y175422D01*
X697706Y175531D01*
X697720Y175641D01*
X697730Y175752D01*
X697736Y175862D01*
X697738Y175973D01*
X697736Y176084D01*
X697730Y176194D01*
X697720Y176305D01*
X697706Y176415D01*
X697689Y176524D01*
X697667Y176633D01*
X697642Y176741D01*
X697612Y176847D01*
X697579Y176953D01*
X697542Y177058D01*
X697502Y177161D01*
X697457Y177262D01*
X697410Y177362D01*
X697358Y177461D01*
X697303Y177557D01*
X697245Y177651D01*
X697184Y177743D01*
X697119Y177833D01*
X697051Y177921D01*
X696980Y178006D01*
X696906Y178088D01*
X696829Y178168D01*
X696749Y178245D01*
X696667Y178319D01*
X696582Y178390D01*
X696494Y178458D01*
X696404Y178523D01*
X696312Y178584D01*
X696218Y178642D01*
X696122Y178697D01*
X696023Y178749D01*
X695923Y178796D01*
X695822Y178841D01*
X695719Y178881D01*
X695614Y178918D01*
X695508Y178951D01*
X695402Y178981D01*
X695294Y179006D01*
X695185Y179028D01*
X695076Y179045D01*
X694966Y179059D01*
X694855Y179069D01*
X694745Y179075D01*
X694634Y179077D01*
X686562Y179077D01*
X697738Y188023D02*
X697736Y188120D01*
X697730Y188218D01*
X697721Y188315D01*
X697707Y188412D01*
X697690Y188508D01*
X697669Y188603D01*
X697645Y188697D01*
X697616Y188791D01*
X697584Y188883D01*
X697549Y188974D01*
X697510Y189063D01*
X697467Y189151D01*
X697421Y189237D01*
X697372Y189321D01*
X697319Y189403D01*
X697264Y189483D01*
X697205Y189561D01*
X697143Y189636D01*
X697078Y189709D01*
X697010Y189779D01*
X696940Y189847D01*
X696867Y189912D01*
X696792Y189974D01*
X696714Y190033D01*
X696634Y190088D01*
X696552Y190141D01*
X696468Y190190D01*
X696382Y190236D01*
X696294Y190279D01*
X696205Y190318D01*
X696114Y190353D01*
X696022Y190385D01*
X695928Y190414D01*
X695834Y190438D01*
X695739Y190459D01*
X695643Y190476D01*
X695546Y190490D01*
X695449Y190499D01*
X695352Y190505D01*
X695254Y190507D01*
X697738Y188024D02*
X697736Y187881D01*
X697730Y187738D01*
X697721Y187596D01*
X697707Y187454D01*
X697689Y187312D01*
X697668Y187171D01*
X697643Y187030D01*
X697614Y186890D01*
X697581Y186751D01*
X697545Y186613D01*
X697504Y186476D01*
X697460Y186340D01*
X697413Y186205D01*
X697361Y186072D01*
X697306Y185940D01*
X697248Y185810D01*
X697186Y185681D01*
X697120Y185554D01*
X697051Y185429D01*
X696979Y185306D01*
X696903Y185185D01*
X696825Y185066D01*
X696742Y184949D01*
X696657Y184834D01*
X696569Y184722D01*
X696477Y184612D01*
X696383Y184505D01*
X696286Y184400D01*
X696186Y184298D01*
X689046Y184608D02*
X688948Y184610D01*
X688851Y184616D01*
X688754Y184625D01*
X688657Y184639D01*
X688561Y184656D01*
X688466Y184677D01*
X688372Y184701D01*
X688278Y184730D01*
X688186Y184762D01*
X688095Y184797D01*
X688006Y184836D01*
X687918Y184879D01*
X687832Y184925D01*
X687748Y184974D01*
X687666Y185027D01*
X687586Y185082D01*
X687508Y185141D01*
X687433Y185203D01*
X687360Y185268D01*
X687290Y185336D01*
X687222Y185406D01*
X687157Y185479D01*
X687095Y185554D01*
X687036Y185632D01*
X686981Y185712D01*
X686928Y185794D01*
X686879Y185878D01*
X686833Y185964D01*
X686790Y186052D01*
X686751Y186141D01*
X686716Y186232D01*
X686684Y186324D01*
X686655Y186418D01*
X686631Y186512D01*
X686610Y186607D01*
X686593Y186703D01*
X686579Y186800D01*
X686570Y186897D01*
X686564Y186994D01*
X686562Y187092D01*
X686564Y187222D01*
X686569Y187352D01*
X686578Y187482D01*
X686591Y187612D01*
X686607Y187741D01*
X686627Y187870D01*
X686651Y187998D01*
X686678Y188126D01*
X686709Y188252D01*
X686743Y188378D01*
X686781Y188503D01*
X686822Y188626D01*
X686867Y188749D01*
X686915Y188870D01*
X686966Y188990D01*
X687021Y189108D01*
X687079Y189224D01*
X687140Y189339D01*
X687205Y189453D01*
X687272Y189564D01*
X687343Y189673D01*
X687417Y189781D01*
X687493Y189886D01*
X691219Y185851D02*
X691168Y185768D01*
X691114Y185687D01*
X691057Y185609D01*
X690997Y185533D01*
X690934Y185459D01*
X690868Y185388D01*
X690800Y185319D01*
X690729Y185253D01*
X690656Y185189D01*
X690580Y185129D01*
X690502Y185072D01*
X690421Y185017D01*
X690339Y184966D01*
X690255Y184918D01*
X690169Y184873D01*
X690081Y184831D01*
X689992Y184793D01*
X689902Y184759D01*
X689810Y184727D01*
X689717Y184700D01*
X689623Y184676D01*
X689528Y184655D01*
X689432Y184639D01*
X689336Y184626D01*
X689240Y184616D01*
X689143Y184611D01*
X689046Y184609D01*
X693081Y189265D02*
X693132Y189348D01*
X693186Y189429D01*
X693243Y189507D01*
X693303Y189583D01*
X693366Y189657D01*
X693432Y189728D01*
X693500Y189797D01*
X693571Y189863D01*
X693644Y189927D01*
X693720Y189987D01*
X693798Y190044D01*
X693879Y190099D01*
X693961Y190150D01*
X694045Y190198D01*
X694131Y190243D01*
X694219Y190285D01*
X694308Y190323D01*
X694398Y190357D01*
X694490Y190389D01*
X694583Y190416D01*
X694677Y190440D01*
X694772Y190461D01*
X694868Y190477D01*
X694964Y190490D01*
X695060Y190500D01*
X695157Y190505D01*
X695254Y190507D01*
X693081Y189265D02*
X691219Y185850D01*
X691529Y195940D02*
X691529Y199044D01*
X691530Y199044D02*
X691532Y199155D01*
X691538Y199265D01*
X691548Y199376D01*
X691562Y199486D01*
X691579Y199595D01*
X691601Y199704D01*
X691626Y199812D01*
X691656Y199918D01*
X691689Y200024D01*
X691726Y200129D01*
X691766Y200232D01*
X691811Y200333D01*
X691858Y200433D01*
X691910Y200532D01*
X691965Y200628D01*
X692023Y200722D01*
X692084Y200814D01*
X692149Y200904D01*
X692217Y200992D01*
X692288Y201077D01*
X692362Y201159D01*
X692439Y201239D01*
X692519Y201316D01*
X692601Y201390D01*
X692686Y201461D01*
X692774Y201529D01*
X692864Y201594D01*
X692956Y201655D01*
X693050Y201713D01*
X693146Y201768D01*
X693245Y201820D01*
X693345Y201867D01*
X693446Y201912D01*
X693549Y201952D01*
X693654Y201989D01*
X693760Y202022D01*
X693866Y202052D01*
X693974Y202077D01*
X694083Y202099D01*
X694192Y202116D01*
X694302Y202130D01*
X694413Y202140D01*
X694523Y202146D01*
X694634Y202148D01*
X694745Y202146D01*
X694855Y202140D01*
X694966Y202130D01*
X695076Y202116D01*
X695185Y202099D01*
X695294Y202077D01*
X695402Y202052D01*
X695508Y202022D01*
X695614Y201989D01*
X695719Y201952D01*
X695822Y201912D01*
X695923Y201867D01*
X696023Y201820D01*
X696122Y201768D01*
X696218Y201713D01*
X696312Y201655D01*
X696404Y201594D01*
X696494Y201529D01*
X696582Y201461D01*
X696667Y201390D01*
X696749Y201316D01*
X696829Y201239D01*
X696906Y201159D01*
X696980Y201077D01*
X697051Y200992D01*
X697119Y200904D01*
X697184Y200814D01*
X697245Y200722D01*
X697303Y200628D01*
X697358Y200532D01*
X697410Y200433D01*
X697457Y200333D01*
X697502Y200232D01*
X697542Y200129D01*
X697579Y200024D01*
X697612Y199918D01*
X697642Y199812D01*
X697667Y199704D01*
X697689Y199595D01*
X697706Y199486D01*
X697720Y199376D01*
X697730Y199265D01*
X697736Y199155D01*
X697738Y199044D01*
X697738Y195940D01*
X686562Y195940D01*
X686562Y199044D01*
X686564Y199143D01*
X686570Y199241D01*
X686580Y199340D01*
X686593Y199437D01*
X686611Y199535D01*
X686632Y199631D01*
X686658Y199727D01*
X686687Y199821D01*
X686719Y199914D01*
X686756Y200006D01*
X686796Y200096D01*
X686840Y200185D01*
X686887Y200272D01*
X686937Y200357D01*
X686991Y200439D01*
X687048Y200520D01*
X687108Y200598D01*
X687172Y200674D01*
X687238Y200747D01*
X687307Y200818D01*
X687379Y200886D01*
X687454Y200950D01*
X687531Y201012D01*
X687610Y201071D01*
X687692Y201126D01*
X687776Y201179D01*
X687861Y201227D01*
X687949Y201273D01*
X688039Y201315D01*
X688130Y201353D01*
X688222Y201387D01*
X688316Y201418D01*
X688411Y201445D01*
X688507Y201469D01*
X688604Y201488D01*
X688701Y201504D01*
X688799Y201516D01*
X688898Y201524D01*
X688997Y201528D01*
X689095Y201528D01*
X689194Y201524D01*
X689293Y201516D01*
X689391Y201504D01*
X689488Y201488D01*
X689585Y201469D01*
X689681Y201445D01*
X689776Y201418D01*
X689870Y201387D01*
X689962Y201353D01*
X690053Y201315D01*
X690143Y201273D01*
X690231Y201227D01*
X690316Y201179D01*
X690400Y201126D01*
X690482Y201071D01*
X690561Y201012D01*
X690638Y200950D01*
X690713Y200886D01*
X690785Y200818D01*
X690854Y200747D01*
X690920Y200674D01*
X690984Y200598D01*
X691044Y200520D01*
X691101Y200439D01*
X691155Y200357D01*
X691205Y200272D01*
X691252Y200185D01*
X691296Y200096D01*
X691336Y200006D01*
X691373Y199914D01*
X691405Y199821D01*
X691434Y199727D01*
X691460Y199631D01*
X691481Y199535D01*
X691499Y199437D01*
X691512Y199340D01*
X691522Y199241D01*
X691528Y199143D01*
X691530Y199044D01*
X215138Y146953D02*
X207687Y146953D01*
X207687Y152541D01*
X207689Y152625D01*
X207695Y152708D01*
X207704Y152791D01*
X207717Y152874D01*
X207734Y152956D01*
X207754Y153037D01*
X207778Y153117D01*
X207806Y153196D01*
X207837Y153273D01*
X207871Y153349D01*
X207909Y153424D01*
X207951Y153497D01*
X207995Y153567D01*
X208043Y153636D01*
X208093Y153703D01*
X208147Y153767D01*
X208203Y153828D01*
X208263Y153888D01*
X208324Y153944D01*
X208388Y153998D01*
X208455Y154048D01*
X208524Y154096D01*
X208594Y154140D01*
X208667Y154182D01*
X208742Y154220D01*
X208818Y154254D01*
X208895Y154285D01*
X208974Y154313D01*
X209054Y154337D01*
X209135Y154357D01*
X209217Y154374D01*
X209300Y154387D01*
X209383Y154397D01*
X209466Y154402D01*
X209550Y154404D01*
X215138Y154404D01*
X215138Y150678D02*
X207687Y150678D01*
X207687Y159822D02*
X215138Y159822D01*
X204583Y159512D02*
X203962Y159512D01*
X203962Y160133D01*
X204583Y160133D01*
X204583Y159512D01*
X215138Y166457D02*
X215138Y168941D01*
X215138Y166457D02*
X215136Y166371D01*
X215130Y166285D01*
X215120Y166200D01*
X215106Y166115D01*
X215089Y166030D01*
X215067Y165947D01*
X215041Y165865D01*
X215012Y165784D01*
X214979Y165705D01*
X214943Y165627D01*
X214903Y165550D01*
X214859Y165476D01*
X214812Y165404D01*
X214762Y165334D01*
X214708Y165267D01*
X214652Y165202D01*
X214592Y165140D01*
X214530Y165080D01*
X214465Y165024D01*
X214398Y164970D01*
X214328Y164920D01*
X214256Y164873D01*
X214182Y164829D01*
X214105Y164789D01*
X214028Y164753D01*
X213948Y164720D01*
X213867Y164691D01*
X213785Y164665D01*
X213702Y164643D01*
X213617Y164626D01*
X213532Y164612D01*
X213447Y164602D01*
X213361Y164596D01*
X213275Y164594D01*
X213275Y164595D02*
X209550Y164595D01*
X209550Y164594D02*
X209466Y164596D01*
X209383Y164601D01*
X209300Y164611D01*
X209217Y164624D01*
X209135Y164641D01*
X209054Y164661D01*
X208974Y164685D01*
X208895Y164713D01*
X208818Y164744D01*
X208742Y164778D01*
X208667Y164816D01*
X208594Y164858D01*
X208524Y164902D01*
X208455Y164950D01*
X208388Y165000D01*
X208324Y165054D01*
X208263Y165110D01*
X208203Y165170D01*
X208147Y165231D01*
X208093Y165295D01*
X208043Y165362D01*
X207995Y165431D01*
X207951Y165501D01*
X207909Y165574D01*
X207871Y165649D01*
X207837Y165725D01*
X207806Y165802D01*
X207778Y165881D01*
X207754Y165961D01*
X207734Y166042D01*
X207717Y166124D01*
X207704Y166207D01*
X207694Y166290D01*
X207689Y166373D01*
X207687Y166457D01*
X207687Y168941D01*
X207687Y173805D02*
X215138Y173805D01*
X207687Y173805D02*
X207687Y177530D01*
X208929Y177530D01*
X210171Y181342D02*
X212654Y181342D01*
X210171Y181341D02*
X210072Y181343D01*
X209974Y181349D01*
X209875Y181359D01*
X209778Y181372D01*
X209680Y181390D01*
X209584Y181411D01*
X209488Y181437D01*
X209394Y181466D01*
X209301Y181498D01*
X209209Y181535D01*
X209119Y181575D01*
X209030Y181619D01*
X208943Y181666D01*
X208858Y181716D01*
X208776Y181770D01*
X208695Y181827D01*
X208617Y181887D01*
X208541Y181951D01*
X208468Y182017D01*
X208397Y182086D01*
X208329Y182158D01*
X208265Y182233D01*
X208203Y182310D01*
X208144Y182389D01*
X208089Y182471D01*
X208036Y182555D01*
X207988Y182640D01*
X207942Y182728D01*
X207900Y182818D01*
X207862Y182909D01*
X207828Y183001D01*
X207797Y183095D01*
X207770Y183190D01*
X207746Y183286D01*
X207727Y183383D01*
X207711Y183480D01*
X207699Y183578D01*
X207691Y183677D01*
X207687Y183776D01*
X207687Y183874D01*
X207691Y183973D01*
X207699Y184072D01*
X207711Y184170D01*
X207727Y184267D01*
X207746Y184364D01*
X207770Y184460D01*
X207797Y184555D01*
X207828Y184649D01*
X207862Y184741D01*
X207900Y184832D01*
X207942Y184922D01*
X207988Y185010D01*
X208036Y185095D01*
X208089Y185179D01*
X208144Y185261D01*
X208203Y185340D01*
X208265Y185417D01*
X208329Y185492D01*
X208397Y185564D01*
X208468Y185633D01*
X208541Y185699D01*
X208617Y185763D01*
X208695Y185823D01*
X208776Y185880D01*
X208858Y185934D01*
X208943Y185984D01*
X209030Y186031D01*
X209119Y186075D01*
X209209Y186115D01*
X209301Y186152D01*
X209394Y186184D01*
X209488Y186213D01*
X209584Y186239D01*
X209680Y186260D01*
X209778Y186278D01*
X209875Y186291D01*
X209974Y186301D01*
X210072Y186307D01*
X210171Y186309D01*
X212654Y186309D01*
X212753Y186307D01*
X212851Y186301D01*
X212950Y186291D01*
X213047Y186278D01*
X213145Y186260D01*
X213241Y186239D01*
X213337Y186213D01*
X213431Y186184D01*
X213524Y186152D01*
X213616Y186115D01*
X213706Y186075D01*
X213795Y186031D01*
X213882Y185984D01*
X213967Y185934D01*
X214049Y185880D01*
X214130Y185823D01*
X214208Y185763D01*
X214284Y185699D01*
X214357Y185633D01*
X214428Y185564D01*
X214496Y185492D01*
X214560Y185417D01*
X214622Y185340D01*
X214681Y185261D01*
X214736Y185179D01*
X214789Y185095D01*
X214837Y185010D01*
X214883Y184922D01*
X214925Y184832D01*
X214963Y184741D01*
X214997Y184649D01*
X215028Y184555D01*
X215055Y184460D01*
X215079Y184364D01*
X215098Y184267D01*
X215114Y184170D01*
X215126Y184072D01*
X215134Y183973D01*
X215138Y183874D01*
X215138Y183776D01*
X215134Y183677D01*
X215126Y183578D01*
X215114Y183480D01*
X215098Y183383D01*
X215079Y183286D01*
X215055Y183190D01*
X215028Y183095D01*
X214997Y183001D01*
X214963Y182909D01*
X214925Y182818D01*
X214883Y182728D01*
X214837Y182640D01*
X214789Y182555D01*
X214736Y182471D01*
X214681Y182389D01*
X214622Y182310D01*
X214560Y182233D01*
X214496Y182158D01*
X214428Y182086D01*
X214357Y182017D01*
X214284Y181951D01*
X214208Y181887D01*
X214130Y181827D01*
X214049Y181770D01*
X213967Y181716D01*
X213882Y181666D01*
X213795Y181619D01*
X213706Y181575D01*
X213616Y181535D01*
X213524Y181498D01*
X213431Y181466D01*
X213337Y181437D01*
X213241Y181411D01*
X213145Y181390D01*
X213047Y181372D01*
X212950Y181359D01*
X212851Y181349D01*
X212753Y181343D01*
X212654Y181341D01*
X215138Y194733D02*
X215136Y194830D01*
X215130Y194928D01*
X215121Y195025D01*
X215107Y195122D01*
X215090Y195218D01*
X215069Y195313D01*
X215045Y195407D01*
X215016Y195501D01*
X214984Y195593D01*
X214949Y195684D01*
X214910Y195773D01*
X214867Y195861D01*
X214821Y195947D01*
X214772Y196031D01*
X214719Y196113D01*
X214664Y196193D01*
X214605Y196271D01*
X214543Y196346D01*
X214478Y196419D01*
X214410Y196489D01*
X214340Y196557D01*
X214267Y196622D01*
X214192Y196684D01*
X214114Y196743D01*
X214034Y196798D01*
X213952Y196851D01*
X213868Y196900D01*
X213782Y196946D01*
X213694Y196989D01*
X213605Y197028D01*
X213514Y197063D01*
X213422Y197095D01*
X213328Y197124D01*
X213234Y197148D01*
X213139Y197169D01*
X213043Y197186D01*
X212946Y197200D01*
X212849Y197209D01*
X212752Y197215D01*
X212654Y197217D01*
X215138Y194733D02*
X215136Y194590D01*
X215130Y194447D01*
X215121Y194305D01*
X215107Y194163D01*
X215089Y194021D01*
X215068Y193880D01*
X215043Y193739D01*
X215014Y193599D01*
X214981Y193460D01*
X214945Y193322D01*
X214904Y193185D01*
X214860Y193049D01*
X214813Y192914D01*
X214761Y192781D01*
X214706Y192649D01*
X214648Y192519D01*
X214586Y192390D01*
X214520Y192263D01*
X214451Y192138D01*
X214379Y192015D01*
X214303Y191894D01*
X214225Y191775D01*
X214142Y191658D01*
X214057Y191543D01*
X213969Y191431D01*
X213877Y191321D01*
X213783Y191214D01*
X213686Y191109D01*
X213586Y191007D01*
X206446Y191318D02*
X206348Y191320D01*
X206251Y191326D01*
X206154Y191335D01*
X206057Y191349D01*
X205961Y191366D01*
X205866Y191387D01*
X205772Y191411D01*
X205678Y191440D01*
X205586Y191472D01*
X205495Y191507D01*
X205406Y191546D01*
X205318Y191589D01*
X205232Y191635D01*
X205148Y191684D01*
X205066Y191737D01*
X204986Y191792D01*
X204908Y191851D01*
X204833Y191913D01*
X204760Y191978D01*
X204690Y192046D01*
X204622Y192116D01*
X204557Y192189D01*
X204495Y192264D01*
X204436Y192342D01*
X204381Y192422D01*
X204328Y192504D01*
X204279Y192588D01*
X204233Y192674D01*
X204190Y192762D01*
X204151Y192851D01*
X204116Y192942D01*
X204084Y193034D01*
X204055Y193128D01*
X204031Y193222D01*
X204010Y193317D01*
X203993Y193413D01*
X203979Y193510D01*
X203970Y193607D01*
X203964Y193704D01*
X203962Y193802D01*
X203964Y193932D01*
X203969Y194062D01*
X203978Y194192D01*
X203991Y194322D01*
X204007Y194451D01*
X204027Y194580D01*
X204051Y194708D01*
X204078Y194836D01*
X204109Y194962D01*
X204143Y195088D01*
X204181Y195213D01*
X204222Y195336D01*
X204267Y195459D01*
X204315Y195580D01*
X204366Y195700D01*
X204421Y195818D01*
X204479Y195934D01*
X204540Y196049D01*
X204605Y196163D01*
X204672Y196274D01*
X204743Y196383D01*
X204817Y196491D01*
X204893Y196596D01*
X208619Y192561D02*
X208568Y192478D01*
X208514Y192397D01*
X208457Y192319D01*
X208397Y192243D01*
X208334Y192169D01*
X208268Y192098D01*
X208200Y192029D01*
X208129Y191963D01*
X208056Y191899D01*
X207980Y191839D01*
X207902Y191782D01*
X207821Y191727D01*
X207739Y191676D01*
X207655Y191628D01*
X207569Y191583D01*
X207481Y191541D01*
X207392Y191503D01*
X207302Y191469D01*
X207210Y191437D01*
X207117Y191410D01*
X207023Y191386D01*
X206928Y191365D01*
X206832Y191349D01*
X206736Y191336D01*
X206640Y191326D01*
X206543Y191321D01*
X206446Y191319D01*
X210481Y195974D02*
X210532Y196057D01*
X210586Y196138D01*
X210643Y196216D01*
X210703Y196292D01*
X210766Y196366D01*
X210832Y196437D01*
X210900Y196506D01*
X210971Y196572D01*
X211044Y196636D01*
X211120Y196696D01*
X211198Y196753D01*
X211279Y196808D01*
X211361Y196859D01*
X211445Y196907D01*
X211531Y196952D01*
X211619Y196994D01*
X211708Y197032D01*
X211798Y197066D01*
X211890Y197098D01*
X211983Y197125D01*
X212077Y197149D01*
X212172Y197170D01*
X212268Y197186D01*
X212364Y197199D01*
X212460Y197209D01*
X212557Y197214D01*
X212654Y197216D01*
X210481Y195975D02*
X208619Y192560D01*
X203962Y202438D02*
X215138Y202438D01*
X203962Y202438D02*
X203962Y205542D01*
X203964Y205650D01*
X203970Y205759D01*
X203979Y205866D01*
X203992Y205974D01*
X204009Y206081D01*
X204030Y206187D01*
X204054Y206293D01*
X204082Y206398D01*
X204114Y206501D01*
X204149Y206604D01*
X204188Y206705D01*
X204230Y206805D01*
X204276Y206903D01*
X204325Y206999D01*
X204378Y207094D01*
X204434Y207187D01*
X204493Y207278D01*
X204555Y207366D01*
X204620Y207453D01*
X204688Y207537D01*
X204759Y207619D01*
X204833Y207698D01*
X204910Y207775D01*
X204989Y207849D01*
X205071Y207920D01*
X205155Y207988D01*
X205242Y208053D01*
X205330Y208115D01*
X205421Y208174D01*
X205514Y208230D01*
X205609Y208283D01*
X205705Y208332D01*
X205804Y208378D01*
X205903Y208420D01*
X206004Y208459D01*
X206107Y208494D01*
X206210Y208526D01*
X206315Y208554D01*
X206421Y208578D01*
X206527Y208599D01*
X206634Y208616D01*
X206742Y208629D01*
X206850Y208638D01*
X206958Y208644D01*
X207066Y208646D01*
X207066Y208647D02*
X212034Y208647D01*
X212034Y208646D02*
X212145Y208644D01*
X212255Y208638D01*
X212366Y208628D01*
X212476Y208614D01*
X212585Y208597D01*
X212694Y208575D01*
X212802Y208550D01*
X212908Y208520D01*
X213014Y208487D01*
X213119Y208450D01*
X213222Y208410D01*
X213323Y208365D01*
X213423Y208318D01*
X213522Y208266D01*
X213618Y208211D01*
X213712Y208153D01*
X213804Y208092D01*
X213894Y208027D01*
X213982Y207959D01*
X214067Y207888D01*
X214149Y207814D01*
X214229Y207737D01*
X214306Y207657D01*
X214380Y207575D01*
X214451Y207490D01*
X214519Y207402D01*
X214584Y207312D01*
X214645Y207220D01*
X214703Y207126D01*
X214758Y207030D01*
X214810Y206931D01*
X214857Y206831D01*
X214902Y206730D01*
X214942Y206627D01*
X214979Y206522D01*
X215012Y206416D01*
X215042Y206310D01*
X215067Y206202D01*
X215089Y206093D01*
X215106Y205984D01*
X215120Y205874D01*
X215130Y205763D01*
X215136Y205653D01*
X215138Y205542D01*
X215138Y202438D01*
D13*
X669738Y292481D02*
X669738Y306959D01*
X673760Y306959D01*
X673885Y306957D01*
X674010Y306951D01*
X674135Y306942D01*
X674259Y306928D01*
X674383Y306910D01*
X674506Y306889D01*
X674629Y306864D01*
X674751Y306835D01*
X674871Y306802D01*
X674991Y306766D01*
X675109Y306726D01*
X675227Y306682D01*
X675342Y306635D01*
X675457Y306584D01*
X675569Y306529D01*
X675680Y306471D01*
X675789Y306410D01*
X675896Y306345D01*
X676001Y306277D01*
X676104Y306206D01*
X676204Y306131D01*
X676302Y306053D01*
X676398Y305973D01*
X676491Y305889D01*
X676582Y305803D01*
X676670Y305714D01*
X676755Y305622D01*
X676837Y305528D01*
X676916Y305431D01*
X676992Y305331D01*
X677065Y305230D01*
X677134Y305126D01*
X677201Y305020D01*
X677264Y304912D01*
X677324Y304802D01*
X677380Y304690D01*
X677433Y304577D01*
X677482Y304462D01*
X677527Y304345D01*
X677569Y304227D01*
X677608Y304108D01*
X677642Y303988D01*
X677673Y303867D01*
X677700Y303745D01*
X677723Y303622D01*
X677743Y303498D01*
X677758Y303374D01*
X677770Y303249D01*
X677778Y303125D01*
X677782Y303000D01*
X677782Y302874D01*
X677778Y302749D01*
X677770Y302625D01*
X677758Y302500D01*
X677743Y302376D01*
X677723Y302252D01*
X677700Y302129D01*
X677673Y302007D01*
X677642Y301886D01*
X677608Y301766D01*
X677569Y301647D01*
X677527Y301529D01*
X677482Y301412D01*
X677433Y301297D01*
X677380Y301184D01*
X677324Y301072D01*
X677264Y300962D01*
X677201Y300854D01*
X677134Y300748D01*
X677065Y300644D01*
X676992Y300543D01*
X676916Y300443D01*
X676837Y300346D01*
X676755Y300252D01*
X676670Y300160D01*
X676582Y300071D01*
X676491Y299985D01*
X676398Y299901D01*
X676302Y299821D01*
X676204Y299743D01*
X676104Y299668D01*
X676001Y299597D01*
X675896Y299529D01*
X675789Y299464D01*
X675680Y299403D01*
X675569Y299345D01*
X675457Y299290D01*
X675342Y299239D01*
X675227Y299192D01*
X675109Y299148D01*
X674991Y299108D01*
X674871Y299072D01*
X674751Y299039D01*
X674629Y299010D01*
X674506Y298985D01*
X674383Y298964D01*
X674259Y298946D01*
X674135Y298932D01*
X674010Y298923D01*
X673885Y298917D01*
X673760Y298915D01*
X673760Y298916D02*
X669738Y298916D01*
X683659Y303742D02*
X687680Y306959D01*
X687680Y292481D01*
X683659Y292481D02*
X691702Y292481D01*
X669738Y68834D02*
X669738Y54356D01*
X669738Y68834D02*
X673760Y68834D01*
X673885Y68832D01*
X674010Y68826D01*
X674135Y68817D01*
X674259Y68803D01*
X674383Y68785D01*
X674506Y68764D01*
X674629Y68739D01*
X674751Y68710D01*
X674871Y68677D01*
X674991Y68641D01*
X675109Y68601D01*
X675227Y68557D01*
X675342Y68510D01*
X675457Y68459D01*
X675569Y68404D01*
X675680Y68346D01*
X675789Y68285D01*
X675896Y68220D01*
X676001Y68152D01*
X676104Y68081D01*
X676204Y68006D01*
X676302Y67928D01*
X676398Y67848D01*
X676491Y67764D01*
X676582Y67678D01*
X676670Y67589D01*
X676755Y67497D01*
X676837Y67403D01*
X676916Y67306D01*
X676992Y67206D01*
X677065Y67105D01*
X677134Y67001D01*
X677201Y66895D01*
X677264Y66787D01*
X677324Y66677D01*
X677380Y66565D01*
X677433Y66452D01*
X677482Y66337D01*
X677527Y66220D01*
X677569Y66102D01*
X677608Y65983D01*
X677642Y65863D01*
X677673Y65742D01*
X677700Y65620D01*
X677723Y65497D01*
X677743Y65373D01*
X677758Y65249D01*
X677770Y65124D01*
X677778Y65000D01*
X677782Y64875D01*
X677782Y64749D01*
X677778Y64624D01*
X677770Y64500D01*
X677758Y64375D01*
X677743Y64251D01*
X677723Y64127D01*
X677700Y64004D01*
X677673Y63882D01*
X677642Y63761D01*
X677608Y63641D01*
X677569Y63522D01*
X677527Y63404D01*
X677482Y63287D01*
X677433Y63172D01*
X677380Y63059D01*
X677324Y62947D01*
X677264Y62837D01*
X677201Y62729D01*
X677134Y62623D01*
X677065Y62519D01*
X676992Y62418D01*
X676916Y62318D01*
X676837Y62221D01*
X676755Y62127D01*
X676670Y62035D01*
X676582Y61946D01*
X676491Y61860D01*
X676398Y61776D01*
X676302Y61696D01*
X676204Y61618D01*
X676104Y61543D01*
X676001Y61472D01*
X675896Y61404D01*
X675789Y61339D01*
X675680Y61278D01*
X675569Y61220D01*
X675457Y61165D01*
X675342Y61114D01*
X675227Y61067D01*
X675109Y61023D01*
X674991Y60983D01*
X674871Y60947D01*
X674751Y60914D01*
X674629Y60885D01*
X674506Y60860D01*
X674383Y60839D01*
X674259Y60821D01*
X674135Y60807D01*
X674010Y60798D01*
X673885Y60792D01*
X673760Y60790D01*
X673760Y60791D02*
X669738Y60791D01*
X688082Y68835D02*
X688200Y68833D01*
X688319Y68827D01*
X688437Y68818D01*
X688555Y68804D01*
X688672Y68787D01*
X688788Y68765D01*
X688904Y68740D01*
X689019Y68712D01*
X689133Y68679D01*
X689246Y68643D01*
X689357Y68603D01*
X689467Y68559D01*
X689576Y68512D01*
X689683Y68462D01*
X689788Y68408D01*
X689892Y68350D01*
X689994Y68289D01*
X690093Y68225D01*
X690191Y68158D01*
X690286Y68087D01*
X690379Y68013D01*
X690469Y67937D01*
X690557Y67857D01*
X690642Y67775D01*
X690724Y67690D01*
X690804Y67602D01*
X690880Y67512D01*
X690954Y67419D01*
X691025Y67324D01*
X691092Y67226D01*
X691156Y67127D01*
X691217Y67025D01*
X691275Y66921D01*
X691329Y66816D01*
X691379Y66709D01*
X691426Y66600D01*
X691470Y66490D01*
X691510Y66379D01*
X691546Y66266D01*
X691579Y66152D01*
X691607Y66037D01*
X691632Y65921D01*
X691654Y65805D01*
X691671Y65688D01*
X691685Y65570D01*
X691694Y65452D01*
X691700Y65333D01*
X691702Y65215D01*
X688082Y68834D02*
X687949Y68832D01*
X687816Y68826D01*
X687684Y68817D01*
X687552Y68804D01*
X687420Y68787D01*
X687288Y68766D01*
X687158Y68741D01*
X687028Y68713D01*
X686899Y68681D01*
X686771Y68645D01*
X686644Y68606D01*
X686518Y68563D01*
X686394Y68517D01*
X686271Y68467D01*
X686149Y68413D01*
X686029Y68356D01*
X685910Y68296D01*
X685794Y68232D01*
X685679Y68165D01*
X685566Y68095D01*
X685456Y68021D01*
X685347Y67945D01*
X685241Y67865D01*
X685137Y67782D01*
X685035Y67697D01*
X684936Y67608D01*
X684839Y67517D01*
X684745Y67423D01*
X684654Y67326D01*
X684566Y67227D01*
X684480Y67125D01*
X684398Y67021D01*
X684318Y66914D01*
X684242Y66806D01*
X684168Y66695D01*
X684098Y66582D01*
X684031Y66467D01*
X683968Y66351D01*
X683907Y66232D01*
X683851Y66112D01*
X683797Y65990D01*
X683747Y65867D01*
X683701Y65743D01*
X683658Y65617D01*
X690495Y62400D02*
X690582Y62484D01*
X690665Y62572D01*
X690746Y62662D01*
X690824Y62755D01*
X690900Y62850D01*
X690972Y62947D01*
X691041Y63046D01*
X691107Y63148D01*
X691170Y63251D01*
X691229Y63357D01*
X691285Y63464D01*
X691338Y63573D01*
X691388Y63683D01*
X691434Y63795D01*
X691476Y63909D01*
X691515Y64024D01*
X691550Y64139D01*
X691582Y64256D01*
X691610Y64374D01*
X691634Y64493D01*
X691655Y64612D01*
X691672Y64732D01*
X691685Y64852D01*
X691694Y64973D01*
X691700Y65094D01*
X691702Y65215D01*
X690495Y62399D02*
X683659Y54356D01*
X691702Y54356D01*
D10*
X686068Y226116D02*
X686068Y234188D01*
X686069Y226116D02*
X686071Y226005D01*
X686077Y225895D01*
X686087Y225784D01*
X686101Y225674D01*
X686118Y225565D01*
X686140Y225456D01*
X686165Y225348D01*
X686195Y225242D01*
X686228Y225136D01*
X686265Y225031D01*
X686305Y224928D01*
X686350Y224827D01*
X686397Y224727D01*
X686449Y224628D01*
X686504Y224532D01*
X686562Y224438D01*
X686623Y224346D01*
X686688Y224256D01*
X686756Y224168D01*
X686827Y224083D01*
X686901Y224001D01*
X686978Y223921D01*
X687058Y223844D01*
X687140Y223770D01*
X687225Y223699D01*
X687313Y223631D01*
X687403Y223566D01*
X687495Y223505D01*
X687589Y223447D01*
X687685Y223392D01*
X687784Y223340D01*
X687884Y223293D01*
X687985Y223248D01*
X688088Y223208D01*
X688193Y223171D01*
X688299Y223138D01*
X688405Y223108D01*
X688513Y223083D01*
X688622Y223061D01*
X688731Y223044D01*
X688841Y223030D01*
X688952Y223020D01*
X689062Y223014D01*
X689173Y223012D01*
X689284Y223014D01*
X689394Y223020D01*
X689505Y223030D01*
X689615Y223044D01*
X689724Y223061D01*
X689833Y223083D01*
X689941Y223108D01*
X690047Y223138D01*
X690153Y223171D01*
X690258Y223208D01*
X690361Y223248D01*
X690462Y223293D01*
X690562Y223340D01*
X690661Y223392D01*
X690757Y223447D01*
X690851Y223505D01*
X690943Y223566D01*
X691033Y223631D01*
X691121Y223699D01*
X691206Y223770D01*
X691288Y223844D01*
X691368Y223921D01*
X691445Y224001D01*
X691519Y224083D01*
X691590Y224168D01*
X691658Y224256D01*
X691723Y224346D01*
X691784Y224438D01*
X691842Y224532D01*
X691897Y224628D01*
X691949Y224727D01*
X691996Y224827D01*
X692041Y224928D01*
X692081Y225031D01*
X692118Y225136D01*
X692151Y225242D01*
X692181Y225348D01*
X692206Y225456D01*
X692228Y225565D01*
X692245Y225674D01*
X692259Y225784D01*
X692269Y225895D01*
X692275Y226005D01*
X692277Y226116D01*
X692277Y234188D01*
X697879Y231704D02*
X700984Y234188D01*
X700984Y223012D01*
X704088Y223012D02*
X697879Y223012D01*
D11*
X112100Y69750D02*
X86700Y69750D01*
X86700Y145950D01*
X112100Y145950D01*
X112100Y69750D01*
X124800Y76100D02*
X124800Y88800D01*
X131150Y82450D02*
X118450Y82450D01*
X118450Y133250D02*
X131150Y133250D01*
X131150Y111025D02*
X127975Y111025D01*
X127975Y104675D01*
X121625Y104675D01*
X121625Y111025D01*
X118450Y111025D01*
D10*
X93318Y43588D02*
X93318Y35516D01*
X93319Y35516D02*
X93321Y35405D01*
X93327Y35295D01*
X93337Y35184D01*
X93351Y35074D01*
X93368Y34965D01*
X93390Y34856D01*
X93415Y34748D01*
X93445Y34642D01*
X93478Y34536D01*
X93515Y34431D01*
X93555Y34328D01*
X93600Y34227D01*
X93647Y34127D01*
X93699Y34028D01*
X93754Y33932D01*
X93812Y33838D01*
X93873Y33746D01*
X93938Y33656D01*
X94006Y33568D01*
X94077Y33483D01*
X94151Y33401D01*
X94228Y33321D01*
X94308Y33244D01*
X94390Y33170D01*
X94475Y33099D01*
X94563Y33031D01*
X94653Y32966D01*
X94745Y32905D01*
X94839Y32847D01*
X94935Y32792D01*
X95034Y32740D01*
X95134Y32693D01*
X95235Y32648D01*
X95338Y32608D01*
X95443Y32571D01*
X95549Y32538D01*
X95655Y32508D01*
X95763Y32483D01*
X95872Y32461D01*
X95981Y32444D01*
X96091Y32430D01*
X96202Y32420D01*
X96312Y32414D01*
X96423Y32412D01*
X96534Y32414D01*
X96644Y32420D01*
X96755Y32430D01*
X96865Y32444D01*
X96974Y32461D01*
X97083Y32483D01*
X97191Y32508D01*
X97297Y32538D01*
X97403Y32571D01*
X97508Y32608D01*
X97611Y32648D01*
X97712Y32693D01*
X97812Y32740D01*
X97911Y32792D01*
X98007Y32847D01*
X98101Y32905D01*
X98193Y32966D01*
X98283Y33031D01*
X98371Y33099D01*
X98456Y33170D01*
X98538Y33244D01*
X98618Y33321D01*
X98695Y33401D01*
X98769Y33483D01*
X98840Y33568D01*
X98908Y33656D01*
X98973Y33746D01*
X99034Y33838D01*
X99092Y33932D01*
X99147Y34028D01*
X99199Y34127D01*
X99246Y34227D01*
X99291Y34328D01*
X99331Y34431D01*
X99368Y34536D01*
X99401Y34642D01*
X99431Y34748D01*
X99456Y34856D01*
X99478Y34965D01*
X99495Y35074D01*
X99509Y35184D01*
X99519Y35295D01*
X99525Y35405D01*
X99527Y35516D01*
X99527Y43588D01*
X108544Y43588D02*
X108648Y43586D01*
X108753Y43580D01*
X108857Y43570D01*
X108960Y43557D01*
X109063Y43539D01*
X109166Y43518D01*
X109267Y43493D01*
X109368Y43464D01*
X109467Y43431D01*
X109565Y43395D01*
X109661Y43355D01*
X109756Y43311D01*
X109850Y43264D01*
X109941Y43214D01*
X110030Y43160D01*
X110118Y43103D01*
X110203Y43042D01*
X110286Y42978D01*
X110366Y42912D01*
X110444Y42842D01*
X110520Y42770D01*
X110592Y42694D01*
X110662Y42616D01*
X110728Y42536D01*
X110792Y42453D01*
X110853Y42368D01*
X110910Y42280D01*
X110964Y42191D01*
X111014Y42100D01*
X111061Y42006D01*
X111105Y41911D01*
X111145Y41815D01*
X111181Y41717D01*
X111214Y41618D01*
X111243Y41517D01*
X111268Y41416D01*
X111289Y41313D01*
X111307Y41210D01*
X111320Y41107D01*
X111330Y41003D01*
X111336Y40898D01*
X111338Y40794D01*
X108544Y43589D02*
X108425Y43587D01*
X108307Y43581D01*
X108188Y43571D01*
X108070Y43558D01*
X107953Y43540D01*
X107836Y43518D01*
X107720Y43493D01*
X107605Y43464D01*
X107490Y43431D01*
X107377Y43394D01*
X107266Y43354D01*
X107155Y43310D01*
X107047Y43262D01*
X106940Y43211D01*
X106834Y43156D01*
X106731Y43097D01*
X106629Y43036D01*
X106530Y42971D01*
X106432Y42902D01*
X106338Y42831D01*
X106245Y42756D01*
X106155Y42679D01*
X106068Y42598D01*
X105983Y42515D01*
X105901Y42429D01*
X105822Y42340D01*
X105746Y42249D01*
X105673Y42155D01*
X105604Y42059D01*
X105537Y41960D01*
X105474Y41860D01*
X105414Y41757D01*
X105357Y41653D01*
X105305Y41546D01*
X105255Y41438D01*
X105209Y41329D01*
X105167Y41217D01*
X105129Y41105D01*
X110407Y38621D02*
X110482Y38695D01*
X110554Y38772D01*
X110624Y38851D01*
X110691Y38933D01*
X110755Y39017D01*
X110816Y39103D01*
X110874Y39191D01*
X110929Y39282D01*
X110981Y39374D01*
X111029Y39468D01*
X111074Y39563D01*
X111116Y39661D01*
X111154Y39759D01*
X111189Y39859D01*
X111220Y39960D01*
X111247Y40062D01*
X111271Y40165D01*
X111292Y40268D01*
X111308Y40373D01*
X111321Y40478D01*
X111331Y40583D01*
X111336Y40688D01*
X111338Y40794D01*
X110407Y38621D02*
X105129Y32412D01*
X111338Y32412D01*
D11*
X190500Y50800D02*
X190500Y304800D01*
X190500Y50800D02*
X165100Y50800D01*
X165100Y304800D01*
X190500Y304800D01*
D14*
X177800Y139700D03*
X177800Y165100D03*
X177800Y190500D03*
X177800Y215900D03*
X177800Y241300D03*
X177800Y266700D03*
X177800Y292100D03*
X177800Y114300D03*
X177800Y88900D03*
X177800Y63500D03*
D12*
X152400Y323850D02*
X152407Y324464D01*
X152430Y325077D01*
X152467Y325690D01*
X152519Y326301D01*
X152585Y326912D01*
X152667Y327520D01*
X152763Y328126D01*
X152873Y328730D01*
X152998Y329331D01*
X153138Y329929D01*
X153292Y330523D01*
X153461Y331113D01*
X153643Y331699D01*
X153840Y332280D01*
X154051Y332857D01*
X154275Y333428D01*
X154513Y333994D01*
X154765Y334554D01*
X155031Y335107D01*
X155309Y335654D01*
X155601Y336194D01*
X155906Y336727D01*
X156224Y337252D01*
X156554Y337770D01*
X156896Y338279D01*
X157251Y338780D01*
X157618Y339272D01*
X157996Y339755D01*
X158386Y340229D01*
X158788Y340693D01*
X159200Y341148D01*
X159624Y341592D01*
X160058Y342026D01*
X160502Y342450D01*
X160957Y342862D01*
X161421Y343264D01*
X161895Y343654D01*
X162378Y344032D01*
X162870Y344399D01*
X163371Y344754D01*
X163880Y345096D01*
X164398Y345426D01*
X164923Y345744D01*
X165456Y346049D01*
X165996Y346341D01*
X166543Y346619D01*
X167096Y346885D01*
X167656Y347137D01*
X168222Y347375D01*
X168793Y347599D01*
X169370Y347810D01*
X169951Y348007D01*
X170537Y348189D01*
X171127Y348358D01*
X171721Y348512D01*
X172319Y348652D01*
X172920Y348777D01*
X173524Y348887D01*
X174130Y348983D01*
X174738Y349065D01*
X175349Y349131D01*
X175960Y349183D01*
X176573Y349220D01*
X177186Y349243D01*
X177800Y349250D01*
X152400Y323850D02*
X152400Y31750D01*
X152407Y31136D01*
X152430Y30523D01*
X152467Y29910D01*
X152519Y29299D01*
X152585Y28688D01*
X152667Y28080D01*
X152763Y27474D01*
X152873Y26870D01*
X152998Y26269D01*
X153138Y25671D01*
X153292Y25077D01*
X153461Y24487D01*
X153643Y23901D01*
X153840Y23320D01*
X154051Y22743D01*
X154275Y22172D01*
X154513Y21606D01*
X154765Y21046D01*
X155031Y20493D01*
X155309Y19946D01*
X155601Y19406D01*
X155906Y18873D01*
X156224Y18348D01*
X156554Y17830D01*
X156896Y17321D01*
X157251Y16820D01*
X157618Y16328D01*
X157996Y15845D01*
X158386Y15371D01*
X158788Y14907D01*
X159200Y14452D01*
X159624Y14008D01*
X160058Y13574D01*
X160502Y13150D01*
X160957Y12738D01*
X161421Y12336D01*
X161895Y11946D01*
X162378Y11568D01*
X162870Y11201D01*
X163371Y10846D01*
X163880Y10504D01*
X164398Y10174D01*
X164923Y9856D01*
X165456Y9551D01*
X165996Y9259D01*
X166543Y8981D01*
X167096Y8715D01*
X167656Y8463D01*
X168222Y8225D01*
X168793Y8001D01*
X169370Y7790D01*
X169951Y7593D01*
X170537Y7411D01*
X171127Y7242D01*
X171721Y7088D01*
X172319Y6948D01*
X172920Y6823D01*
X173524Y6713D01*
X174130Y6617D01*
X174738Y6535D01*
X175349Y6469D01*
X175960Y6417D01*
X176573Y6380D01*
X177186Y6357D01*
X177800Y6350D01*
X685800Y6350D01*
X686414Y6357D01*
X687027Y6380D01*
X687640Y6417D01*
X688251Y6469D01*
X688862Y6535D01*
X689470Y6617D01*
X690076Y6713D01*
X690680Y6823D01*
X691281Y6948D01*
X691879Y7088D01*
X692473Y7242D01*
X693063Y7411D01*
X693649Y7593D01*
X694230Y7790D01*
X694807Y8001D01*
X695378Y8225D01*
X695944Y8463D01*
X696504Y8715D01*
X697057Y8981D01*
X697604Y9259D01*
X698144Y9551D01*
X698677Y9856D01*
X699202Y10174D01*
X699720Y10504D01*
X700229Y10846D01*
X700730Y11201D01*
X701222Y11568D01*
X701705Y11946D01*
X702179Y12336D01*
X702643Y12738D01*
X703098Y13150D01*
X703542Y13574D01*
X703976Y14008D01*
X704400Y14452D01*
X704812Y14907D01*
X705214Y15371D01*
X705604Y15845D01*
X705982Y16328D01*
X706349Y16820D01*
X706704Y17321D01*
X707046Y17830D01*
X707376Y18348D01*
X707694Y18873D01*
X707999Y19406D01*
X708291Y19946D01*
X708569Y20493D01*
X708835Y21046D01*
X709087Y21606D01*
X709325Y22172D01*
X709549Y22743D01*
X709760Y23320D01*
X709957Y23901D01*
X710139Y24487D01*
X710308Y25077D01*
X710462Y25671D01*
X710602Y26269D01*
X710727Y26870D01*
X710837Y27474D01*
X710933Y28080D01*
X711015Y28688D01*
X711081Y29299D01*
X711133Y29910D01*
X711170Y30523D01*
X711193Y31136D01*
X711200Y31750D01*
X711200Y323850D01*
X711193Y324464D01*
X711170Y325077D01*
X711133Y325690D01*
X711081Y326301D01*
X711015Y326912D01*
X710933Y327520D01*
X710837Y328126D01*
X710727Y328730D01*
X710602Y329331D01*
X710462Y329929D01*
X710308Y330523D01*
X710139Y331113D01*
X709957Y331699D01*
X709760Y332280D01*
X709549Y332857D01*
X709325Y333428D01*
X709087Y333994D01*
X708835Y334554D01*
X708569Y335107D01*
X708291Y335654D01*
X707999Y336194D01*
X707694Y336727D01*
X707376Y337252D01*
X707046Y337770D01*
X706704Y338279D01*
X706349Y338780D01*
X705982Y339272D01*
X705604Y339755D01*
X705214Y340229D01*
X704812Y340693D01*
X704400Y341148D01*
X703976Y341592D01*
X703542Y342026D01*
X703098Y342450D01*
X702643Y342862D01*
X702179Y343264D01*
X701705Y343654D01*
X701222Y344032D01*
X700730Y344399D01*
X700229Y344754D01*
X699720Y345096D01*
X699202Y345426D01*
X698677Y345744D01*
X698144Y346049D01*
X697604Y346341D01*
X697057Y346619D01*
X696504Y346885D01*
X695944Y347137D01*
X695378Y347375D01*
X694807Y347599D01*
X694230Y347810D01*
X693649Y348007D01*
X693063Y348189D01*
X692473Y348358D01*
X691879Y348512D01*
X691281Y348652D01*
X690680Y348777D01*
X690076Y348887D01*
X689470Y348983D01*
X688862Y349065D01*
X688251Y349131D01*
X687640Y349183D01*
X687027Y349220D01*
X686414Y349243D01*
X685800Y349250D01*
X177800Y349250D01*
D10*
X260181Y267462D02*
X260299Y267464D01*
X260417Y267470D01*
X260535Y267479D01*
X260652Y267493D01*
X260769Y267510D01*
X260886Y267531D01*
X261001Y267556D01*
X261116Y267585D01*
X261230Y267618D01*
X261342Y267654D01*
X261453Y267694D01*
X261563Y267737D01*
X261672Y267784D01*
X261779Y267834D01*
X261884Y267889D01*
X261987Y267946D01*
X262088Y268007D01*
X262188Y268071D01*
X262285Y268138D01*
X262380Y268208D01*
X262472Y268282D01*
X262563Y268358D01*
X262650Y268438D01*
X262735Y268520D01*
X262817Y268605D01*
X262897Y268692D01*
X262973Y268783D01*
X263047Y268875D01*
X263117Y268970D01*
X263184Y269067D01*
X263248Y269167D01*
X263309Y269268D01*
X263366Y269371D01*
X263421Y269476D01*
X263471Y269583D01*
X263518Y269692D01*
X263561Y269802D01*
X263601Y269913D01*
X263637Y270025D01*
X263670Y270139D01*
X263699Y270254D01*
X263724Y270369D01*
X263745Y270486D01*
X263762Y270603D01*
X263776Y270720D01*
X263785Y270838D01*
X263791Y270956D01*
X263793Y271074D01*
X260181Y267462D02*
X259998Y267464D01*
X259816Y267471D01*
X259634Y267482D01*
X259452Y267497D01*
X259270Y267517D01*
X259089Y267540D01*
X258909Y267569D01*
X258729Y267601D01*
X258550Y267638D01*
X258373Y267679D01*
X258196Y267725D01*
X258020Y267774D01*
X257846Y267828D01*
X257672Y267886D01*
X257501Y267948D01*
X257331Y268014D01*
X257162Y268085D01*
X256995Y268159D01*
X256830Y268237D01*
X256667Y268319D01*
X256506Y268405D01*
X256347Y268495D01*
X256190Y268589D01*
X256036Y268686D01*
X255884Y268787D01*
X255734Y268892D01*
X255587Y269000D01*
X255443Y269111D01*
X255301Y269226D01*
X255162Y269345D01*
X255026Y269467D01*
X254893Y269592D01*
X254763Y269720D01*
X255214Y280106D02*
X255216Y280224D01*
X255222Y280342D01*
X255231Y280460D01*
X255245Y280577D01*
X255262Y280694D01*
X255283Y280811D01*
X255308Y280926D01*
X255337Y281041D01*
X255370Y281155D01*
X255406Y281267D01*
X255446Y281378D01*
X255489Y281488D01*
X255536Y281597D01*
X255586Y281704D01*
X255641Y281809D01*
X255698Y281912D01*
X255759Y282013D01*
X255823Y282113D01*
X255890Y282210D01*
X255960Y282305D01*
X256034Y282397D01*
X256110Y282488D01*
X256190Y282575D01*
X256272Y282660D01*
X256357Y282742D01*
X256444Y282822D01*
X256535Y282898D01*
X256627Y282972D01*
X256722Y283042D01*
X256819Y283109D01*
X256919Y283173D01*
X257020Y283234D01*
X257123Y283292D01*
X257228Y283346D01*
X257335Y283396D01*
X257444Y283443D01*
X257554Y283487D01*
X257665Y283526D01*
X257778Y283562D01*
X257891Y283595D01*
X258006Y283624D01*
X258121Y283649D01*
X258238Y283670D01*
X258355Y283687D01*
X258472Y283701D01*
X258590Y283710D01*
X258708Y283716D01*
X258826Y283718D01*
X258987Y283716D01*
X259149Y283710D01*
X259310Y283701D01*
X259471Y283687D01*
X259631Y283670D01*
X259791Y283649D01*
X259951Y283624D01*
X260110Y283595D01*
X260268Y283563D01*
X260425Y283527D01*
X260581Y283487D01*
X260737Y283443D01*
X260891Y283395D01*
X261044Y283344D01*
X261196Y283290D01*
X261347Y283231D01*
X261496Y283170D01*
X261643Y283104D01*
X261789Y283035D01*
X261934Y282963D01*
X262076Y282887D01*
X262217Y282808D01*
X262356Y282726D01*
X262492Y282640D01*
X262627Y282551D01*
X262760Y282459D01*
X262890Y282363D01*
X257019Y276945D02*
X256918Y277007D01*
X256818Y277072D01*
X256721Y277141D01*
X256626Y277213D01*
X256533Y277287D01*
X256443Y277365D01*
X256355Y277446D01*
X256270Y277529D01*
X256188Y277615D01*
X256109Y277704D01*
X256032Y277795D01*
X255959Y277889D01*
X255888Y277985D01*
X255821Y278083D01*
X255757Y278183D01*
X255696Y278286D01*
X255639Y278390D01*
X255585Y278496D01*
X255535Y278604D01*
X255488Y278713D01*
X255444Y278824D01*
X255404Y278936D01*
X255368Y279050D01*
X255336Y279164D01*
X255307Y279280D01*
X255282Y279396D01*
X255261Y279513D01*
X255244Y279631D01*
X255230Y279749D01*
X255221Y279868D01*
X255215Y279987D01*
X255213Y280106D01*
X261987Y274235D02*
X262088Y274173D01*
X262188Y274108D01*
X262285Y274039D01*
X262380Y273967D01*
X262473Y273893D01*
X262563Y273815D01*
X262651Y273734D01*
X262736Y273651D01*
X262818Y273565D01*
X262897Y273476D01*
X262974Y273385D01*
X263047Y273291D01*
X263118Y273195D01*
X263185Y273097D01*
X263249Y272997D01*
X263310Y272894D01*
X263367Y272790D01*
X263421Y272684D01*
X263471Y272576D01*
X263518Y272467D01*
X263562Y272356D01*
X263602Y272244D01*
X263638Y272130D01*
X263670Y272016D01*
X263699Y271900D01*
X263724Y271784D01*
X263745Y271667D01*
X263762Y271549D01*
X263776Y271431D01*
X263785Y271312D01*
X263791Y271193D01*
X263793Y271074D01*
X261987Y274235D02*
X257020Y276945D01*
X270604Y283718D02*
X270604Y267462D01*
X270604Y283718D02*
X275120Y283718D01*
X275253Y283716D01*
X275385Y283710D01*
X275517Y283700D01*
X275649Y283687D01*
X275781Y283669D01*
X275911Y283648D01*
X276042Y283623D01*
X276171Y283594D01*
X276299Y283561D01*
X276427Y283525D01*
X276553Y283485D01*
X276678Y283441D01*
X276802Y283393D01*
X276924Y283342D01*
X277045Y283287D01*
X277164Y283229D01*
X277282Y283167D01*
X277397Y283102D01*
X277511Y283033D01*
X277622Y282962D01*
X277731Y282886D01*
X277838Y282808D01*
X277943Y282727D01*
X278045Y282642D01*
X278145Y282555D01*
X278242Y282465D01*
X278337Y282372D01*
X278428Y282276D01*
X278517Y282178D01*
X278603Y282077D01*
X278686Y281973D01*
X278766Y281867D01*
X278842Y281759D01*
X278916Y281649D01*
X278986Y281536D01*
X279053Y281422D01*
X279116Y281305D01*
X279176Y281187D01*
X279233Y281067D01*
X279286Y280945D01*
X279335Y280822D01*
X279381Y280698D01*
X279423Y280572D01*
X279461Y280445D01*
X279496Y280317D01*
X279527Y280188D01*
X279554Y280059D01*
X279577Y279928D01*
X279597Y279797D01*
X279612Y279665D01*
X279624Y279533D01*
X279632Y279401D01*
X279636Y279268D01*
X279636Y279136D01*
X279632Y279003D01*
X279624Y278871D01*
X279612Y278739D01*
X279597Y278607D01*
X279577Y278476D01*
X279554Y278345D01*
X279527Y278216D01*
X279496Y278087D01*
X279461Y277959D01*
X279423Y277832D01*
X279381Y277706D01*
X279335Y277582D01*
X279286Y277459D01*
X279233Y277337D01*
X279176Y277217D01*
X279116Y277099D01*
X279053Y276982D01*
X278986Y276868D01*
X278916Y276755D01*
X278842Y276645D01*
X278766Y276537D01*
X278686Y276431D01*
X278603Y276327D01*
X278517Y276226D01*
X278428Y276128D01*
X278337Y276032D01*
X278242Y275939D01*
X278145Y275849D01*
X278045Y275762D01*
X277943Y275677D01*
X277838Y275596D01*
X277731Y275518D01*
X277622Y275442D01*
X277511Y275371D01*
X277397Y275302D01*
X277282Y275237D01*
X277164Y275175D01*
X277045Y275117D01*
X276924Y275062D01*
X276802Y275011D01*
X276678Y274963D01*
X276553Y274919D01*
X276427Y274879D01*
X276299Y274843D01*
X276171Y274810D01*
X276042Y274781D01*
X275911Y274756D01*
X275781Y274735D01*
X275649Y274717D01*
X275517Y274704D01*
X275385Y274694D01*
X275253Y274688D01*
X275120Y274686D01*
X275120Y274687D02*
X270604Y274687D01*
X286893Y267462D02*
X286893Y283718D01*
X285087Y267462D02*
X288699Y267462D01*
X288699Y283718D02*
X285087Y283718D01*
X303740Y283718D02*
X303740Y267462D01*
X303740Y283718D02*
X308255Y283718D01*
X308386Y283716D01*
X308518Y283710D01*
X308649Y283701D01*
X308779Y283687D01*
X308910Y283670D01*
X309039Y283649D01*
X309168Y283625D01*
X309296Y283596D01*
X309424Y283564D01*
X309550Y283528D01*
X309675Y283489D01*
X309800Y283446D01*
X309922Y283399D01*
X310044Y283349D01*
X310164Y283295D01*
X310282Y283238D01*
X310398Y283177D01*
X310513Y283113D01*
X310626Y283046D01*
X310737Y282975D01*
X310845Y282901D01*
X310952Y282824D01*
X311056Y282744D01*
X311158Y282661D01*
X311257Y282576D01*
X311354Y282487D01*
X311448Y282395D01*
X311540Y282301D01*
X311629Y282204D01*
X311714Y282105D01*
X311797Y282003D01*
X311877Y281899D01*
X311954Y281792D01*
X312028Y281684D01*
X312099Y281573D01*
X312166Y281460D01*
X312230Y281345D01*
X312291Y281229D01*
X312348Y281111D01*
X312402Y280991D01*
X312452Y280869D01*
X312499Y280747D01*
X312542Y280622D01*
X312581Y280497D01*
X312617Y280371D01*
X312649Y280243D01*
X312678Y280115D01*
X312702Y279986D01*
X312723Y279857D01*
X312740Y279726D01*
X312754Y279596D01*
X312763Y279465D01*
X312769Y279333D01*
X312771Y279202D01*
X312771Y271978D01*
X312769Y271847D01*
X312763Y271715D01*
X312754Y271584D01*
X312740Y271454D01*
X312723Y271323D01*
X312702Y271194D01*
X312678Y271065D01*
X312649Y270937D01*
X312617Y270809D01*
X312581Y270683D01*
X312542Y270558D01*
X312499Y270433D01*
X312452Y270311D01*
X312402Y270189D01*
X312348Y270069D01*
X312291Y269951D01*
X312230Y269835D01*
X312166Y269720D01*
X312099Y269607D01*
X312028Y269496D01*
X311954Y269388D01*
X311877Y269281D01*
X311797Y269177D01*
X311714Y269075D01*
X311629Y268976D01*
X311540Y268879D01*
X311448Y268785D01*
X311354Y268693D01*
X311257Y268604D01*
X311158Y268519D01*
X311056Y268436D01*
X310952Y268356D01*
X310845Y268279D01*
X310737Y268205D01*
X310626Y268134D01*
X310513Y268067D01*
X310398Y268003D01*
X310282Y267942D01*
X310164Y267885D01*
X310044Y267831D01*
X309922Y267781D01*
X309800Y267734D01*
X309675Y267691D01*
X309550Y267652D01*
X309424Y267616D01*
X309296Y267584D01*
X309168Y267555D01*
X309039Y267531D01*
X308909Y267510D01*
X308779Y267493D01*
X308649Y267479D01*
X308518Y267470D01*
X308386Y267464D01*
X308255Y267462D01*
X303740Y267462D01*
X319718Y267462D02*
X319718Y278299D01*
X319267Y282815D02*
X319267Y283718D01*
X320170Y283718D01*
X320170Y282815D01*
X319267Y282815D01*
X327360Y273784D02*
X331876Y271978D01*
X327360Y273784D02*
X327272Y273821D01*
X327186Y273862D01*
X327101Y273906D01*
X327018Y273954D01*
X326938Y274005D01*
X326859Y274059D01*
X326783Y274117D01*
X326709Y274177D01*
X326637Y274241D01*
X326569Y274307D01*
X326503Y274377D01*
X326440Y274448D01*
X326379Y274523D01*
X326322Y274599D01*
X326269Y274678D01*
X326218Y274759D01*
X326171Y274842D01*
X326127Y274927D01*
X326087Y275014D01*
X326050Y275102D01*
X326017Y275192D01*
X325987Y275283D01*
X325962Y275375D01*
X325940Y275468D01*
X325922Y275562D01*
X325907Y275656D01*
X325897Y275751D01*
X325891Y275847D01*
X325888Y275942D01*
X325889Y276038D01*
X325895Y276133D01*
X325904Y276229D01*
X325917Y276323D01*
X325933Y276417D01*
X325954Y276511D01*
X325979Y276603D01*
X326007Y276694D01*
X326039Y276784D01*
X326074Y276873D01*
X326113Y276960D01*
X326156Y277046D01*
X326202Y277130D01*
X326252Y277211D01*
X326304Y277291D01*
X326360Y277369D01*
X326420Y277444D01*
X326482Y277516D01*
X326547Y277586D01*
X326615Y277654D01*
X326685Y277718D01*
X326758Y277780D01*
X326834Y277838D01*
X326912Y277894D01*
X326992Y277946D01*
X327074Y277995D01*
X327158Y278040D01*
X327244Y278082D01*
X327331Y278121D01*
X327420Y278156D01*
X327511Y278187D01*
X327602Y278214D01*
X327695Y278238D01*
X327788Y278258D01*
X327882Y278274D01*
X327977Y278286D01*
X328072Y278295D01*
X328168Y278299D01*
X328263Y278300D01*
X328510Y278293D01*
X328756Y278281D01*
X329002Y278263D01*
X329248Y278238D01*
X329492Y278208D01*
X329736Y278172D01*
X329979Y278131D01*
X330221Y278083D01*
X330462Y278029D01*
X330701Y277970D01*
X330939Y277905D01*
X331175Y277834D01*
X331410Y277758D01*
X331643Y277676D01*
X331873Y277588D01*
X332101Y277495D01*
X332328Y277397D01*
X331876Y271977D02*
X331964Y271940D01*
X332050Y271899D01*
X332135Y271855D01*
X332218Y271807D01*
X332298Y271756D01*
X332377Y271702D01*
X332453Y271644D01*
X332527Y271584D01*
X332599Y271520D01*
X332667Y271454D01*
X332733Y271384D01*
X332796Y271313D01*
X332857Y271238D01*
X332914Y271162D01*
X332967Y271083D01*
X333018Y271002D01*
X333065Y270919D01*
X333109Y270834D01*
X333149Y270747D01*
X333186Y270659D01*
X333219Y270569D01*
X333249Y270478D01*
X333274Y270386D01*
X333296Y270293D01*
X333314Y270199D01*
X333329Y270105D01*
X333339Y270010D01*
X333345Y269914D01*
X333348Y269819D01*
X333347Y269723D01*
X333341Y269628D01*
X333332Y269532D01*
X333319Y269438D01*
X333303Y269344D01*
X333282Y269250D01*
X333257Y269158D01*
X333229Y269067D01*
X333197Y268977D01*
X333162Y268888D01*
X333123Y268801D01*
X333080Y268715D01*
X333034Y268631D01*
X332984Y268550D01*
X332932Y268470D01*
X332876Y268392D01*
X332816Y268317D01*
X332754Y268245D01*
X332689Y268175D01*
X332621Y268107D01*
X332551Y268043D01*
X332478Y267981D01*
X332402Y267923D01*
X332324Y267867D01*
X332244Y267815D01*
X332162Y267766D01*
X332078Y267721D01*
X331992Y267679D01*
X331905Y267640D01*
X331816Y267605D01*
X331725Y267574D01*
X331634Y267547D01*
X331541Y267523D01*
X331448Y267503D01*
X331354Y267487D01*
X331259Y267475D01*
X331164Y267466D01*
X331068Y267462D01*
X330973Y267461D01*
X330972Y267462D02*
X330610Y267471D01*
X330248Y267489D01*
X329887Y267516D01*
X329527Y267551D01*
X329167Y267594D01*
X328808Y267646D01*
X328451Y267707D01*
X328096Y267776D01*
X327742Y267853D01*
X327390Y267939D01*
X327040Y268033D01*
X326692Y268136D01*
X326347Y268246D01*
X326005Y268365D01*
X340147Y262043D02*
X340147Y278299D01*
X344663Y278299D01*
X344767Y278297D01*
X344870Y278291D01*
X344974Y278281D01*
X345077Y278267D01*
X345179Y278249D01*
X345280Y278228D01*
X345381Y278202D01*
X345480Y278173D01*
X345579Y278140D01*
X345676Y278103D01*
X345771Y278062D01*
X345865Y278018D01*
X345957Y277970D01*
X346047Y277919D01*
X346136Y277864D01*
X346222Y277806D01*
X346305Y277744D01*
X346387Y277680D01*
X346465Y277612D01*
X346541Y277542D01*
X346615Y277469D01*
X346685Y277392D01*
X346753Y277314D01*
X346817Y277232D01*
X346879Y277149D01*
X346937Y277063D01*
X346992Y276974D01*
X347043Y276884D01*
X347091Y276792D01*
X347135Y276698D01*
X347176Y276603D01*
X347213Y276506D01*
X347246Y276407D01*
X347275Y276308D01*
X347301Y276207D01*
X347322Y276106D01*
X347340Y276004D01*
X347354Y275901D01*
X347364Y275797D01*
X347370Y275694D01*
X347372Y275590D01*
X347372Y270171D01*
X347370Y270070D01*
X347364Y269969D01*
X347355Y269868D01*
X347342Y269767D01*
X347325Y269667D01*
X347304Y269568D01*
X347280Y269470D01*
X347252Y269373D01*
X347220Y269276D01*
X347185Y269181D01*
X347146Y269088D01*
X347104Y268996D01*
X347058Y268905D01*
X347009Y268817D01*
X346957Y268730D01*
X346901Y268645D01*
X346843Y268562D01*
X346781Y268482D01*
X346716Y268404D01*
X346649Y268328D01*
X346579Y268255D01*
X346506Y268185D01*
X346430Y268118D01*
X346352Y268053D01*
X346272Y267991D01*
X346189Y267933D01*
X346104Y267877D01*
X346018Y267825D01*
X345929Y267776D01*
X345838Y267730D01*
X345746Y267688D01*
X345653Y267649D01*
X345558Y267614D01*
X345461Y267582D01*
X345364Y267554D01*
X345266Y267530D01*
X345167Y267509D01*
X345067Y267492D01*
X344966Y267479D01*
X344865Y267470D01*
X344764Y267464D01*
X344663Y267462D01*
X340147Y267462D01*
X353858Y270171D02*
X353858Y283718D01*
X353858Y270171D02*
X353860Y270070D01*
X353866Y269969D01*
X353875Y269868D01*
X353888Y269767D01*
X353905Y269667D01*
X353926Y269568D01*
X353950Y269470D01*
X353978Y269373D01*
X354010Y269276D01*
X354045Y269181D01*
X354084Y269088D01*
X354126Y268996D01*
X354172Y268905D01*
X354221Y268817D01*
X354273Y268730D01*
X354329Y268645D01*
X354387Y268562D01*
X354449Y268482D01*
X354514Y268404D01*
X354581Y268328D01*
X354651Y268255D01*
X354724Y268185D01*
X354800Y268118D01*
X354878Y268053D01*
X354958Y267991D01*
X355041Y267933D01*
X355126Y267877D01*
X355213Y267825D01*
X355301Y267776D01*
X355392Y267730D01*
X355484Y267688D01*
X355577Y267649D01*
X355672Y267614D01*
X355769Y267582D01*
X355866Y267554D01*
X355964Y267530D01*
X356063Y267509D01*
X356163Y267492D01*
X356264Y267479D01*
X356365Y267470D01*
X356466Y267464D01*
X356567Y267462D01*
X365045Y273784D02*
X369109Y273784D01*
X365045Y273784D02*
X364933Y273782D01*
X364822Y273776D01*
X364711Y273766D01*
X364600Y273753D01*
X364490Y273735D01*
X364381Y273713D01*
X364272Y273688D01*
X364164Y273659D01*
X364058Y273626D01*
X363952Y273589D01*
X363848Y273549D01*
X363746Y273505D01*
X363645Y273457D01*
X363546Y273406D01*
X363448Y273351D01*
X363353Y273293D01*
X363260Y273232D01*
X363169Y273167D01*
X363080Y273099D01*
X362994Y273028D01*
X362911Y272955D01*
X362830Y272878D01*
X362751Y272798D01*
X362676Y272716D01*
X362604Y272631D01*
X362534Y272544D01*
X362468Y272454D01*
X362405Y272362D01*
X362345Y272267D01*
X362289Y272171D01*
X362236Y272073D01*
X362187Y271973D01*
X362141Y271871D01*
X362099Y271768D01*
X362060Y271663D01*
X362025Y271557D01*
X361994Y271450D01*
X361967Y271342D01*
X361943Y271233D01*
X361924Y271123D01*
X361908Y271013D01*
X361896Y270902D01*
X361888Y270790D01*
X361884Y270679D01*
X361884Y270567D01*
X361888Y270456D01*
X361896Y270344D01*
X361908Y270233D01*
X361924Y270123D01*
X361943Y270013D01*
X361967Y269904D01*
X361994Y269796D01*
X362025Y269689D01*
X362060Y269583D01*
X362099Y269478D01*
X362141Y269375D01*
X362187Y269273D01*
X362236Y269173D01*
X362289Y269075D01*
X362345Y268979D01*
X362405Y268884D01*
X362468Y268792D01*
X362534Y268702D01*
X362604Y268615D01*
X362676Y268530D01*
X362751Y268448D01*
X362830Y268368D01*
X362911Y268291D01*
X362994Y268218D01*
X363080Y268147D01*
X363169Y268079D01*
X363260Y268014D01*
X363353Y267953D01*
X363448Y267895D01*
X363546Y267840D01*
X363645Y267789D01*
X363746Y267741D01*
X363848Y267697D01*
X363952Y267657D01*
X364058Y267620D01*
X364164Y267587D01*
X364272Y267558D01*
X364381Y267533D01*
X364490Y267511D01*
X364600Y267493D01*
X364711Y267480D01*
X364822Y267470D01*
X364933Y267464D01*
X365045Y267462D01*
X369109Y267462D01*
X369109Y275590D01*
X369107Y275691D01*
X369101Y275792D01*
X369092Y275893D01*
X369079Y275994D01*
X369062Y276094D01*
X369041Y276193D01*
X369017Y276291D01*
X368989Y276388D01*
X368957Y276485D01*
X368922Y276580D01*
X368883Y276673D01*
X368841Y276765D01*
X368795Y276856D01*
X368746Y276945D01*
X368694Y277031D01*
X368638Y277116D01*
X368580Y277199D01*
X368518Y277279D01*
X368453Y277357D01*
X368386Y277433D01*
X368316Y277506D01*
X368243Y277576D01*
X368167Y277643D01*
X368089Y277708D01*
X368009Y277770D01*
X367926Y277828D01*
X367841Y277884D01*
X367755Y277936D01*
X367666Y277985D01*
X367575Y278031D01*
X367483Y278073D01*
X367390Y278112D01*
X367295Y278147D01*
X367198Y278179D01*
X367101Y278207D01*
X367003Y278231D01*
X366904Y278252D01*
X366804Y278269D01*
X366703Y278282D01*
X366602Y278291D01*
X366501Y278297D01*
X366400Y278299D01*
X362787Y278299D01*
X375504Y262043D02*
X377311Y262043D01*
X382729Y278299D01*
X375504Y278299D02*
X379117Y267462D01*
X661501Y140462D02*
X672338Y140462D01*
X661501Y140462D02*
X661501Y148590D01*
X661503Y148691D01*
X661509Y148792D01*
X661518Y148893D01*
X661531Y148994D01*
X661548Y149094D01*
X661569Y149193D01*
X661593Y149291D01*
X661621Y149388D01*
X661653Y149485D01*
X661688Y149580D01*
X661727Y149673D01*
X661769Y149765D01*
X661815Y149856D01*
X661864Y149945D01*
X661916Y150031D01*
X661972Y150116D01*
X662030Y150199D01*
X662092Y150279D01*
X662157Y150357D01*
X662224Y150433D01*
X662294Y150506D01*
X662367Y150576D01*
X662443Y150643D01*
X662521Y150708D01*
X662601Y150770D01*
X662684Y150828D01*
X662769Y150884D01*
X662856Y150936D01*
X662944Y150985D01*
X663035Y151031D01*
X663127Y151073D01*
X663220Y151112D01*
X663315Y151147D01*
X663412Y151179D01*
X663509Y151207D01*
X663607Y151231D01*
X663706Y151252D01*
X663806Y151269D01*
X663907Y151282D01*
X664008Y151291D01*
X664109Y151297D01*
X664210Y151299D01*
X672338Y151299D01*
X672338Y145881D02*
X661501Y145881D01*
X661501Y158386D02*
X672338Y158386D01*
X656985Y157934D02*
X656082Y157934D01*
X656082Y158837D01*
X656985Y158837D01*
X656985Y157934D01*
X672338Y167400D02*
X672338Y171012D01*
X672338Y167400D02*
X672336Y167299D01*
X672330Y167198D01*
X672321Y167097D01*
X672308Y166996D01*
X672291Y166896D01*
X672270Y166797D01*
X672246Y166699D01*
X672218Y166602D01*
X672186Y166505D01*
X672151Y166410D01*
X672112Y166317D01*
X672070Y166225D01*
X672024Y166134D01*
X671975Y166045D01*
X671923Y165959D01*
X671867Y165874D01*
X671809Y165791D01*
X671747Y165711D01*
X671682Y165633D01*
X671615Y165557D01*
X671545Y165484D01*
X671472Y165414D01*
X671396Y165347D01*
X671318Y165282D01*
X671238Y165220D01*
X671155Y165162D01*
X671070Y165106D01*
X670984Y165054D01*
X670895Y165005D01*
X670804Y164959D01*
X670712Y164917D01*
X670619Y164878D01*
X670524Y164843D01*
X670427Y164811D01*
X670330Y164783D01*
X670232Y164759D01*
X670133Y164738D01*
X670033Y164721D01*
X669932Y164708D01*
X669831Y164699D01*
X669730Y164693D01*
X669629Y164691D01*
X664210Y164691D01*
X664109Y164693D01*
X664008Y164699D01*
X663907Y164708D01*
X663806Y164721D01*
X663706Y164738D01*
X663607Y164759D01*
X663509Y164783D01*
X663412Y164811D01*
X663315Y164843D01*
X663220Y164878D01*
X663127Y164917D01*
X663035Y164959D01*
X662944Y165005D01*
X662856Y165054D01*
X662769Y165106D01*
X662684Y165162D01*
X662601Y165220D01*
X662521Y165282D01*
X662443Y165347D01*
X662367Y165414D01*
X662294Y165484D01*
X662224Y165557D01*
X662157Y165633D01*
X662092Y165711D01*
X662030Y165791D01*
X661972Y165874D01*
X661916Y165959D01*
X661864Y166046D01*
X661815Y166134D01*
X661769Y166225D01*
X661727Y166317D01*
X661688Y166410D01*
X661653Y166505D01*
X661621Y166602D01*
X661593Y166699D01*
X661569Y166797D01*
X661548Y166896D01*
X661531Y166996D01*
X661518Y167097D01*
X661509Y167198D01*
X661503Y167299D01*
X661501Y167400D01*
X661501Y171012D01*
X661501Y177263D02*
X672338Y177263D01*
X661501Y177263D02*
X661501Y182682D01*
X663307Y182682D01*
X665113Y187599D02*
X668726Y187599D01*
X665113Y187599D02*
X664994Y187601D01*
X664874Y187607D01*
X664755Y187617D01*
X664637Y187631D01*
X664518Y187648D01*
X664401Y187670D01*
X664284Y187695D01*
X664169Y187725D01*
X664054Y187758D01*
X663940Y187795D01*
X663828Y187835D01*
X663717Y187880D01*
X663608Y187928D01*
X663500Y187979D01*
X663394Y188034D01*
X663290Y188093D01*
X663188Y188155D01*
X663088Y188220D01*
X662990Y188289D01*
X662894Y188361D01*
X662801Y188436D01*
X662711Y188513D01*
X662623Y188594D01*
X662538Y188678D01*
X662456Y188765D01*
X662376Y188854D01*
X662300Y188946D01*
X662226Y189040D01*
X662156Y189137D01*
X662089Y189235D01*
X662025Y189336D01*
X661965Y189440D01*
X661908Y189545D01*
X661855Y189652D01*
X661805Y189760D01*
X661759Y189870D01*
X661717Y189982D01*
X661678Y190095D01*
X661643Y190209D01*
X661612Y190324D01*
X661584Y190441D01*
X661561Y190558D01*
X661541Y190675D01*
X661525Y190794D01*
X661513Y190913D01*
X661505Y191032D01*
X661501Y191151D01*
X661501Y191271D01*
X661505Y191390D01*
X661513Y191509D01*
X661525Y191628D01*
X661541Y191747D01*
X661561Y191864D01*
X661584Y191981D01*
X661612Y192098D01*
X661643Y192213D01*
X661678Y192327D01*
X661717Y192440D01*
X661759Y192552D01*
X661805Y192662D01*
X661855Y192770D01*
X661908Y192877D01*
X661965Y192982D01*
X662025Y193086D01*
X662089Y193187D01*
X662156Y193285D01*
X662226Y193382D01*
X662300Y193476D01*
X662376Y193568D01*
X662456Y193657D01*
X662538Y193744D01*
X662623Y193828D01*
X662711Y193909D01*
X662801Y193986D01*
X662894Y194061D01*
X662990Y194133D01*
X663088Y194202D01*
X663188Y194267D01*
X663290Y194329D01*
X663394Y194388D01*
X663500Y194443D01*
X663608Y194494D01*
X663717Y194542D01*
X663828Y194587D01*
X663940Y194627D01*
X664054Y194664D01*
X664169Y194697D01*
X664284Y194727D01*
X664401Y194752D01*
X664518Y194774D01*
X664637Y194791D01*
X664755Y194805D01*
X664874Y194815D01*
X664994Y194821D01*
X665113Y194823D01*
X665113Y194824D02*
X668726Y194824D01*
X668726Y194823D02*
X668845Y194821D01*
X668965Y194815D01*
X669084Y194805D01*
X669202Y194791D01*
X669321Y194774D01*
X669438Y194752D01*
X669555Y194727D01*
X669670Y194697D01*
X669785Y194664D01*
X669899Y194627D01*
X670011Y194587D01*
X670122Y194542D01*
X670231Y194494D01*
X670339Y194443D01*
X670445Y194388D01*
X670549Y194329D01*
X670651Y194267D01*
X670751Y194202D01*
X670849Y194133D01*
X670945Y194061D01*
X671038Y193986D01*
X671128Y193909D01*
X671216Y193828D01*
X671301Y193744D01*
X671383Y193657D01*
X671463Y193568D01*
X671539Y193476D01*
X671613Y193382D01*
X671683Y193285D01*
X671750Y193187D01*
X671814Y193086D01*
X671874Y192982D01*
X671931Y192877D01*
X671984Y192770D01*
X672034Y192662D01*
X672080Y192552D01*
X672122Y192440D01*
X672161Y192327D01*
X672196Y192213D01*
X672227Y192098D01*
X672255Y191981D01*
X672278Y191864D01*
X672298Y191747D01*
X672314Y191628D01*
X672326Y191509D01*
X672334Y191390D01*
X672338Y191271D01*
X672338Y191151D01*
X672334Y191032D01*
X672326Y190913D01*
X672314Y190794D01*
X672298Y190675D01*
X672278Y190558D01*
X672255Y190441D01*
X672227Y190324D01*
X672196Y190209D01*
X672161Y190095D01*
X672122Y189982D01*
X672080Y189870D01*
X672034Y189760D01*
X671984Y189652D01*
X671931Y189545D01*
X671874Y189440D01*
X671814Y189336D01*
X671750Y189235D01*
X671683Y189137D01*
X671613Y189040D01*
X671539Y188946D01*
X671463Y188854D01*
X671383Y188765D01*
X671301Y188678D01*
X671216Y188594D01*
X671128Y188513D01*
X671038Y188436D01*
X670945Y188361D01*
X670849Y188289D01*
X670751Y188220D01*
X670651Y188155D01*
X670549Y188093D01*
X670445Y188034D01*
X670339Y187979D01*
X670231Y187928D01*
X670122Y187880D01*
X670011Y187835D01*
X669899Y187795D01*
X669785Y187758D01*
X669670Y187725D01*
X669555Y187695D01*
X669438Y187670D01*
X669321Y187648D01*
X669202Y187631D01*
X669084Y187617D01*
X668965Y187607D01*
X668845Y187601D01*
X668726Y187599D01*
X672338Y206182D02*
X672336Y206300D01*
X672330Y206418D01*
X672321Y206536D01*
X672307Y206653D01*
X672290Y206770D01*
X672269Y206887D01*
X672244Y207002D01*
X672215Y207117D01*
X672182Y207231D01*
X672146Y207343D01*
X672106Y207454D01*
X672063Y207564D01*
X672016Y207673D01*
X671966Y207780D01*
X671911Y207885D01*
X671854Y207988D01*
X671793Y208089D01*
X671729Y208189D01*
X671662Y208286D01*
X671592Y208381D01*
X671518Y208473D01*
X671442Y208564D01*
X671362Y208651D01*
X671280Y208736D01*
X671195Y208818D01*
X671108Y208898D01*
X671017Y208974D01*
X670925Y209048D01*
X670830Y209118D01*
X670733Y209185D01*
X670633Y209249D01*
X670532Y209310D01*
X670429Y209367D01*
X670324Y209422D01*
X670217Y209472D01*
X670108Y209519D01*
X669998Y209562D01*
X669887Y209602D01*
X669775Y209638D01*
X669661Y209671D01*
X669546Y209700D01*
X669431Y209725D01*
X669314Y209746D01*
X669197Y209763D01*
X669080Y209777D01*
X668962Y209786D01*
X668844Y209792D01*
X668726Y209794D01*
X672338Y206182D02*
X672336Y205999D01*
X672329Y205817D01*
X672318Y205635D01*
X672303Y205453D01*
X672283Y205271D01*
X672260Y205090D01*
X672231Y204910D01*
X672199Y204730D01*
X672162Y204551D01*
X672121Y204374D01*
X672075Y204197D01*
X672026Y204021D01*
X671972Y203847D01*
X671914Y203673D01*
X671852Y203502D01*
X671786Y203332D01*
X671715Y203163D01*
X671641Y202996D01*
X671563Y202831D01*
X671481Y202668D01*
X671395Y202507D01*
X671305Y202348D01*
X671211Y202191D01*
X671114Y202037D01*
X671013Y201885D01*
X670908Y201735D01*
X670800Y201588D01*
X670689Y201444D01*
X670574Y201302D01*
X670455Y201163D01*
X670333Y201027D01*
X670208Y200894D01*
X670080Y200764D01*
X659694Y201216D02*
X659576Y201218D01*
X659458Y201224D01*
X659340Y201233D01*
X659223Y201247D01*
X659106Y201264D01*
X658989Y201285D01*
X658874Y201310D01*
X658759Y201339D01*
X658645Y201372D01*
X658533Y201408D01*
X658422Y201448D01*
X658312Y201491D01*
X658203Y201538D01*
X658096Y201588D01*
X657991Y201643D01*
X657888Y201700D01*
X657787Y201761D01*
X657687Y201825D01*
X657590Y201892D01*
X657495Y201962D01*
X657403Y202036D01*
X657312Y202112D01*
X657225Y202192D01*
X657140Y202274D01*
X657058Y202359D01*
X656978Y202446D01*
X656902Y202537D01*
X656828Y202629D01*
X656758Y202724D01*
X656691Y202821D01*
X656627Y202921D01*
X656566Y203022D01*
X656509Y203125D01*
X656454Y203230D01*
X656404Y203337D01*
X656357Y203446D01*
X656314Y203556D01*
X656274Y203667D01*
X656238Y203779D01*
X656205Y203893D01*
X656176Y204008D01*
X656151Y204123D01*
X656130Y204240D01*
X656113Y204357D01*
X656099Y204474D01*
X656090Y204592D01*
X656084Y204710D01*
X656082Y204828D01*
X656084Y204989D01*
X656090Y205151D01*
X656099Y205312D01*
X656113Y205473D01*
X656130Y205633D01*
X656151Y205793D01*
X656176Y205953D01*
X656205Y206112D01*
X656237Y206270D01*
X656273Y206427D01*
X656313Y206583D01*
X656357Y206739D01*
X656405Y206893D01*
X656456Y207046D01*
X656510Y207198D01*
X656569Y207349D01*
X656630Y207498D01*
X656696Y207645D01*
X656765Y207791D01*
X656837Y207936D01*
X656913Y208078D01*
X656992Y208219D01*
X657074Y208358D01*
X657160Y208494D01*
X657249Y208629D01*
X657341Y208762D01*
X657437Y208892D01*
X662855Y203021D02*
X662793Y202920D01*
X662728Y202820D01*
X662659Y202723D01*
X662587Y202628D01*
X662513Y202535D01*
X662435Y202445D01*
X662354Y202357D01*
X662271Y202272D01*
X662185Y202190D01*
X662096Y202111D01*
X662005Y202034D01*
X661911Y201961D01*
X661815Y201890D01*
X661717Y201823D01*
X661617Y201759D01*
X661514Y201698D01*
X661410Y201641D01*
X661304Y201587D01*
X661196Y201537D01*
X661087Y201490D01*
X660976Y201446D01*
X660864Y201406D01*
X660750Y201370D01*
X660636Y201338D01*
X660520Y201309D01*
X660404Y201284D01*
X660287Y201263D01*
X660169Y201246D01*
X660051Y201232D01*
X659932Y201223D01*
X659813Y201217D01*
X659694Y201215D01*
X665565Y207989D02*
X665627Y208090D01*
X665692Y208190D01*
X665761Y208287D01*
X665833Y208382D01*
X665907Y208475D01*
X665985Y208565D01*
X666066Y208653D01*
X666149Y208738D01*
X666235Y208820D01*
X666324Y208899D01*
X666415Y208976D01*
X666509Y209049D01*
X666605Y209120D01*
X666703Y209187D01*
X666803Y209251D01*
X666906Y209312D01*
X667010Y209369D01*
X667116Y209423D01*
X667224Y209473D01*
X667333Y209520D01*
X667444Y209564D01*
X667556Y209604D01*
X667670Y209640D01*
X667784Y209672D01*
X667900Y209701D01*
X668016Y209726D01*
X668133Y209747D01*
X668251Y209764D01*
X668369Y209778D01*
X668488Y209787D01*
X668607Y209793D01*
X668726Y209795D01*
X665565Y207989D02*
X662855Y203022D01*
X656082Y216395D02*
X672338Y216395D01*
X656082Y216395D02*
X656082Y220911D01*
X656084Y221042D01*
X656090Y221174D01*
X656099Y221305D01*
X656113Y221435D01*
X656130Y221566D01*
X656151Y221695D01*
X656175Y221824D01*
X656204Y221952D01*
X656236Y222080D01*
X656272Y222206D01*
X656311Y222331D01*
X656354Y222456D01*
X656401Y222578D01*
X656451Y222700D01*
X656505Y222820D01*
X656562Y222938D01*
X656623Y223054D01*
X656687Y223169D01*
X656754Y223282D01*
X656825Y223393D01*
X656899Y223501D01*
X656976Y223608D01*
X657056Y223712D01*
X657139Y223814D01*
X657224Y223913D01*
X657313Y224010D01*
X657405Y224104D01*
X657499Y224196D01*
X657596Y224285D01*
X657695Y224370D01*
X657797Y224453D01*
X657901Y224533D01*
X658008Y224610D01*
X658116Y224684D01*
X658227Y224755D01*
X658340Y224822D01*
X658455Y224886D01*
X658571Y224947D01*
X658689Y225004D01*
X658809Y225058D01*
X658931Y225108D01*
X659053Y225155D01*
X659178Y225198D01*
X659303Y225237D01*
X659429Y225273D01*
X659557Y225305D01*
X659685Y225334D01*
X659814Y225358D01*
X659943Y225379D01*
X660074Y225396D01*
X660204Y225410D01*
X660335Y225419D01*
X660467Y225425D01*
X660598Y225427D01*
X660598Y225426D02*
X667822Y225426D01*
X667822Y225427D02*
X667953Y225425D01*
X668085Y225419D01*
X668216Y225410D01*
X668346Y225396D01*
X668477Y225379D01*
X668606Y225358D01*
X668735Y225334D01*
X668863Y225305D01*
X668991Y225273D01*
X669117Y225237D01*
X669242Y225198D01*
X669367Y225155D01*
X669489Y225108D01*
X669611Y225058D01*
X669731Y225004D01*
X669849Y224947D01*
X669965Y224886D01*
X670080Y224822D01*
X670193Y224755D01*
X670304Y224684D01*
X670412Y224610D01*
X670519Y224533D01*
X670623Y224453D01*
X670725Y224370D01*
X670824Y224285D01*
X670921Y224196D01*
X671015Y224104D01*
X671107Y224010D01*
X671196Y223913D01*
X671281Y223814D01*
X671364Y223712D01*
X671444Y223608D01*
X671521Y223501D01*
X671595Y223393D01*
X671666Y223282D01*
X671733Y223169D01*
X671797Y223054D01*
X671858Y222938D01*
X671915Y222820D01*
X671969Y222700D01*
X672019Y222578D01*
X672066Y222456D01*
X672109Y222331D01*
X672148Y222206D01*
X672184Y222080D01*
X672216Y221952D01*
X672245Y221824D01*
X672269Y221695D01*
X672290Y221565D01*
X672307Y221435D01*
X672321Y221305D01*
X672330Y221174D01*
X672336Y221042D01*
X672338Y220911D01*
X672338Y216395D01*
X324118Y215138D02*
X324118Y207066D01*
X324119Y207066D02*
X324121Y206955D01*
X324127Y206845D01*
X324137Y206734D01*
X324151Y206624D01*
X324168Y206515D01*
X324190Y206406D01*
X324215Y206298D01*
X324245Y206192D01*
X324278Y206086D01*
X324315Y205981D01*
X324355Y205878D01*
X324400Y205777D01*
X324447Y205677D01*
X324499Y205578D01*
X324554Y205482D01*
X324612Y205388D01*
X324673Y205296D01*
X324738Y205206D01*
X324806Y205118D01*
X324877Y205033D01*
X324951Y204951D01*
X325028Y204871D01*
X325108Y204794D01*
X325190Y204720D01*
X325275Y204649D01*
X325363Y204581D01*
X325453Y204516D01*
X325545Y204455D01*
X325639Y204397D01*
X325735Y204342D01*
X325834Y204290D01*
X325934Y204243D01*
X326035Y204198D01*
X326138Y204158D01*
X326243Y204121D01*
X326349Y204088D01*
X326455Y204058D01*
X326563Y204033D01*
X326672Y204011D01*
X326781Y203994D01*
X326891Y203980D01*
X327002Y203970D01*
X327112Y203964D01*
X327223Y203962D01*
X327334Y203964D01*
X327444Y203970D01*
X327555Y203980D01*
X327665Y203994D01*
X327774Y204011D01*
X327883Y204033D01*
X327991Y204058D01*
X328097Y204088D01*
X328203Y204121D01*
X328308Y204158D01*
X328411Y204198D01*
X328512Y204243D01*
X328612Y204290D01*
X328711Y204342D01*
X328807Y204397D01*
X328901Y204455D01*
X328993Y204516D01*
X329083Y204581D01*
X329171Y204649D01*
X329256Y204720D01*
X329338Y204794D01*
X329418Y204871D01*
X329495Y204951D01*
X329569Y205033D01*
X329640Y205118D01*
X329708Y205206D01*
X329773Y205296D01*
X329834Y205388D01*
X329892Y205482D01*
X329947Y205578D01*
X329999Y205677D01*
X330046Y205777D01*
X330091Y205878D01*
X330131Y205981D01*
X330168Y206086D01*
X330201Y206192D01*
X330231Y206298D01*
X330256Y206406D01*
X330278Y206515D01*
X330295Y206624D01*
X330309Y206734D01*
X330319Y206845D01*
X330325Y206955D01*
X330327Y207066D01*
X330327Y215138D01*
X335929Y203962D02*
X339034Y203962D01*
X339145Y203964D01*
X339255Y203970D01*
X339366Y203980D01*
X339476Y203994D01*
X339585Y204011D01*
X339694Y204033D01*
X339802Y204058D01*
X339908Y204088D01*
X340014Y204121D01*
X340119Y204158D01*
X340222Y204198D01*
X340323Y204243D01*
X340423Y204290D01*
X340522Y204342D01*
X340618Y204397D01*
X340712Y204455D01*
X340804Y204516D01*
X340894Y204581D01*
X340982Y204649D01*
X341067Y204720D01*
X341149Y204794D01*
X341229Y204871D01*
X341306Y204951D01*
X341380Y205033D01*
X341451Y205118D01*
X341519Y205206D01*
X341584Y205296D01*
X341645Y205388D01*
X341703Y205482D01*
X341758Y205578D01*
X341810Y205677D01*
X341857Y205777D01*
X341902Y205878D01*
X341942Y205981D01*
X341979Y206086D01*
X342012Y206192D01*
X342042Y206298D01*
X342067Y206406D01*
X342089Y206515D01*
X342106Y206624D01*
X342120Y206734D01*
X342130Y206845D01*
X342136Y206955D01*
X342138Y207066D01*
X342136Y207177D01*
X342130Y207287D01*
X342120Y207398D01*
X342106Y207508D01*
X342089Y207617D01*
X342067Y207726D01*
X342042Y207834D01*
X342012Y207940D01*
X341979Y208046D01*
X341942Y208151D01*
X341902Y208254D01*
X341857Y208355D01*
X341810Y208455D01*
X341758Y208554D01*
X341703Y208650D01*
X341645Y208744D01*
X341584Y208836D01*
X341519Y208926D01*
X341451Y209014D01*
X341380Y209099D01*
X341306Y209181D01*
X341229Y209261D01*
X341149Y209338D01*
X341067Y209412D01*
X340982Y209483D01*
X340894Y209551D01*
X340804Y209616D01*
X340712Y209677D01*
X340618Y209735D01*
X340522Y209790D01*
X340423Y209842D01*
X340323Y209889D01*
X340222Y209934D01*
X340119Y209974D01*
X340014Y210011D01*
X339908Y210044D01*
X339802Y210074D01*
X339694Y210099D01*
X339585Y210121D01*
X339476Y210138D01*
X339366Y210152D01*
X339255Y210162D01*
X339145Y210168D01*
X339034Y210170D01*
X339654Y215138D02*
X335929Y215138D01*
X339654Y215138D02*
X339753Y215136D01*
X339851Y215130D01*
X339950Y215120D01*
X340047Y215107D01*
X340145Y215089D01*
X340241Y215068D01*
X340337Y215042D01*
X340431Y215013D01*
X340524Y214981D01*
X340616Y214944D01*
X340706Y214904D01*
X340795Y214860D01*
X340882Y214813D01*
X340967Y214763D01*
X341049Y214709D01*
X341130Y214652D01*
X341208Y214592D01*
X341284Y214528D01*
X341357Y214462D01*
X341428Y214393D01*
X341496Y214321D01*
X341560Y214246D01*
X341622Y214169D01*
X341681Y214090D01*
X341736Y214008D01*
X341789Y213924D01*
X341837Y213839D01*
X341883Y213751D01*
X341925Y213661D01*
X341963Y213570D01*
X341997Y213478D01*
X342028Y213384D01*
X342055Y213289D01*
X342079Y213193D01*
X342098Y213096D01*
X342114Y212999D01*
X342126Y212901D01*
X342134Y212802D01*
X342138Y212703D01*
X342138Y212605D01*
X342134Y212506D01*
X342126Y212407D01*
X342114Y212309D01*
X342098Y212212D01*
X342079Y212115D01*
X342055Y212019D01*
X342028Y211924D01*
X341997Y211830D01*
X341963Y211738D01*
X341925Y211647D01*
X341883Y211557D01*
X341837Y211469D01*
X341789Y211384D01*
X341736Y211300D01*
X341681Y211218D01*
X341622Y211139D01*
X341560Y211062D01*
X341496Y210987D01*
X341428Y210915D01*
X341357Y210846D01*
X341284Y210780D01*
X341208Y210716D01*
X341130Y210656D01*
X341049Y210599D01*
X340967Y210545D01*
X340882Y210495D01*
X340795Y210448D01*
X340706Y210404D01*
X340616Y210364D01*
X340524Y210327D01*
X340431Y210295D01*
X340337Y210266D01*
X340241Y210240D01*
X340145Y210219D01*
X340047Y210201D01*
X339950Y210188D01*
X339851Y210178D01*
X339753Y210172D01*
X339654Y210170D01*
X339654Y210171D02*
X337171Y210171D01*
D15*
X304800Y139450D02*
X304802Y139513D01*
X304808Y139575D01*
X304818Y139637D01*
X304831Y139699D01*
X304849Y139759D01*
X304870Y139818D01*
X304895Y139876D01*
X304924Y139932D01*
X304956Y139986D01*
X304991Y140038D01*
X305029Y140087D01*
X305071Y140135D01*
X305115Y140179D01*
X305163Y140221D01*
X305212Y140259D01*
X305264Y140294D01*
X305318Y140326D01*
X305374Y140355D01*
X305432Y140380D01*
X305491Y140401D01*
X305551Y140419D01*
X305613Y140432D01*
X305675Y140442D01*
X305737Y140448D01*
X305800Y140450D01*
X305863Y140448D01*
X305925Y140442D01*
X305987Y140432D01*
X306049Y140419D01*
X306109Y140401D01*
X306168Y140380D01*
X306226Y140355D01*
X306282Y140326D01*
X306336Y140294D01*
X306388Y140259D01*
X306437Y140221D01*
X306485Y140179D01*
X306529Y140135D01*
X306571Y140087D01*
X306609Y140038D01*
X306644Y139986D01*
X306676Y139932D01*
X306705Y139876D01*
X306730Y139818D01*
X306751Y139759D01*
X306769Y139699D01*
X306782Y139637D01*
X306792Y139575D01*
X306798Y139513D01*
X306800Y139450D01*
X306798Y139387D01*
X306792Y139325D01*
X306782Y139263D01*
X306769Y139201D01*
X306751Y139141D01*
X306730Y139082D01*
X306705Y139024D01*
X306676Y138968D01*
X306644Y138914D01*
X306609Y138862D01*
X306571Y138813D01*
X306529Y138765D01*
X306485Y138721D01*
X306437Y138679D01*
X306388Y138641D01*
X306336Y138606D01*
X306282Y138574D01*
X306226Y138545D01*
X306168Y138520D01*
X306109Y138499D01*
X306049Y138481D01*
X305987Y138468D01*
X305925Y138458D01*
X305863Y138452D01*
X305800Y138450D01*
X305737Y138452D01*
X305675Y138458D01*
X305613Y138468D01*
X305551Y138481D01*
X305491Y138499D01*
X305432Y138520D01*
X305374Y138545D01*
X305318Y138574D01*
X305264Y138606D01*
X305212Y138641D01*
X305163Y138679D01*
X305115Y138721D01*
X305071Y138765D01*
X305029Y138813D01*
X304991Y138862D01*
X304956Y138914D01*
X304924Y138968D01*
X304895Y139024D01*
X304870Y139082D01*
X304849Y139141D01*
X304831Y139201D01*
X304818Y139263D01*
X304808Y139325D01*
X304802Y139387D01*
X304800Y139450D01*
D11*
X285900Y134200D02*
X241900Y134200D01*
X241900Y203200D02*
X285900Y203200D01*
D10*
X261068Y217616D02*
X261068Y225688D01*
X261069Y217616D02*
X261071Y217505D01*
X261077Y217395D01*
X261087Y217284D01*
X261101Y217174D01*
X261118Y217065D01*
X261140Y216956D01*
X261165Y216848D01*
X261195Y216742D01*
X261228Y216636D01*
X261265Y216531D01*
X261305Y216428D01*
X261350Y216327D01*
X261397Y216227D01*
X261449Y216128D01*
X261504Y216032D01*
X261562Y215938D01*
X261623Y215846D01*
X261688Y215756D01*
X261756Y215668D01*
X261827Y215583D01*
X261901Y215501D01*
X261978Y215421D01*
X262058Y215344D01*
X262140Y215270D01*
X262225Y215199D01*
X262313Y215131D01*
X262403Y215066D01*
X262495Y215005D01*
X262589Y214947D01*
X262685Y214892D01*
X262784Y214840D01*
X262884Y214793D01*
X262985Y214748D01*
X263088Y214708D01*
X263193Y214671D01*
X263299Y214638D01*
X263405Y214608D01*
X263513Y214583D01*
X263622Y214561D01*
X263731Y214544D01*
X263841Y214530D01*
X263952Y214520D01*
X264062Y214514D01*
X264173Y214512D01*
X264284Y214514D01*
X264394Y214520D01*
X264505Y214530D01*
X264615Y214544D01*
X264724Y214561D01*
X264833Y214583D01*
X264941Y214608D01*
X265047Y214638D01*
X265153Y214671D01*
X265258Y214708D01*
X265361Y214748D01*
X265462Y214793D01*
X265562Y214840D01*
X265661Y214892D01*
X265757Y214947D01*
X265851Y215005D01*
X265943Y215066D01*
X266033Y215131D01*
X266121Y215199D01*
X266206Y215270D01*
X266288Y215344D01*
X266368Y215421D01*
X266445Y215501D01*
X266519Y215583D01*
X266590Y215668D01*
X266658Y215756D01*
X266723Y215846D01*
X266784Y215938D01*
X266842Y216032D01*
X266897Y216128D01*
X266949Y216227D01*
X266996Y216327D01*
X267041Y216428D01*
X267081Y216531D01*
X267118Y216636D01*
X267151Y216742D01*
X267181Y216848D01*
X267206Y216956D01*
X267228Y217065D01*
X267245Y217174D01*
X267259Y217284D01*
X267269Y217395D01*
X267275Y217505D01*
X267277Y217616D01*
X267277Y225688D01*
X275363Y225688D02*
X272879Y216996D01*
X279088Y216996D01*
X277225Y219479D02*
X277225Y214512D01*
X714700Y243600D02*
X714700Y112300D01*
X714700Y243600D02*
X574700Y243600D01*
X574700Y112300D01*
X714700Y112300D01*
X558434Y74962D02*
X550362Y74962D01*
X558434Y74962D02*
X558545Y74964D01*
X558655Y74970D01*
X558766Y74980D01*
X558876Y74994D01*
X558985Y75011D01*
X559094Y75033D01*
X559202Y75058D01*
X559308Y75088D01*
X559414Y75121D01*
X559519Y75158D01*
X559622Y75198D01*
X559723Y75243D01*
X559823Y75290D01*
X559922Y75342D01*
X560018Y75397D01*
X560112Y75455D01*
X560204Y75516D01*
X560294Y75581D01*
X560382Y75649D01*
X560467Y75720D01*
X560549Y75794D01*
X560629Y75871D01*
X560706Y75951D01*
X560780Y76033D01*
X560851Y76118D01*
X560919Y76206D01*
X560984Y76296D01*
X561045Y76388D01*
X561103Y76482D01*
X561158Y76578D01*
X561210Y76677D01*
X561257Y76777D01*
X561302Y76878D01*
X561342Y76981D01*
X561379Y77086D01*
X561412Y77192D01*
X561442Y77298D01*
X561467Y77406D01*
X561489Y77515D01*
X561506Y77624D01*
X561520Y77734D01*
X561530Y77845D01*
X561536Y77955D01*
X561538Y78066D01*
X561536Y78177D01*
X561530Y78287D01*
X561520Y78398D01*
X561506Y78508D01*
X561489Y78617D01*
X561467Y78726D01*
X561442Y78834D01*
X561412Y78940D01*
X561379Y79046D01*
X561342Y79151D01*
X561302Y79254D01*
X561257Y79355D01*
X561210Y79455D01*
X561158Y79554D01*
X561103Y79650D01*
X561045Y79744D01*
X560984Y79836D01*
X560919Y79926D01*
X560851Y80014D01*
X560780Y80099D01*
X560706Y80181D01*
X560629Y80261D01*
X560549Y80338D01*
X560467Y80412D01*
X560382Y80483D01*
X560294Y80551D01*
X560204Y80616D01*
X560112Y80677D01*
X560018Y80735D01*
X559922Y80790D01*
X559823Y80842D01*
X559723Y80889D01*
X559622Y80934D01*
X559519Y80974D01*
X559414Y81011D01*
X559308Y81044D01*
X559202Y81074D01*
X559094Y81099D01*
X558985Y81121D01*
X558876Y81138D01*
X558766Y81152D01*
X558655Y81162D01*
X558545Y81168D01*
X558434Y81170D01*
X558434Y81171D02*
X550362Y81171D01*
X561538Y86773D02*
X561538Y90498D01*
X561536Y90596D01*
X561530Y90693D01*
X561521Y90790D01*
X561507Y90887D01*
X561490Y90983D01*
X561469Y91078D01*
X561445Y91172D01*
X561416Y91266D01*
X561384Y91358D01*
X561349Y91449D01*
X561310Y91538D01*
X561267Y91626D01*
X561221Y91712D01*
X561172Y91796D01*
X561119Y91878D01*
X561064Y91958D01*
X561005Y92036D01*
X560943Y92111D01*
X560878Y92184D01*
X560810Y92254D01*
X560740Y92322D01*
X560667Y92387D01*
X560592Y92449D01*
X560514Y92508D01*
X560434Y92563D01*
X560352Y92616D01*
X560268Y92665D01*
X560182Y92711D01*
X560094Y92754D01*
X560005Y92793D01*
X559914Y92828D01*
X559822Y92860D01*
X559728Y92889D01*
X559634Y92913D01*
X559539Y92934D01*
X559443Y92951D01*
X559346Y92965D01*
X559249Y92974D01*
X559152Y92980D01*
X559054Y92982D01*
X557813Y92982D01*
X557715Y92980D01*
X557618Y92974D01*
X557521Y92965D01*
X557424Y92951D01*
X557328Y92934D01*
X557233Y92913D01*
X557139Y92889D01*
X557045Y92860D01*
X556953Y92828D01*
X556862Y92793D01*
X556773Y92754D01*
X556685Y92711D01*
X556599Y92665D01*
X556515Y92616D01*
X556433Y92563D01*
X556353Y92508D01*
X556275Y92449D01*
X556200Y92387D01*
X556127Y92322D01*
X556057Y92254D01*
X555989Y92184D01*
X555924Y92111D01*
X555862Y92036D01*
X555803Y91958D01*
X555748Y91878D01*
X555695Y91796D01*
X555646Y91712D01*
X555600Y91626D01*
X555557Y91538D01*
X555518Y91449D01*
X555483Y91358D01*
X555451Y91266D01*
X555422Y91172D01*
X555398Y91078D01*
X555377Y90983D01*
X555360Y90887D01*
X555346Y90790D01*
X555337Y90693D01*
X555331Y90596D01*
X555329Y90498D01*
X555329Y86773D01*
X550362Y86773D01*
X550362Y92982D01*
D11*
X64400Y173400D02*
X39000Y173400D01*
X64400Y173400D02*
X64400Y46400D01*
X39000Y46400D01*
X39000Y173400D01*
X26300Y141650D02*
X26300Y128950D01*
X19950Y135300D02*
X32650Y135300D01*
X26300Y116250D02*
X26300Y103550D01*
X19950Y109900D02*
X32650Y109900D01*
X26300Y90850D02*
X26300Y78150D01*
X19950Y84500D02*
X32650Y84500D01*
X32650Y59100D02*
X19950Y59100D01*
X26300Y65450D02*
X26300Y52750D01*
X19950Y160700D02*
X32650Y160700D01*
D10*
X14362Y177266D02*
X14362Y185338D01*
X14362Y177266D02*
X14364Y177155D01*
X14370Y177045D01*
X14380Y176934D01*
X14394Y176824D01*
X14411Y176715D01*
X14433Y176606D01*
X14458Y176498D01*
X14488Y176392D01*
X14521Y176286D01*
X14558Y176181D01*
X14598Y176078D01*
X14643Y175977D01*
X14690Y175877D01*
X14742Y175778D01*
X14797Y175682D01*
X14855Y175588D01*
X14916Y175496D01*
X14981Y175406D01*
X15049Y175318D01*
X15120Y175233D01*
X15194Y175151D01*
X15271Y175071D01*
X15351Y174994D01*
X15433Y174920D01*
X15518Y174849D01*
X15606Y174781D01*
X15696Y174716D01*
X15788Y174655D01*
X15882Y174597D01*
X15978Y174542D01*
X16077Y174490D01*
X16177Y174443D01*
X16278Y174398D01*
X16381Y174358D01*
X16486Y174321D01*
X16592Y174288D01*
X16698Y174258D01*
X16806Y174233D01*
X16915Y174211D01*
X17024Y174194D01*
X17134Y174180D01*
X17245Y174170D01*
X17355Y174164D01*
X17466Y174162D01*
X17577Y174164D01*
X17687Y174170D01*
X17798Y174180D01*
X17908Y174194D01*
X18017Y174211D01*
X18126Y174233D01*
X18234Y174258D01*
X18340Y174288D01*
X18446Y174321D01*
X18551Y174358D01*
X18654Y174398D01*
X18755Y174443D01*
X18855Y174490D01*
X18954Y174542D01*
X19050Y174597D01*
X19144Y174655D01*
X19236Y174716D01*
X19326Y174781D01*
X19414Y174849D01*
X19499Y174920D01*
X19581Y174994D01*
X19661Y175071D01*
X19738Y175151D01*
X19812Y175233D01*
X19883Y175318D01*
X19951Y175406D01*
X20016Y175496D01*
X20077Y175588D01*
X20135Y175682D01*
X20190Y175778D01*
X20242Y175877D01*
X20289Y175977D01*
X20334Y176078D01*
X20374Y176181D01*
X20411Y176286D01*
X20444Y176392D01*
X20474Y176498D01*
X20499Y176606D01*
X20521Y176715D01*
X20538Y176824D01*
X20552Y176934D01*
X20562Y177045D01*
X20568Y177155D01*
X20570Y177266D01*
X20571Y177266D02*
X20571Y185338D01*
X26173Y180371D02*
X29898Y180371D01*
X29996Y180369D01*
X30093Y180363D01*
X30190Y180354D01*
X30287Y180340D01*
X30383Y180323D01*
X30478Y180302D01*
X30572Y180278D01*
X30666Y180249D01*
X30758Y180217D01*
X30849Y180182D01*
X30938Y180143D01*
X31026Y180100D01*
X31112Y180054D01*
X31196Y180005D01*
X31278Y179952D01*
X31358Y179897D01*
X31436Y179838D01*
X31511Y179776D01*
X31584Y179711D01*
X31654Y179643D01*
X31722Y179573D01*
X31787Y179500D01*
X31849Y179425D01*
X31908Y179347D01*
X31963Y179267D01*
X32016Y179185D01*
X32065Y179101D01*
X32111Y179015D01*
X32154Y178927D01*
X32193Y178838D01*
X32228Y178747D01*
X32260Y178655D01*
X32289Y178561D01*
X32313Y178467D01*
X32334Y178372D01*
X32351Y178276D01*
X32365Y178179D01*
X32374Y178082D01*
X32380Y177985D01*
X32382Y177887D01*
X32382Y177266D01*
X32381Y177266D02*
X32379Y177155D01*
X32373Y177045D01*
X32363Y176934D01*
X32349Y176824D01*
X32332Y176715D01*
X32310Y176606D01*
X32285Y176498D01*
X32255Y176392D01*
X32222Y176286D01*
X32185Y176181D01*
X32145Y176078D01*
X32100Y175977D01*
X32053Y175877D01*
X32001Y175778D01*
X31946Y175682D01*
X31888Y175588D01*
X31827Y175496D01*
X31762Y175406D01*
X31694Y175318D01*
X31623Y175233D01*
X31549Y175151D01*
X31472Y175071D01*
X31392Y174994D01*
X31310Y174920D01*
X31225Y174849D01*
X31137Y174781D01*
X31047Y174716D01*
X30955Y174655D01*
X30861Y174597D01*
X30765Y174542D01*
X30666Y174490D01*
X30566Y174443D01*
X30465Y174398D01*
X30362Y174358D01*
X30257Y174321D01*
X30151Y174288D01*
X30045Y174258D01*
X29937Y174233D01*
X29828Y174211D01*
X29719Y174194D01*
X29609Y174180D01*
X29498Y174170D01*
X29388Y174164D01*
X29277Y174162D01*
X29166Y174164D01*
X29056Y174170D01*
X28945Y174180D01*
X28835Y174194D01*
X28726Y174211D01*
X28617Y174233D01*
X28509Y174258D01*
X28403Y174288D01*
X28297Y174321D01*
X28192Y174358D01*
X28089Y174398D01*
X27988Y174443D01*
X27888Y174490D01*
X27789Y174542D01*
X27693Y174597D01*
X27599Y174655D01*
X27507Y174716D01*
X27417Y174781D01*
X27329Y174849D01*
X27244Y174920D01*
X27162Y174994D01*
X27082Y175071D01*
X27005Y175151D01*
X26931Y175233D01*
X26860Y175318D01*
X26792Y175406D01*
X26727Y175496D01*
X26666Y175588D01*
X26608Y175682D01*
X26553Y175778D01*
X26501Y175877D01*
X26454Y175977D01*
X26409Y176078D01*
X26369Y176181D01*
X26332Y176286D01*
X26299Y176392D01*
X26269Y176498D01*
X26244Y176606D01*
X26222Y176715D01*
X26205Y176824D01*
X26191Y176934D01*
X26181Y177045D01*
X26175Y177155D01*
X26173Y177266D01*
X26173Y180371D01*
X26175Y180510D01*
X26181Y180650D01*
X26191Y180788D01*
X26204Y180927D01*
X26222Y181065D01*
X26243Y181203D01*
X26268Y181340D01*
X26298Y181476D01*
X26330Y181612D01*
X26367Y181746D01*
X26408Y181879D01*
X26452Y182011D01*
X26500Y182142D01*
X26551Y182272D01*
X26606Y182400D01*
X26665Y182526D01*
X26727Y182651D01*
X26793Y182774D01*
X26862Y182895D01*
X26934Y183014D01*
X27010Y183131D01*
X27089Y183245D01*
X27171Y183358D01*
X27257Y183468D01*
X27345Y183576D01*
X27436Y183681D01*
X27531Y183783D01*
X27628Y183883D01*
X27728Y183980D01*
X27830Y184075D01*
X27935Y184166D01*
X28043Y184254D01*
X28153Y184340D01*
X28266Y184422D01*
X28380Y184501D01*
X28497Y184577D01*
X28616Y184649D01*
X28737Y184718D01*
X28860Y184784D01*
X28985Y184846D01*
X29111Y184905D01*
X29239Y184960D01*
X29369Y185011D01*
X29499Y185059D01*
X29632Y185103D01*
X29765Y185144D01*
X29899Y185181D01*
X30035Y185213D01*
X30171Y185243D01*
X30308Y185268D01*
X30446Y185289D01*
X30584Y185307D01*
X30722Y185320D01*
X30861Y185330D01*
X31001Y185336D01*
X31140Y185338D01*
D11*
X380300Y162800D02*
X380300Y126300D01*
X463300Y126300D01*
X483300Y146300D01*
X483300Y162800D01*
X380300Y192800D02*
X380300Y229300D01*
X463300Y229300D01*
X483300Y209300D01*
X483300Y192800D01*
X466800Y207800D02*
X456800Y207800D01*
X461800Y202800D02*
X461800Y212800D01*
D10*
X418338Y151779D02*
X418338Y149296D01*
X418336Y149198D01*
X418330Y149101D01*
X418321Y149004D01*
X418307Y148907D01*
X418290Y148811D01*
X418269Y148716D01*
X418245Y148622D01*
X418216Y148528D01*
X418184Y148436D01*
X418149Y148345D01*
X418110Y148256D01*
X418067Y148168D01*
X418021Y148082D01*
X417972Y147998D01*
X417919Y147916D01*
X417864Y147836D01*
X417805Y147758D01*
X417743Y147683D01*
X417678Y147610D01*
X417610Y147540D01*
X417540Y147472D01*
X417467Y147407D01*
X417392Y147345D01*
X417314Y147286D01*
X417234Y147231D01*
X417152Y147178D01*
X417068Y147129D01*
X416982Y147083D01*
X416894Y147040D01*
X416805Y147001D01*
X416714Y146966D01*
X416622Y146934D01*
X416528Y146905D01*
X416434Y146881D01*
X416339Y146860D01*
X416243Y146843D01*
X416146Y146829D01*
X416049Y146820D01*
X415952Y146814D01*
X415854Y146812D01*
X409646Y146812D01*
X409548Y146814D01*
X409451Y146820D01*
X409354Y146829D01*
X409257Y146843D01*
X409161Y146860D01*
X409066Y146881D01*
X408972Y146905D01*
X408878Y146934D01*
X408786Y146966D01*
X408695Y147001D01*
X408606Y147040D01*
X408518Y147083D01*
X408432Y147129D01*
X408348Y147178D01*
X408266Y147231D01*
X408186Y147286D01*
X408108Y147345D01*
X408033Y147407D01*
X407960Y147472D01*
X407890Y147540D01*
X407822Y147610D01*
X407757Y147683D01*
X407695Y147758D01*
X407636Y147836D01*
X407581Y147916D01*
X407528Y147998D01*
X407479Y148082D01*
X407433Y148168D01*
X407390Y148256D01*
X407351Y148345D01*
X407316Y148436D01*
X407284Y148528D01*
X407255Y148622D01*
X407231Y148716D01*
X407210Y148811D01*
X407193Y148907D01*
X407179Y149004D01*
X407170Y149101D01*
X407164Y149198D01*
X407162Y149296D01*
X407162Y151779D01*
X409646Y156379D02*
X407162Y159483D01*
X418338Y159483D01*
X418338Y156379D02*
X418338Y162587D01*
M02*
