G04 EAGLE Gerber RS-274X export*
G75*
%MOMM*%
%FSLAX34Y34*%
%LPD*%
%INSolderpaste Top*%
%IPPOS*%
%AMOC8*
5,1,8,0,0,1.08239X$1,22.5*%
G01*
%ADD10R,1.031241X0.949959*%
%ADD11C,0.102500*%
%ADD12R,4.100000X2.000000*%


D10*
X133350Y185801D03*
X133350Y169799D03*
D11*
X285262Y140988D02*
X299938Y140988D01*
X299938Y137912D01*
X285262Y137912D01*
X285262Y140988D01*
X285262Y138886D02*
X299938Y138886D01*
X299938Y139860D02*
X285262Y139860D01*
X285262Y140834D02*
X299938Y140834D01*
X299938Y147488D02*
X285262Y147488D01*
X299938Y147488D02*
X299938Y144412D01*
X285262Y144412D01*
X285262Y147488D01*
X285262Y145386D02*
X299938Y145386D01*
X299938Y146360D02*
X285262Y146360D01*
X285262Y147334D02*
X299938Y147334D01*
X299938Y153988D02*
X285262Y153988D01*
X299938Y153988D02*
X299938Y150912D01*
X285262Y150912D01*
X285262Y153988D01*
X285262Y151886D02*
X299938Y151886D01*
X299938Y152860D02*
X285262Y152860D01*
X285262Y153834D02*
X299938Y153834D01*
X299938Y160488D02*
X285262Y160488D01*
X299938Y160488D02*
X299938Y157412D01*
X285262Y157412D01*
X285262Y160488D01*
X285262Y158386D02*
X299938Y158386D01*
X299938Y159360D02*
X285262Y159360D01*
X285262Y160334D02*
X299938Y160334D01*
X299938Y166988D02*
X285262Y166988D01*
X299938Y166988D02*
X299938Y163912D01*
X285262Y163912D01*
X285262Y166988D01*
X285262Y164886D02*
X299938Y164886D01*
X299938Y165860D02*
X285262Y165860D01*
X285262Y166834D02*
X299938Y166834D01*
X299938Y173488D02*
X285262Y173488D01*
X299938Y173488D02*
X299938Y170412D01*
X285262Y170412D01*
X285262Y173488D01*
X285262Y171386D02*
X299938Y171386D01*
X299938Y172360D02*
X285262Y172360D01*
X285262Y173334D02*
X299938Y173334D01*
X299938Y179988D02*
X285262Y179988D01*
X299938Y179988D02*
X299938Y176912D01*
X285262Y176912D01*
X285262Y179988D01*
X285262Y177886D02*
X299938Y177886D01*
X299938Y178860D02*
X285262Y178860D01*
X285262Y179834D02*
X299938Y179834D01*
X299938Y186488D02*
X285262Y186488D01*
X299938Y186488D02*
X299938Y183412D01*
X285262Y183412D01*
X285262Y186488D01*
X285262Y184386D02*
X299938Y184386D01*
X299938Y185360D02*
X285262Y185360D01*
X285262Y186334D02*
X299938Y186334D01*
X299938Y192988D02*
X285262Y192988D01*
X299938Y192988D02*
X299938Y189912D01*
X285262Y189912D01*
X285262Y192988D01*
X285262Y190886D02*
X299938Y190886D01*
X299938Y191860D02*
X285262Y191860D01*
X285262Y192834D02*
X299938Y192834D01*
X299938Y199488D02*
X285262Y199488D01*
X299938Y199488D02*
X299938Y196412D01*
X285262Y196412D01*
X285262Y199488D01*
X285262Y197386D02*
X299938Y197386D01*
X299938Y198360D02*
X285262Y198360D01*
X285262Y199334D02*
X299938Y199334D01*
X242538Y199488D02*
X227862Y199488D01*
X242538Y199488D02*
X242538Y196412D01*
X227862Y196412D01*
X227862Y199488D01*
X227862Y197386D02*
X242538Y197386D01*
X242538Y198360D02*
X227862Y198360D01*
X227862Y199334D02*
X242538Y199334D01*
X242538Y192988D02*
X227862Y192988D01*
X242538Y192988D02*
X242538Y189912D01*
X227862Y189912D01*
X227862Y192988D01*
X227862Y190886D02*
X242538Y190886D01*
X242538Y191860D02*
X227862Y191860D01*
X227862Y192834D02*
X242538Y192834D01*
X242538Y186488D02*
X227862Y186488D01*
X242538Y186488D02*
X242538Y183412D01*
X227862Y183412D01*
X227862Y186488D01*
X227862Y184386D02*
X242538Y184386D01*
X242538Y185360D02*
X227862Y185360D01*
X227862Y186334D02*
X242538Y186334D01*
X242538Y179988D02*
X227862Y179988D01*
X242538Y179988D02*
X242538Y176912D01*
X227862Y176912D01*
X227862Y179988D01*
X227862Y177886D02*
X242538Y177886D01*
X242538Y178860D02*
X227862Y178860D01*
X227862Y179834D02*
X242538Y179834D01*
X242538Y173488D02*
X227862Y173488D01*
X242538Y173488D02*
X242538Y170412D01*
X227862Y170412D01*
X227862Y173488D01*
X227862Y171386D02*
X242538Y171386D01*
X242538Y172360D02*
X227862Y172360D01*
X227862Y173334D02*
X242538Y173334D01*
X242538Y166988D02*
X227862Y166988D01*
X242538Y166988D02*
X242538Y163912D01*
X227862Y163912D01*
X227862Y166988D01*
X227862Y164886D02*
X242538Y164886D01*
X242538Y165860D02*
X227862Y165860D01*
X227862Y166834D02*
X242538Y166834D01*
X242538Y160488D02*
X227862Y160488D01*
X242538Y160488D02*
X242538Y157412D01*
X227862Y157412D01*
X227862Y160488D01*
X227862Y158386D02*
X242538Y158386D01*
X242538Y159360D02*
X227862Y159360D01*
X227862Y160334D02*
X242538Y160334D01*
X242538Y153988D02*
X227862Y153988D01*
X242538Y153988D02*
X242538Y150912D01*
X227862Y150912D01*
X227862Y153988D01*
X227862Y151886D02*
X242538Y151886D01*
X242538Y152860D02*
X227862Y152860D01*
X227862Y153834D02*
X242538Y153834D01*
X242538Y147488D02*
X227862Y147488D01*
X242538Y147488D02*
X242538Y144412D01*
X227862Y144412D01*
X227862Y147488D01*
X227862Y145386D02*
X242538Y145386D01*
X242538Y146360D02*
X227862Y146360D01*
X227862Y147334D02*
X242538Y147334D01*
X242538Y140988D02*
X227862Y140988D01*
X242538Y140988D02*
X242538Y137912D01*
X227862Y137912D01*
X227862Y140988D01*
X227862Y138886D02*
X242538Y138886D01*
X242538Y139860D02*
X227862Y139860D01*
X227862Y140834D02*
X242538Y140834D01*
D12*
X475300Y177800D03*
X388300Y177800D03*
M02*
