M48
;GenerationSoftware,Autodesk,EAGLE,9.6.2*%
;CreationDate,2021-12-09T03:20:33Z*%
FMAT,2
ICI,OFF
METRIC,TZ,000.000
T8C0.305
T7C0.350
T6C0.889
T5C0.920
T4C1.016
T3C1.400
T2C2.200
T1C2.300
%
G90
M71
T1
X61190Y11225
X61190Y24365
T2
X68580Y3175
X17780Y3175
X68580Y32385
X17780Y32385
T3
X10755Y32285
X5755Y32285
X10755Y19785
X5755Y19785
T4
X17780Y26670
X17780Y24130
X17780Y19050
X17780Y16510
X17780Y13970
X17780Y11430
X17780Y8890
X17780Y6350
X17780Y21590
X17780Y29210
T5
X58480Y14295
X58480Y16795
X58480Y18795
X58480Y21295
T6
X57590Y32030
X57590Y29490
X55050Y32030
X55050Y29490
X52510Y32030
X49970Y32030
X49970Y29490
X47430Y32030
X47430Y29490
X44890Y32030
X44890Y29490
X42350Y32030
X42350Y29490
X39810Y32030
X39810Y29490
X37270Y32030
X37270Y29490
X34730Y32030
X34730Y29490
X32190Y32030
X32190Y29490
X29650Y32030
X29650Y29490
X27110Y32030
X27110Y29490
X24570Y32030
X24570Y29490
X22030Y32030
X22030Y29490
X65210Y6630
X65210Y4090
X62670Y6630
X62670Y4090
X60130Y6630
X60130Y4090
X57590Y6630
X57590Y4090
X55050Y6630
X55050Y4090
X52510Y6630
X52510Y4090
X49970Y6630
X49970Y4090
X47430Y6630
X47430Y4090
X44890Y6630
X44890Y4090
X42350Y6630
X42350Y4090
X39810Y6630
X39810Y4090
X37270Y6630
X37270Y4090
X34730Y6630
X34730Y4090
X32190Y6630
X32190Y4090
X29650Y6630
X29650Y4090
X27110Y6630
X24570Y6630
X24570Y4090
X22030Y6630
X22030Y4090
X9940Y10785
X9940Y8245
X9940Y13325
X27110Y4090
X52510Y29490
X65210Y32030
X65210Y29490
X62670Y32030
X62670Y29490
X60130Y32030
X60130Y29490
X5170Y13530
X5170Y16070
X5170Y10990
X5170Y8450
X5170Y5910
T7
X31750Y19685
X34925Y17780
X53848Y23368
X52324Y22860
T8
X33020Y13970
X32385Y14605
X23495Y21590
X13335Y15240
X15240Y17780
M30